<mxfile host="Electron" agent="Mozilla/5.0 (Windows NT 10.0; Win64; x64) AppleWebKit/537.36 (KHTML, like Gecko) draw.io/26.0.16 Chrome/132.0.6834.196 Electron/34.2.0 Safari/537.36" version="26.0.16">
  <diagram name="페이지-1" id="LrU_tW_rVNSrr9okbilR">
    <mxGraphModel dx="915" dy="688" grid="1" gridSize="10" guides="1" tooltips="1" connect="1" arrows="1" fold="1" page="1" pageScale="1" pageWidth="1169" pageHeight="827" math="0" shadow="0">
      <root>
        <mxCell id="0" />
        <mxCell id="1" parent="0" />
        <mxCell id="p4HpwbEPAxK2W1OmChS7-2" value="" style="shape=table;startSize=0;container=1;collapsible=0;childLayout=tableLayout;" parent="1" vertex="1">
          <mxGeometry x="10" y="10" width="300" height="150" as="geometry" />
        </mxCell>
        <mxCell id="p4HpwbEPAxK2W1OmChS7-3" value="" style="shape=tableRow;horizontal=0;startSize=0;swimlaneHead=0;swimlaneBody=0;strokeColor=inherit;top=0;left=0;bottom=0;right=0;collapsible=0;dropTarget=0;fillColor=none;points=[[0,0.5],[1,0.5]];portConstraint=eastwest;" parent="p4HpwbEPAxK2W1OmChS7-2" vertex="1">
          <mxGeometry width="300" height="12" as="geometry" />
        </mxCell>
        <mxCell id="p4HpwbEPAxK2W1OmChS7-4" value="" style="shape=partialRectangle;html=1;whiteSpace=wrap;connectable=0;strokeColor=inherit;overflow=hidden;fillColor=none;top=0;left=0;bottom=0;right=0;pointerEvents=1;" parent="p4HpwbEPAxK2W1OmChS7-3" vertex="1">
          <mxGeometry width="15" height="12" as="geometry">
            <mxRectangle width="15" height="12" as="alternateBounds" />
          </mxGeometry>
        </mxCell>
        <mxCell id="p4HpwbEPAxK2W1OmChS7-5" value="" style="shape=partialRectangle;html=1;whiteSpace=wrap;connectable=0;strokeColor=inherit;overflow=hidden;fillColor=none;top=0;left=0;bottom=0;right=0;pointerEvents=1;" parent="p4HpwbEPAxK2W1OmChS7-3" vertex="1">
          <mxGeometry x="15" width="15" height="12" as="geometry">
            <mxRectangle width="15" height="12" as="alternateBounds" />
          </mxGeometry>
        </mxCell>
        <mxCell id="p4HpwbEPAxK2W1OmChS7-6" value="" style="shape=partialRectangle;html=1;whiteSpace=wrap;connectable=0;strokeColor=inherit;overflow=hidden;fillColor=none;top=0;left=0;bottom=0;right=0;pointerEvents=1;" parent="p4HpwbEPAxK2W1OmChS7-3" vertex="1">
          <mxGeometry x="30" width="15" height="12" as="geometry">
            <mxRectangle width="15" height="12" as="alternateBounds" />
          </mxGeometry>
        </mxCell>
        <mxCell id="p4HpwbEPAxK2W1OmChS7-7" value="" style="shape=partialRectangle;html=1;whiteSpace=wrap;connectable=0;strokeColor=inherit;overflow=hidden;fillColor=none;top=0;left=0;bottom=0;right=0;pointerEvents=1;" parent="p4HpwbEPAxK2W1OmChS7-3" vertex="1">
          <mxGeometry x="45" width="15" height="12" as="geometry">
            <mxRectangle width="15" height="12" as="alternateBounds" />
          </mxGeometry>
        </mxCell>
        <mxCell id="p4HpwbEPAxK2W1OmChS7-8" value="" style="shape=partialRectangle;html=1;whiteSpace=wrap;connectable=0;strokeColor=inherit;overflow=hidden;fillColor=none;top=0;left=0;bottom=0;right=0;pointerEvents=1;" parent="p4HpwbEPAxK2W1OmChS7-3" vertex="1">
          <mxGeometry x="60" width="15" height="12" as="geometry">
            <mxRectangle width="15" height="12" as="alternateBounds" />
          </mxGeometry>
        </mxCell>
        <mxCell id="p4HpwbEPAxK2W1OmChS7-9" value="" style="shape=partialRectangle;html=1;whiteSpace=wrap;connectable=0;strokeColor=inherit;overflow=hidden;fillColor=none;top=0;left=0;bottom=0;right=0;pointerEvents=1;" parent="p4HpwbEPAxK2W1OmChS7-3" vertex="1">
          <mxGeometry x="75" width="15" height="12" as="geometry">
            <mxRectangle width="15" height="12" as="alternateBounds" />
          </mxGeometry>
        </mxCell>
        <mxCell id="p4HpwbEPAxK2W1OmChS7-10" value="" style="shape=partialRectangle;html=1;whiteSpace=wrap;connectable=0;strokeColor=inherit;overflow=hidden;fillColor=none;top=0;left=0;bottom=0;right=0;pointerEvents=1;" parent="p4HpwbEPAxK2W1OmChS7-3" vertex="1">
          <mxGeometry x="90" width="15" height="12" as="geometry">
            <mxRectangle width="15" height="12" as="alternateBounds" />
          </mxGeometry>
        </mxCell>
        <mxCell id="p4HpwbEPAxK2W1OmChS7-11" value="" style="shape=partialRectangle;html=1;whiteSpace=wrap;connectable=0;strokeColor=inherit;overflow=hidden;fillColor=none;top=0;left=0;bottom=0;right=0;pointerEvents=1;" parent="p4HpwbEPAxK2W1OmChS7-3" vertex="1">
          <mxGeometry x="105" width="15" height="12" as="geometry">
            <mxRectangle width="15" height="12" as="alternateBounds" />
          </mxGeometry>
        </mxCell>
        <mxCell id="p4HpwbEPAxK2W1OmChS7-12" value="" style="shape=partialRectangle;html=1;whiteSpace=wrap;connectable=0;strokeColor=inherit;overflow=hidden;fillColor=none;top=0;left=0;bottom=0;right=0;pointerEvents=1;" parent="p4HpwbEPAxK2W1OmChS7-3" vertex="1">
          <mxGeometry x="120" width="15" height="12" as="geometry">
            <mxRectangle width="15" height="12" as="alternateBounds" />
          </mxGeometry>
        </mxCell>
        <mxCell id="p4HpwbEPAxK2W1OmChS7-13" value="" style="shape=partialRectangle;html=1;whiteSpace=wrap;connectable=0;strokeColor=inherit;overflow=hidden;fillColor=none;top=0;left=0;bottom=0;right=0;pointerEvents=1;" parent="p4HpwbEPAxK2W1OmChS7-3" vertex="1">
          <mxGeometry x="135" width="15" height="12" as="geometry">
            <mxRectangle width="15" height="12" as="alternateBounds" />
          </mxGeometry>
        </mxCell>
        <mxCell id="p4HpwbEPAxK2W1OmChS7-14" value="" style="shape=partialRectangle;html=1;whiteSpace=wrap;connectable=0;strokeColor=inherit;overflow=hidden;fillColor=none;top=0;left=0;bottom=0;right=0;pointerEvents=1;" parent="p4HpwbEPAxK2W1OmChS7-3" vertex="1">
          <mxGeometry x="150" width="15" height="12" as="geometry">
            <mxRectangle width="15" height="12" as="alternateBounds" />
          </mxGeometry>
        </mxCell>
        <mxCell id="p4HpwbEPAxK2W1OmChS7-15" value="" style="shape=partialRectangle;html=1;whiteSpace=wrap;connectable=0;strokeColor=inherit;overflow=hidden;fillColor=none;top=0;left=0;bottom=0;right=0;pointerEvents=1;" parent="p4HpwbEPAxK2W1OmChS7-3" vertex="1">
          <mxGeometry x="165" width="15" height="12" as="geometry">
            <mxRectangle width="15" height="12" as="alternateBounds" />
          </mxGeometry>
        </mxCell>
        <mxCell id="p4HpwbEPAxK2W1OmChS7-16" value="" style="shape=partialRectangle;html=1;whiteSpace=wrap;connectable=0;strokeColor=inherit;overflow=hidden;fillColor=none;top=0;left=0;bottom=0;right=0;pointerEvents=1;" parent="p4HpwbEPAxK2W1OmChS7-3" vertex="1">
          <mxGeometry x="180" width="15" height="12" as="geometry">
            <mxRectangle width="15" height="12" as="alternateBounds" />
          </mxGeometry>
        </mxCell>
        <mxCell id="p4HpwbEPAxK2W1OmChS7-17" value="" style="shape=partialRectangle;html=1;whiteSpace=wrap;connectable=0;strokeColor=inherit;overflow=hidden;fillColor=none;top=0;left=0;bottom=0;right=0;pointerEvents=1;" parent="p4HpwbEPAxK2W1OmChS7-3" vertex="1">
          <mxGeometry x="195" width="15" height="12" as="geometry">
            <mxRectangle width="15" height="12" as="alternateBounds" />
          </mxGeometry>
        </mxCell>
        <mxCell id="p4HpwbEPAxK2W1OmChS7-18" value="" style="shape=partialRectangle;html=1;whiteSpace=wrap;connectable=0;strokeColor=inherit;overflow=hidden;fillColor=none;top=0;left=0;bottom=0;right=0;pointerEvents=1;" parent="p4HpwbEPAxK2W1OmChS7-3" vertex="1">
          <mxGeometry x="210" width="15" height="12" as="geometry">
            <mxRectangle width="15" height="12" as="alternateBounds" />
          </mxGeometry>
        </mxCell>
        <mxCell id="p4HpwbEPAxK2W1OmChS7-19" value="" style="shape=partialRectangle;html=1;whiteSpace=wrap;connectable=0;strokeColor=inherit;overflow=hidden;fillColor=none;top=0;left=0;bottom=0;right=0;pointerEvents=1;" parent="p4HpwbEPAxK2W1OmChS7-3" vertex="1">
          <mxGeometry x="225" width="15" height="12" as="geometry">
            <mxRectangle width="15" height="12" as="alternateBounds" />
          </mxGeometry>
        </mxCell>
        <mxCell id="p4HpwbEPAxK2W1OmChS7-20" value="" style="shape=partialRectangle;html=1;whiteSpace=wrap;connectable=0;strokeColor=inherit;overflow=hidden;fillColor=none;top=0;left=0;bottom=0;right=0;pointerEvents=1;" parent="p4HpwbEPAxK2W1OmChS7-3" vertex="1">
          <mxGeometry x="240" width="15" height="12" as="geometry">
            <mxRectangle width="15" height="12" as="alternateBounds" />
          </mxGeometry>
        </mxCell>
        <mxCell id="p4HpwbEPAxK2W1OmChS7-21" value="" style="shape=partialRectangle;html=1;whiteSpace=wrap;connectable=0;strokeColor=inherit;overflow=hidden;fillColor=none;top=0;left=0;bottom=0;right=0;pointerEvents=1;" parent="p4HpwbEPAxK2W1OmChS7-3" vertex="1">
          <mxGeometry x="255" width="15" height="12" as="geometry">
            <mxRectangle width="15" height="12" as="alternateBounds" />
          </mxGeometry>
        </mxCell>
        <mxCell id="p4HpwbEPAxK2W1OmChS7-22" value="" style="shape=partialRectangle;html=1;whiteSpace=wrap;connectable=0;strokeColor=inherit;overflow=hidden;fillColor=none;top=0;left=0;bottom=0;right=0;pointerEvents=1;" parent="p4HpwbEPAxK2W1OmChS7-3" vertex="1">
          <mxGeometry x="270" width="15" height="12" as="geometry">
            <mxRectangle width="15" height="12" as="alternateBounds" />
          </mxGeometry>
        </mxCell>
        <mxCell id="p4HpwbEPAxK2W1OmChS7-23" value="" style="shape=partialRectangle;html=1;whiteSpace=wrap;connectable=0;strokeColor=inherit;overflow=hidden;fillColor=none;top=0;left=0;bottom=0;right=0;pointerEvents=1;" parent="p4HpwbEPAxK2W1OmChS7-3" vertex="1">
          <mxGeometry x="285" width="15" height="12" as="geometry">
            <mxRectangle width="15" height="12" as="alternateBounds" />
          </mxGeometry>
        </mxCell>
        <mxCell id="p4HpwbEPAxK2W1OmChS7-24" value="" style="shape=tableRow;horizontal=0;startSize=0;swimlaneHead=0;swimlaneBody=0;strokeColor=inherit;top=0;left=0;bottom=0;right=0;collapsible=0;dropTarget=0;fillColor=none;points=[[0,0.5],[1,0.5]];portConstraint=eastwest;" parent="p4HpwbEPAxK2W1OmChS7-2" vertex="1">
          <mxGeometry y="12" width="300" height="11" as="geometry" />
        </mxCell>
        <mxCell id="p4HpwbEPAxK2W1OmChS7-25" value="" style="shape=partialRectangle;html=1;whiteSpace=wrap;connectable=0;strokeColor=inherit;overflow=hidden;fillColor=none;top=0;left=0;bottom=0;right=0;pointerEvents=1;" parent="p4HpwbEPAxK2W1OmChS7-24" vertex="1">
          <mxGeometry width="15" height="11" as="geometry">
            <mxRectangle width="15" height="11" as="alternateBounds" />
          </mxGeometry>
        </mxCell>
        <mxCell id="p4HpwbEPAxK2W1OmChS7-26" value="" style="shape=partialRectangle;html=1;whiteSpace=wrap;connectable=0;strokeColor=inherit;overflow=hidden;fillColor=none;top=0;left=0;bottom=0;right=0;pointerEvents=1;" parent="p4HpwbEPAxK2W1OmChS7-24" vertex="1">
          <mxGeometry x="15" width="15" height="11" as="geometry">
            <mxRectangle width="15" height="11" as="alternateBounds" />
          </mxGeometry>
        </mxCell>
        <mxCell id="p4HpwbEPAxK2W1OmChS7-27" value="" style="shape=partialRectangle;html=1;whiteSpace=wrap;connectable=0;strokeColor=inherit;overflow=hidden;fillColor=none;top=0;left=0;bottom=0;right=0;pointerEvents=1;" parent="p4HpwbEPAxK2W1OmChS7-24" vertex="1">
          <mxGeometry x="30" width="15" height="11" as="geometry">
            <mxRectangle width="15" height="11" as="alternateBounds" />
          </mxGeometry>
        </mxCell>
        <mxCell id="p4HpwbEPAxK2W1OmChS7-28" value="" style="shape=partialRectangle;html=1;whiteSpace=wrap;connectable=0;strokeColor=inherit;overflow=hidden;fillColor=none;top=0;left=0;bottom=0;right=0;pointerEvents=1;" parent="p4HpwbEPAxK2W1OmChS7-24" vertex="1">
          <mxGeometry x="45" width="15" height="11" as="geometry">
            <mxRectangle width="15" height="11" as="alternateBounds" />
          </mxGeometry>
        </mxCell>
        <mxCell id="p4HpwbEPAxK2W1OmChS7-29" value="" style="shape=partialRectangle;html=1;whiteSpace=wrap;connectable=0;strokeColor=inherit;overflow=hidden;fillColor=none;top=0;left=0;bottom=0;right=0;pointerEvents=1;" parent="p4HpwbEPAxK2W1OmChS7-24" vertex="1">
          <mxGeometry x="60" width="15" height="11" as="geometry">
            <mxRectangle width="15" height="11" as="alternateBounds" />
          </mxGeometry>
        </mxCell>
        <mxCell id="p4HpwbEPAxK2W1OmChS7-30" value="" style="shape=partialRectangle;html=1;whiteSpace=wrap;connectable=0;strokeColor=inherit;overflow=hidden;fillColor=none;top=0;left=0;bottom=0;right=0;pointerEvents=1;" parent="p4HpwbEPAxK2W1OmChS7-24" vertex="1">
          <mxGeometry x="75" width="15" height="11" as="geometry">
            <mxRectangle width="15" height="11" as="alternateBounds" />
          </mxGeometry>
        </mxCell>
        <mxCell id="p4HpwbEPAxK2W1OmChS7-31" value="" style="shape=partialRectangle;html=1;whiteSpace=wrap;connectable=0;strokeColor=inherit;overflow=hidden;fillColor=none;top=0;left=0;bottom=0;right=0;pointerEvents=1;" parent="p4HpwbEPAxK2W1OmChS7-24" vertex="1">
          <mxGeometry x="90" width="15" height="11" as="geometry">
            <mxRectangle width="15" height="11" as="alternateBounds" />
          </mxGeometry>
        </mxCell>
        <mxCell id="p4HpwbEPAxK2W1OmChS7-32" value="" style="shape=partialRectangle;html=1;whiteSpace=wrap;connectable=0;strokeColor=inherit;overflow=hidden;fillColor=none;top=0;left=0;bottom=0;right=0;pointerEvents=1;" parent="p4HpwbEPAxK2W1OmChS7-24" vertex="1">
          <mxGeometry x="105" width="15" height="11" as="geometry">
            <mxRectangle width="15" height="11" as="alternateBounds" />
          </mxGeometry>
        </mxCell>
        <mxCell id="p4HpwbEPAxK2W1OmChS7-33" value="" style="shape=partialRectangle;html=1;whiteSpace=wrap;connectable=0;strokeColor=inherit;overflow=hidden;fillColor=none;top=0;left=0;bottom=0;right=0;pointerEvents=1;" parent="p4HpwbEPAxK2W1OmChS7-24" vertex="1">
          <mxGeometry x="120" width="15" height="11" as="geometry">
            <mxRectangle width="15" height="11" as="alternateBounds" />
          </mxGeometry>
        </mxCell>
        <mxCell id="p4HpwbEPAxK2W1OmChS7-34" value="" style="shape=partialRectangle;html=1;whiteSpace=wrap;connectable=0;strokeColor=inherit;overflow=hidden;fillColor=none;top=0;left=0;bottom=0;right=0;pointerEvents=1;" parent="p4HpwbEPAxK2W1OmChS7-24" vertex="1">
          <mxGeometry x="135" width="15" height="11" as="geometry">
            <mxRectangle width="15" height="11" as="alternateBounds" />
          </mxGeometry>
        </mxCell>
        <mxCell id="p4HpwbEPAxK2W1OmChS7-35" value="" style="shape=partialRectangle;html=1;whiteSpace=wrap;connectable=0;strokeColor=inherit;overflow=hidden;fillColor=none;top=0;left=0;bottom=0;right=0;pointerEvents=1;" parent="p4HpwbEPAxK2W1OmChS7-24" vertex="1">
          <mxGeometry x="150" width="15" height="11" as="geometry">
            <mxRectangle width="15" height="11" as="alternateBounds" />
          </mxGeometry>
        </mxCell>
        <mxCell id="p4HpwbEPAxK2W1OmChS7-36" value="" style="shape=partialRectangle;html=1;whiteSpace=wrap;connectable=0;strokeColor=inherit;overflow=hidden;fillColor=none;top=0;left=0;bottom=0;right=0;pointerEvents=1;" parent="p4HpwbEPAxK2W1OmChS7-24" vertex="1">
          <mxGeometry x="165" width="15" height="11" as="geometry">
            <mxRectangle width="15" height="11" as="alternateBounds" />
          </mxGeometry>
        </mxCell>
        <mxCell id="p4HpwbEPAxK2W1OmChS7-37" value="" style="shape=partialRectangle;html=1;whiteSpace=wrap;connectable=0;strokeColor=inherit;overflow=hidden;fillColor=none;top=0;left=0;bottom=0;right=0;pointerEvents=1;" parent="p4HpwbEPAxK2W1OmChS7-24" vertex="1">
          <mxGeometry x="180" width="15" height="11" as="geometry">
            <mxRectangle width="15" height="11" as="alternateBounds" />
          </mxGeometry>
        </mxCell>
        <mxCell id="p4HpwbEPAxK2W1OmChS7-38" value="" style="shape=partialRectangle;html=1;whiteSpace=wrap;connectable=0;strokeColor=inherit;overflow=hidden;fillColor=none;top=0;left=0;bottom=0;right=0;pointerEvents=1;" parent="p4HpwbEPAxK2W1OmChS7-24" vertex="1">
          <mxGeometry x="195" width="15" height="11" as="geometry">
            <mxRectangle width="15" height="11" as="alternateBounds" />
          </mxGeometry>
        </mxCell>
        <mxCell id="p4HpwbEPAxK2W1OmChS7-39" value="" style="shape=partialRectangle;html=1;whiteSpace=wrap;connectable=0;strokeColor=inherit;overflow=hidden;fillColor=none;top=0;left=0;bottom=0;right=0;pointerEvents=1;" parent="p4HpwbEPAxK2W1OmChS7-24" vertex="1">
          <mxGeometry x="210" width="15" height="11" as="geometry">
            <mxRectangle width="15" height="11" as="alternateBounds" />
          </mxGeometry>
        </mxCell>
        <mxCell id="p4HpwbEPAxK2W1OmChS7-40" value="" style="shape=partialRectangle;html=1;whiteSpace=wrap;connectable=0;strokeColor=inherit;overflow=hidden;fillColor=none;top=0;left=0;bottom=0;right=0;pointerEvents=1;" parent="p4HpwbEPAxK2W1OmChS7-24" vertex="1">
          <mxGeometry x="225" width="15" height="11" as="geometry">
            <mxRectangle width="15" height="11" as="alternateBounds" />
          </mxGeometry>
        </mxCell>
        <mxCell id="p4HpwbEPAxK2W1OmChS7-41" value="" style="shape=partialRectangle;html=1;whiteSpace=wrap;connectable=0;strokeColor=inherit;overflow=hidden;fillColor=none;top=0;left=0;bottom=0;right=0;pointerEvents=1;" parent="p4HpwbEPAxK2W1OmChS7-24" vertex="1">
          <mxGeometry x="240" width="15" height="11" as="geometry">
            <mxRectangle width="15" height="11" as="alternateBounds" />
          </mxGeometry>
        </mxCell>
        <mxCell id="p4HpwbEPAxK2W1OmChS7-42" value="" style="shape=partialRectangle;html=1;whiteSpace=wrap;connectable=0;strokeColor=inherit;overflow=hidden;fillColor=none;top=0;left=0;bottom=0;right=0;pointerEvents=1;" parent="p4HpwbEPAxK2W1OmChS7-24" vertex="1">
          <mxGeometry x="255" width="15" height="11" as="geometry">
            <mxRectangle width="15" height="11" as="alternateBounds" />
          </mxGeometry>
        </mxCell>
        <mxCell id="p4HpwbEPAxK2W1OmChS7-43" value="" style="shape=partialRectangle;html=1;whiteSpace=wrap;connectable=0;strokeColor=inherit;overflow=hidden;fillColor=none;top=0;left=0;bottom=0;right=0;pointerEvents=1;" parent="p4HpwbEPAxK2W1OmChS7-24" vertex="1">
          <mxGeometry x="270" width="15" height="11" as="geometry">
            <mxRectangle width="15" height="11" as="alternateBounds" />
          </mxGeometry>
        </mxCell>
        <mxCell id="p4HpwbEPAxK2W1OmChS7-44" value="" style="shape=partialRectangle;html=1;whiteSpace=wrap;connectable=0;strokeColor=inherit;overflow=hidden;fillColor=none;top=0;left=0;bottom=0;right=0;pointerEvents=1;" parent="p4HpwbEPAxK2W1OmChS7-24" vertex="1">
          <mxGeometry x="285" width="15" height="11" as="geometry">
            <mxRectangle width="15" height="11" as="alternateBounds" />
          </mxGeometry>
        </mxCell>
        <mxCell id="p4HpwbEPAxK2W1OmChS7-45" value="" style="shape=tableRow;horizontal=0;startSize=0;swimlaneHead=0;swimlaneBody=0;strokeColor=inherit;top=0;left=0;bottom=0;right=0;collapsible=0;dropTarget=0;fillColor=none;points=[[0,0.5],[1,0.5]];portConstraint=eastwest;" parent="p4HpwbEPAxK2W1OmChS7-2" vertex="1">
          <mxGeometry y="23" width="300" height="12" as="geometry" />
        </mxCell>
        <mxCell id="p4HpwbEPAxK2W1OmChS7-46" value="" style="shape=partialRectangle;html=1;whiteSpace=wrap;connectable=0;strokeColor=inherit;overflow=hidden;fillColor=none;top=0;left=0;bottom=0;right=0;pointerEvents=1;" parent="p4HpwbEPAxK2W1OmChS7-45" vertex="1">
          <mxGeometry width="15" height="12" as="geometry">
            <mxRectangle width="15" height="12" as="alternateBounds" />
          </mxGeometry>
        </mxCell>
        <mxCell id="p4HpwbEPAxK2W1OmChS7-47" value="" style="shape=partialRectangle;html=1;whiteSpace=wrap;connectable=0;strokeColor=inherit;overflow=hidden;fillColor=none;top=0;left=0;bottom=0;right=0;pointerEvents=1;" parent="p4HpwbEPAxK2W1OmChS7-45" vertex="1">
          <mxGeometry x="15" width="15" height="12" as="geometry">
            <mxRectangle width="15" height="12" as="alternateBounds" />
          </mxGeometry>
        </mxCell>
        <mxCell id="p4HpwbEPAxK2W1OmChS7-48" value="" style="shape=partialRectangle;html=1;whiteSpace=wrap;connectable=0;strokeColor=inherit;overflow=hidden;fillColor=none;top=0;left=0;bottom=0;right=0;pointerEvents=1;" parent="p4HpwbEPAxK2W1OmChS7-45" vertex="1">
          <mxGeometry x="30" width="15" height="12" as="geometry">
            <mxRectangle width="15" height="12" as="alternateBounds" />
          </mxGeometry>
        </mxCell>
        <mxCell id="p4HpwbEPAxK2W1OmChS7-49" value="" style="shape=partialRectangle;html=1;whiteSpace=wrap;connectable=0;strokeColor=inherit;overflow=hidden;fillColor=none;top=0;left=0;bottom=0;right=0;pointerEvents=1;" parent="p4HpwbEPAxK2W1OmChS7-45" vertex="1">
          <mxGeometry x="45" width="15" height="12" as="geometry">
            <mxRectangle width="15" height="12" as="alternateBounds" />
          </mxGeometry>
        </mxCell>
        <mxCell id="p4HpwbEPAxK2W1OmChS7-50" value="" style="shape=partialRectangle;html=1;whiteSpace=wrap;connectable=0;strokeColor=inherit;overflow=hidden;fillColor=none;top=0;left=0;bottom=0;right=0;pointerEvents=1;" parent="p4HpwbEPAxK2W1OmChS7-45" vertex="1">
          <mxGeometry x="60" width="15" height="12" as="geometry">
            <mxRectangle width="15" height="12" as="alternateBounds" />
          </mxGeometry>
        </mxCell>
        <mxCell id="p4HpwbEPAxK2W1OmChS7-51" value="" style="shape=partialRectangle;html=1;whiteSpace=wrap;connectable=0;strokeColor=inherit;overflow=hidden;fillColor=none;top=0;left=0;bottom=0;right=0;pointerEvents=1;" parent="p4HpwbEPAxK2W1OmChS7-45" vertex="1">
          <mxGeometry x="75" width="15" height="12" as="geometry">
            <mxRectangle width="15" height="12" as="alternateBounds" />
          </mxGeometry>
        </mxCell>
        <mxCell id="p4HpwbEPAxK2W1OmChS7-52" value="" style="shape=partialRectangle;html=1;whiteSpace=wrap;connectable=0;strokeColor=inherit;overflow=hidden;fillColor=none;top=0;left=0;bottom=0;right=0;pointerEvents=1;" parent="p4HpwbEPAxK2W1OmChS7-45" vertex="1">
          <mxGeometry x="90" width="15" height="12" as="geometry">
            <mxRectangle width="15" height="12" as="alternateBounds" />
          </mxGeometry>
        </mxCell>
        <mxCell id="p4HpwbEPAxK2W1OmChS7-53" value="" style="shape=partialRectangle;html=1;whiteSpace=wrap;connectable=0;strokeColor=inherit;overflow=hidden;fillColor=none;top=0;left=0;bottom=0;right=0;pointerEvents=1;" parent="p4HpwbEPAxK2W1OmChS7-45" vertex="1">
          <mxGeometry x="105" width="15" height="12" as="geometry">
            <mxRectangle width="15" height="12" as="alternateBounds" />
          </mxGeometry>
        </mxCell>
        <mxCell id="p4HpwbEPAxK2W1OmChS7-54" value="" style="shape=partialRectangle;html=1;whiteSpace=wrap;connectable=0;strokeColor=inherit;overflow=hidden;fillColor=none;top=0;left=0;bottom=0;right=0;pointerEvents=1;" parent="p4HpwbEPAxK2W1OmChS7-45" vertex="1">
          <mxGeometry x="120" width="15" height="12" as="geometry">
            <mxRectangle width="15" height="12" as="alternateBounds" />
          </mxGeometry>
        </mxCell>
        <mxCell id="p4HpwbEPAxK2W1OmChS7-55" value="" style="shape=partialRectangle;html=1;whiteSpace=wrap;connectable=0;strokeColor=inherit;overflow=hidden;fillColor=none;top=0;left=0;bottom=0;right=0;pointerEvents=1;" parent="p4HpwbEPAxK2W1OmChS7-45" vertex="1">
          <mxGeometry x="135" width="15" height="12" as="geometry">
            <mxRectangle width="15" height="12" as="alternateBounds" />
          </mxGeometry>
        </mxCell>
        <mxCell id="p4HpwbEPAxK2W1OmChS7-56" value="" style="shape=partialRectangle;html=1;whiteSpace=wrap;connectable=0;strokeColor=inherit;overflow=hidden;fillColor=none;top=0;left=0;bottom=0;right=0;pointerEvents=1;" parent="p4HpwbEPAxK2W1OmChS7-45" vertex="1">
          <mxGeometry x="150" width="15" height="12" as="geometry">
            <mxRectangle width="15" height="12" as="alternateBounds" />
          </mxGeometry>
        </mxCell>
        <mxCell id="p4HpwbEPAxK2W1OmChS7-57" value="" style="shape=partialRectangle;html=1;whiteSpace=wrap;connectable=0;strokeColor=inherit;overflow=hidden;fillColor=none;top=0;left=0;bottom=0;right=0;pointerEvents=1;" parent="p4HpwbEPAxK2W1OmChS7-45" vertex="1">
          <mxGeometry x="165" width="15" height="12" as="geometry">
            <mxRectangle width="15" height="12" as="alternateBounds" />
          </mxGeometry>
        </mxCell>
        <mxCell id="p4HpwbEPAxK2W1OmChS7-58" value="" style="shape=partialRectangle;html=1;whiteSpace=wrap;connectable=0;strokeColor=inherit;overflow=hidden;fillColor=none;top=0;left=0;bottom=0;right=0;pointerEvents=1;" parent="p4HpwbEPAxK2W1OmChS7-45" vertex="1">
          <mxGeometry x="180" width="15" height="12" as="geometry">
            <mxRectangle width="15" height="12" as="alternateBounds" />
          </mxGeometry>
        </mxCell>
        <mxCell id="p4HpwbEPAxK2W1OmChS7-59" value="" style="shape=partialRectangle;html=1;whiteSpace=wrap;connectable=0;strokeColor=inherit;overflow=hidden;fillColor=none;top=0;left=0;bottom=0;right=0;pointerEvents=1;" parent="p4HpwbEPAxK2W1OmChS7-45" vertex="1">
          <mxGeometry x="195" width="15" height="12" as="geometry">
            <mxRectangle width="15" height="12" as="alternateBounds" />
          </mxGeometry>
        </mxCell>
        <mxCell id="p4HpwbEPAxK2W1OmChS7-60" value="" style="shape=partialRectangle;html=1;whiteSpace=wrap;connectable=0;strokeColor=inherit;overflow=hidden;fillColor=none;top=0;left=0;bottom=0;right=0;pointerEvents=1;" parent="p4HpwbEPAxK2W1OmChS7-45" vertex="1">
          <mxGeometry x="210" width="15" height="12" as="geometry">
            <mxRectangle width="15" height="12" as="alternateBounds" />
          </mxGeometry>
        </mxCell>
        <mxCell id="p4HpwbEPAxK2W1OmChS7-61" value="" style="shape=partialRectangle;html=1;whiteSpace=wrap;connectable=0;strokeColor=inherit;overflow=hidden;fillColor=none;top=0;left=0;bottom=0;right=0;pointerEvents=1;" parent="p4HpwbEPAxK2W1OmChS7-45" vertex="1">
          <mxGeometry x="225" width="15" height="12" as="geometry">
            <mxRectangle width="15" height="12" as="alternateBounds" />
          </mxGeometry>
        </mxCell>
        <mxCell id="p4HpwbEPAxK2W1OmChS7-62" value="" style="shape=partialRectangle;html=1;whiteSpace=wrap;connectable=0;strokeColor=inherit;overflow=hidden;fillColor=none;top=0;left=0;bottom=0;right=0;pointerEvents=1;" parent="p4HpwbEPAxK2W1OmChS7-45" vertex="1">
          <mxGeometry x="240" width="15" height="12" as="geometry">
            <mxRectangle width="15" height="12" as="alternateBounds" />
          </mxGeometry>
        </mxCell>
        <mxCell id="p4HpwbEPAxK2W1OmChS7-63" value="" style="shape=partialRectangle;html=1;whiteSpace=wrap;connectable=0;strokeColor=inherit;overflow=hidden;fillColor=none;top=0;left=0;bottom=0;right=0;pointerEvents=1;" parent="p4HpwbEPAxK2W1OmChS7-45" vertex="1">
          <mxGeometry x="255" width="15" height="12" as="geometry">
            <mxRectangle width="15" height="12" as="alternateBounds" />
          </mxGeometry>
        </mxCell>
        <mxCell id="p4HpwbEPAxK2W1OmChS7-64" value="" style="shape=partialRectangle;html=1;whiteSpace=wrap;connectable=0;strokeColor=inherit;overflow=hidden;fillColor=none;top=0;left=0;bottom=0;right=0;pointerEvents=1;" parent="p4HpwbEPAxK2W1OmChS7-45" vertex="1">
          <mxGeometry x="270" width="15" height="12" as="geometry">
            <mxRectangle width="15" height="12" as="alternateBounds" />
          </mxGeometry>
        </mxCell>
        <mxCell id="p4HpwbEPAxK2W1OmChS7-65" value="" style="shape=partialRectangle;html=1;whiteSpace=wrap;connectable=0;strokeColor=inherit;overflow=hidden;fillColor=none;top=0;left=0;bottom=0;right=0;pointerEvents=1;" parent="p4HpwbEPAxK2W1OmChS7-45" vertex="1">
          <mxGeometry x="285" width="15" height="12" as="geometry">
            <mxRectangle width="15" height="12" as="alternateBounds" />
          </mxGeometry>
        </mxCell>
        <mxCell id="p4HpwbEPAxK2W1OmChS7-66" value="" style="shape=tableRow;horizontal=0;startSize=0;swimlaneHead=0;swimlaneBody=0;strokeColor=inherit;top=0;left=0;bottom=0;right=0;collapsible=0;dropTarget=0;fillColor=none;points=[[0,0.5],[1,0.5]];portConstraint=eastwest;" parent="p4HpwbEPAxK2W1OmChS7-2" vertex="1">
          <mxGeometry y="35" width="300" height="11" as="geometry" />
        </mxCell>
        <mxCell id="p4HpwbEPAxK2W1OmChS7-67" value="" style="shape=partialRectangle;html=1;whiteSpace=wrap;connectable=0;strokeColor=inherit;overflow=hidden;fillColor=none;top=0;left=0;bottom=0;right=0;pointerEvents=1;" parent="p4HpwbEPAxK2W1OmChS7-66" vertex="1">
          <mxGeometry width="15" height="11" as="geometry">
            <mxRectangle width="15" height="11" as="alternateBounds" />
          </mxGeometry>
        </mxCell>
        <mxCell id="p4HpwbEPAxK2W1OmChS7-68" value="" style="shape=partialRectangle;html=1;whiteSpace=wrap;connectable=0;strokeColor=inherit;overflow=hidden;fillColor=none;top=0;left=0;bottom=0;right=0;pointerEvents=1;" parent="p4HpwbEPAxK2W1OmChS7-66" vertex="1">
          <mxGeometry x="15" width="15" height="11" as="geometry">
            <mxRectangle width="15" height="11" as="alternateBounds" />
          </mxGeometry>
        </mxCell>
        <mxCell id="p4HpwbEPAxK2W1OmChS7-69" value="" style="shape=partialRectangle;html=1;whiteSpace=wrap;connectable=0;strokeColor=inherit;overflow=hidden;fillColor=none;top=0;left=0;bottom=0;right=0;pointerEvents=1;" parent="p4HpwbEPAxK2W1OmChS7-66" vertex="1">
          <mxGeometry x="30" width="15" height="11" as="geometry">
            <mxRectangle width="15" height="11" as="alternateBounds" />
          </mxGeometry>
        </mxCell>
        <mxCell id="p4HpwbEPAxK2W1OmChS7-70" value="" style="shape=partialRectangle;html=1;whiteSpace=wrap;connectable=0;strokeColor=inherit;overflow=hidden;fillColor=none;top=0;left=0;bottom=0;right=0;pointerEvents=1;" parent="p4HpwbEPAxK2W1OmChS7-66" vertex="1">
          <mxGeometry x="45" width="15" height="11" as="geometry">
            <mxRectangle width="15" height="11" as="alternateBounds" />
          </mxGeometry>
        </mxCell>
        <mxCell id="p4HpwbEPAxK2W1OmChS7-71" value="" style="shape=partialRectangle;html=1;whiteSpace=wrap;connectable=0;strokeColor=inherit;overflow=hidden;fillColor=none;top=0;left=0;bottom=0;right=0;pointerEvents=1;" parent="p4HpwbEPAxK2W1OmChS7-66" vertex="1">
          <mxGeometry x="60" width="15" height="11" as="geometry">
            <mxRectangle width="15" height="11" as="alternateBounds" />
          </mxGeometry>
        </mxCell>
        <mxCell id="p4HpwbEPAxK2W1OmChS7-72" value="" style="shape=partialRectangle;html=1;whiteSpace=wrap;connectable=0;strokeColor=inherit;overflow=hidden;fillColor=none;top=0;left=0;bottom=0;right=0;pointerEvents=1;" parent="p4HpwbEPAxK2W1OmChS7-66" vertex="1">
          <mxGeometry x="75" width="15" height="11" as="geometry">
            <mxRectangle width="15" height="11" as="alternateBounds" />
          </mxGeometry>
        </mxCell>
        <mxCell id="p4HpwbEPAxK2W1OmChS7-73" value="" style="shape=partialRectangle;html=1;whiteSpace=wrap;connectable=0;strokeColor=inherit;overflow=hidden;fillColor=none;top=0;left=0;bottom=0;right=0;pointerEvents=1;" parent="p4HpwbEPAxK2W1OmChS7-66" vertex="1">
          <mxGeometry x="90" width="15" height="11" as="geometry">
            <mxRectangle width="15" height="11" as="alternateBounds" />
          </mxGeometry>
        </mxCell>
        <mxCell id="p4HpwbEPAxK2W1OmChS7-74" value="" style="shape=partialRectangle;html=1;whiteSpace=wrap;connectable=0;strokeColor=inherit;overflow=hidden;fillColor=none;top=0;left=0;bottom=0;right=0;pointerEvents=1;" parent="p4HpwbEPAxK2W1OmChS7-66" vertex="1">
          <mxGeometry x="105" width="15" height="11" as="geometry">
            <mxRectangle width="15" height="11" as="alternateBounds" />
          </mxGeometry>
        </mxCell>
        <mxCell id="p4HpwbEPAxK2W1OmChS7-75" value="" style="shape=partialRectangle;html=1;whiteSpace=wrap;connectable=0;strokeColor=inherit;overflow=hidden;fillColor=none;top=0;left=0;bottom=0;right=0;pointerEvents=1;" parent="p4HpwbEPAxK2W1OmChS7-66" vertex="1">
          <mxGeometry x="120" width="15" height="11" as="geometry">
            <mxRectangle width="15" height="11" as="alternateBounds" />
          </mxGeometry>
        </mxCell>
        <mxCell id="p4HpwbEPAxK2W1OmChS7-76" value="" style="shape=partialRectangle;html=1;whiteSpace=wrap;connectable=0;strokeColor=inherit;overflow=hidden;fillColor=none;top=0;left=0;bottom=0;right=0;pointerEvents=1;" parent="p4HpwbEPAxK2W1OmChS7-66" vertex="1">
          <mxGeometry x="135" width="15" height="11" as="geometry">
            <mxRectangle width="15" height="11" as="alternateBounds" />
          </mxGeometry>
        </mxCell>
        <mxCell id="p4HpwbEPAxK2W1OmChS7-77" value="" style="shape=partialRectangle;html=1;whiteSpace=wrap;connectable=0;strokeColor=inherit;overflow=hidden;fillColor=none;top=0;left=0;bottom=0;right=0;pointerEvents=1;" parent="p4HpwbEPAxK2W1OmChS7-66" vertex="1">
          <mxGeometry x="150" width="15" height="11" as="geometry">
            <mxRectangle width="15" height="11" as="alternateBounds" />
          </mxGeometry>
        </mxCell>
        <mxCell id="p4HpwbEPAxK2W1OmChS7-78" value="" style="shape=partialRectangle;html=1;whiteSpace=wrap;connectable=0;strokeColor=inherit;overflow=hidden;fillColor=none;top=0;left=0;bottom=0;right=0;pointerEvents=1;" parent="p4HpwbEPAxK2W1OmChS7-66" vertex="1">
          <mxGeometry x="165" width="15" height="11" as="geometry">
            <mxRectangle width="15" height="11" as="alternateBounds" />
          </mxGeometry>
        </mxCell>
        <mxCell id="p4HpwbEPAxK2W1OmChS7-79" value="" style="shape=partialRectangle;html=1;whiteSpace=wrap;connectable=0;strokeColor=inherit;overflow=hidden;fillColor=none;top=0;left=0;bottom=0;right=0;pointerEvents=1;" parent="p4HpwbEPAxK2W1OmChS7-66" vertex="1">
          <mxGeometry x="180" width="15" height="11" as="geometry">
            <mxRectangle width="15" height="11" as="alternateBounds" />
          </mxGeometry>
        </mxCell>
        <mxCell id="p4HpwbEPAxK2W1OmChS7-80" value="" style="shape=partialRectangle;html=1;whiteSpace=wrap;connectable=0;strokeColor=inherit;overflow=hidden;fillColor=none;top=0;left=0;bottom=0;right=0;pointerEvents=1;" parent="p4HpwbEPAxK2W1OmChS7-66" vertex="1">
          <mxGeometry x="195" width="15" height="11" as="geometry">
            <mxRectangle width="15" height="11" as="alternateBounds" />
          </mxGeometry>
        </mxCell>
        <mxCell id="p4HpwbEPAxK2W1OmChS7-81" value="" style="shape=partialRectangle;html=1;whiteSpace=wrap;connectable=0;strokeColor=inherit;overflow=hidden;fillColor=none;top=0;left=0;bottom=0;right=0;pointerEvents=1;" parent="p4HpwbEPAxK2W1OmChS7-66" vertex="1">
          <mxGeometry x="210" width="15" height="11" as="geometry">
            <mxRectangle width="15" height="11" as="alternateBounds" />
          </mxGeometry>
        </mxCell>
        <mxCell id="p4HpwbEPAxK2W1OmChS7-82" value="" style="shape=partialRectangle;html=1;whiteSpace=wrap;connectable=0;strokeColor=inherit;overflow=hidden;fillColor=none;top=0;left=0;bottom=0;right=0;pointerEvents=1;" parent="p4HpwbEPAxK2W1OmChS7-66" vertex="1">
          <mxGeometry x="225" width="15" height="11" as="geometry">
            <mxRectangle width="15" height="11" as="alternateBounds" />
          </mxGeometry>
        </mxCell>
        <mxCell id="p4HpwbEPAxK2W1OmChS7-83" value="" style="shape=partialRectangle;html=1;whiteSpace=wrap;connectable=0;strokeColor=inherit;overflow=hidden;fillColor=none;top=0;left=0;bottom=0;right=0;pointerEvents=1;" parent="p4HpwbEPAxK2W1OmChS7-66" vertex="1">
          <mxGeometry x="240" width="15" height="11" as="geometry">
            <mxRectangle width="15" height="11" as="alternateBounds" />
          </mxGeometry>
        </mxCell>
        <mxCell id="p4HpwbEPAxK2W1OmChS7-84" value="" style="shape=partialRectangle;html=1;whiteSpace=wrap;connectable=0;strokeColor=inherit;overflow=hidden;fillColor=none;top=0;left=0;bottom=0;right=0;pointerEvents=1;" parent="p4HpwbEPAxK2W1OmChS7-66" vertex="1">
          <mxGeometry x="255" width="15" height="11" as="geometry">
            <mxRectangle width="15" height="11" as="alternateBounds" />
          </mxGeometry>
        </mxCell>
        <mxCell id="p4HpwbEPAxK2W1OmChS7-85" value="" style="shape=partialRectangle;html=1;whiteSpace=wrap;connectable=0;strokeColor=inherit;overflow=hidden;fillColor=none;top=0;left=0;bottom=0;right=0;pointerEvents=1;" parent="p4HpwbEPAxK2W1OmChS7-66" vertex="1">
          <mxGeometry x="270" width="15" height="11" as="geometry">
            <mxRectangle width="15" height="11" as="alternateBounds" />
          </mxGeometry>
        </mxCell>
        <mxCell id="p4HpwbEPAxK2W1OmChS7-86" value="" style="shape=partialRectangle;html=1;whiteSpace=wrap;connectable=0;strokeColor=inherit;overflow=hidden;fillColor=none;top=0;left=0;bottom=0;right=0;pointerEvents=1;" parent="p4HpwbEPAxK2W1OmChS7-66" vertex="1">
          <mxGeometry x="285" width="15" height="11" as="geometry">
            <mxRectangle width="15" height="11" as="alternateBounds" />
          </mxGeometry>
        </mxCell>
        <mxCell id="p4HpwbEPAxK2W1OmChS7-87" value="" style="shape=tableRow;horizontal=0;startSize=0;swimlaneHead=0;swimlaneBody=0;strokeColor=inherit;top=0;left=0;bottom=0;right=0;collapsible=0;dropTarget=0;fillColor=none;points=[[0,0.5],[1,0.5]];portConstraint=eastwest;" parent="p4HpwbEPAxK2W1OmChS7-2" vertex="1">
          <mxGeometry y="46" width="300" height="12" as="geometry" />
        </mxCell>
        <mxCell id="p4HpwbEPAxK2W1OmChS7-88" value="" style="shape=partialRectangle;html=1;whiteSpace=wrap;connectable=0;strokeColor=inherit;overflow=hidden;fillColor=none;top=0;left=0;bottom=0;right=0;pointerEvents=1;" parent="p4HpwbEPAxK2W1OmChS7-87" vertex="1">
          <mxGeometry width="15" height="12" as="geometry">
            <mxRectangle width="15" height="12" as="alternateBounds" />
          </mxGeometry>
        </mxCell>
        <mxCell id="p4HpwbEPAxK2W1OmChS7-89" value="" style="shape=partialRectangle;html=1;whiteSpace=wrap;connectable=0;strokeColor=inherit;overflow=hidden;fillColor=none;top=0;left=0;bottom=0;right=0;pointerEvents=1;" parent="p4HpwbEPAxK2W1OmChS7-87" vertex="1">
          <mxGeometry x="15" width="15" height="12" as="geometry">
            <mxRectangle width="15" height="12" as="alternateBounds" />
          </mxGeometry>
        </mxCell>
        <mxCell id="p4HpwbEPAxK2W1OmChS7-90" value="" style="shape=partialRectangle;html=1;whiteSpace=wrap;connectable=0;strokeColor=inherit;overflow=hidden;fillColor=none;top=0;left=0;bottom=0;right=0;pointerEvents=1;" parent="p4HpwbEPAxK2W1OmChS7-87" vertex="1">
          <mxGeometry x="30" width="15" height="12" as="geometry">
            <mxRectangle width="15" height="12" as="alternateBounds" />
          </mxGeometry>
        </mxCell>
        <mxCell id="p4HpwbEPAxK2W1OmChS7-91" value="" style="shape=partialRectangle;html=1;whiteSpace=wrap;connectable=0;strokeColor=inherit;overflow=hidden;fillColor=none;top=0;left=0;bottom=0;right=0;pointerEvents=1;" parent="p4HpwbEPAxK2W1OmChS7-87" vertex="1">
          <mxGeometry x="45" width="15" height="12" as="geometry">
            <mxRectangle width="15" height="12" as="alternateBounds" />
          </mxGeometry>
        </mxCell>
        <mxCell id="p4HpwbEPAxK2W1OmChS7-92" value="" style="shape=partialRectangle;html=1;whiteSpace=wrap;connectable=0;strokeColor=inherit;overflow=hidden;fillColor=none;top=0;left=0;bottom=0;right=0;pointerEvents=1;" parent="p4HpwbEPAxK2W1OmChS7-87" vertex="1">
          <mxGeometry x="60" width="15" height="12" as="geometry">
            <mxRectangle width="15" height="12" as="alternateBounds" />
          </mxGeometry>
        </mxCell>
        <mxCell id="p4HpwbEPAxK2W1OmChS7-93" value="" style="shape=partialRectangle;html=1;whiteSpace=wrap;connectable=0;strokeColor=inherit;overflow=hidden;fillColor=none;top=0;left=0;bottom=0;right=0;pointerEvents=1;" parent="p4HpwbEPAxK2W1OmChS7-87" vertex="1">
          <mxGeometry x="75" width="15" height="12" as="geometry">
            <mxRectangle width="15" height="12" as="alternateBounds" />
          </mxGeometry>
        </mxCell>
        <mxCell id="p4HpwbEPAxK2W1OmChS7-94" value="" style="shape=partialRectangle;html=1;whiteSpace=wrap;connectable=0;strokeColor=inherit;overflow=hidden;fillColor=none;top=0;left=0;bottom=0;right=0;pointerEvents=1;" parent="p4HpwbEPAxK2W1OmChS7-87" vertex="1">
          <mxGeometry x="90" width="15" height="12" as="geometry">
            <mxRectangle width="15" height="12" as="alternateBounds" />
          </mxGeometry>
        </mxCell>
        <mxCell id="p4HpwbEPAxK2W1OmChS7-95" value="" style="shape=partialRectangle;html=1;whiteSpace=wrap;connectable=0;strokeColor=inherit;overflow=hidden;fillColor=none;top=0;left=0;bottom=0;right=0;pointerEvents=1;" parent="p4HpwbEPAxK2W1OmChS7-87" vertex="1">
          <mxGeometry x="105" width="15" height="12" as="geometry">
            <mxRectangle width="15" height="12" as="alternateBounds" />
          </mxGeometry>
        </mxCell>
        <mxCell id="p4HpwbEPAxK2W1OmChS7-96" value="" style="shape=partialRectangle;html=1;whiteSpace=wrap;connectable=0;strokeColor=inherit;overflow=hidden;fillColor=none;top=0;left=0;bottom=0;right=0;pointerEvents=1;" parent="p4HpwbEPAxK2W1OmChS7-87" vertex="1">
          <mxGeometry x="120" width="15" height="12" as="geometry">
            <mxRectangle width="15" height="12" as="alternateBounds" />
          </mxGeometry>
        </mxCell>
        <mxCell id="p4HpwbEPAxK2W1OmChS7-97" value="" style="shape=partialRectangle;html=1;whiteSpace=wrap;connectable=0;strokeColor=inherit;overflow=hidden;fillColor=none;top=0;left=0;bottom=0;right=0;pointerEvents=1;" parent="p4HpwbEPAxK2W1OmChS7-87" vertex="1">
          <mxGeometry x="135" width="15" height="12" as="geometry">
            <mxRectangle width="15" height="12" as="alternateBounds" />
          </mxGeometry>
        </mxCell>
        <mxCell id="p4HpwbEPAxK2W1OmChS7-98" value="" style="shape=partialRectangle;html=1;whiteSpace=wrap;connectable=0;strokeColor=inherit;overflow=hidden;fillColor=none;top=0;left=0;bottom=0;right=0;pointerEvents=1;" parent="p4HpwbEPAxK2W1OmChS7-87" vertex="1">
          <mxGeometry x="150" width="15" height="12" as="geometry">
            <mxRectangle width="15" height="12" as="alternateBounds" />
          </mxGeometry>
        </mxCell>
        <mxCell id="p4HpwbEPAxK2W1OmChS7-99" value="" style="shape=partialRectangle;html=1;whiteSpace=wrap;connectable=0;strokeColor=inherit;overflow=hidden;fillColor=none;top=0;left=0;bottom=0;right=0;pointerEvents=1;" parent="p4HpwbEPAxK2W1OmChS7-87" vertex="1">
          <mxGeometry x="165" width="15" height="12" as="geometry">
            <mxRectangle width="15" height="12" as="alternateBounds" />
          </mxGeometry>
        </mxCell>
        <mxCell id="p4HpwbEPAxK2W1OmChS7-100" value="" style="shape=partialRectangle;html=1;whiteSpace=wrap;connectable=0;strokeColor=inherit;overflow=hidden;fillColor=none;top=0;left=0;bottom=0;right=0;pointerEvents=1;" parent="p4HpwbEPAxK2W1OmChS7-87" vertex="1">
          <mxGeometry x="180" width="15" height="12" as="geometry">
            <mxRectangle width="15" height="12" as="alternateBounds" />
          </mxGeometry>
        </mxCell>
        <mxCell id="p4HpwbEPAxK2W1OmChS7-101" value="" style="shape=partialRectangle;html=1;whiteSpace=wrap;connectable=0;strokeColor=inherit;overflow=hidden;fillColor=none;top=0;left=0;bottom=0;right=0;pointerEvents=1;" parent="p4HpwbEPAxK2W1OmChS7-87" vertex="1">
          <mxGeometry x="195" width="15" height="12" as="geometry">
            <mxRectangle width="15" height="12" as="alternateBounds" />
          </mxGeometry>
        </mxCell>
        <mxCell id="p4HpwbEPAxK2W1OmChS7-102" value="" style="shape=partialRectangle;html=1;whiteSpace=wrap;connectable=0;strokeColor=inherit;overflow=hidden;fillColor=none;top=0;left=0;bottom=0;right=0;pointerEvents=1;" parent="p4HpwbEPAxK2W1OmChS7-87" vertex="1">
          <mxGeometry x="210" width="15" height="12" as="geometry">
            <mxRectangle width="15" height="12" as="alternateBounds" />
          </mxGeometry>
        </mxCell>
        <mxCell id="p4HpwbEPAxK2W1OmChS7-103" value="" style="shape=partialRectangle;html=1;whiteSpace=wrap;connectable=0;strokeColor=inherit;overflow=hidden;fillColor=none;top=0;left=0;bottom=0;right=0;pointerEvents=1;" parent="p4HpwbEPAxK2W1OmChS7-87" vertex="1">
          <mxGeometry x="225" width="15" height="12" as="geometry">
            <mxRectangle width="15" height="12" as="alternateBounds" />
          </mxGeometry>
        </mxCell>
        <mxCell id="p4HpwbEPAxK2W1OmChS7-104" value="" style="shape=partialRectangle;html=1;whiteSpace=wrap;connectable=0;strokeColor=inherit;overflow=hidden;fillColor=none;top=0;left=0;bottom=0;right=0;pointerEvents=1;" parent="p4HpwbEPAxK2W1OmChS7-87" vertex="1">
          <mxGeometry x="240" width="15" height="12" as="geometry">
            <mxRectangle width="15" height="12" as="alternateBounds" />
          </mxGeometry>
        </mxCell>
        <mxCell id="p4HpwbEPAxK2W1OmChS7-105" value="" style="shape=partialRectangle;html=1;whiteSpace=wrap;connectable=0;strokeColor=inherit;overflow=hidden;fillColor=none;top=0;left=0;bottom=0;right=0;pointerEvents=1;" parent="p4HpwbEPAxK2W1OmChS7-87" vertex="1">
          <mxGeometry x="255" width="15" height="12" as="geometry">
            <mxRectangle width="15" height="12" as="alternateBounds" />
          </mxGeometry>
        </mxCell>
        <mxCell id="p4HpwbEPAxK2W1OmChS7-106" value="" style="shape=partialRectangle;html=1;whiteSpace=wrap;connectable=0;strokeColor=inherit;overflow=hidden;fillColor=none;top=0;left=0;bottom=0;right=0;pointerEvents=1;" parent="p4HpwbEPAxK2W1OmChS7-87" vertex="1">
          <mxGeometry x="270" width="15" height="12" as="geometry">
            <mxRectangle width="15" height="12" as="alternateBounds" />
          </mxGeometry>
        </mxCell>
        <mxCell id="p4HpwbEPAxK2W1OmChS7-107" value="" style="shape=partialRectangle;html=1;whiteSpace=wrap;connectable=0;strokeColor=inherit;overflow=hidden;fillColor=none;top=0;left=0;bottom=0;right=0;pointerEvents=1;" parent="p4HpwbEPAxK2W1OmChS7-87" vertex="1">
          <mxGeometry x="285" width="15" height="12" as="geometry">
            <mxRectangle width="15" height="12" as="alternateBounds" />
          </mxGeometry>
        </mxCell>
        <mxCell id="p4HpwbEPAxK2W1OmChS7-108" value="" style="shape=tableRow;horizontal=0;startSize=0;swimlaneHead=0;swimlaneBody=0;strokeColor=inherit;top=0;left=0;bottom=0;right=0;collapsible=0;dropTarget=0;fillColor=none;points=[[0,0.5],[1,0.5]];portConstraint=eastwest;" parent="p4HpwbEPAxK2W1OmChS7-2" vertex="1">
          <mxGeometry y="58" width="300" height="11" as="geometry" />
        </mxCell>
        <mxCell id="p4HpwbEPAxK2W1OmChS7-109" value="" style="shape=partialRectangle;html=1;whiteSpace=wrap;connectable=0;strokeColor=inherit;overflow=hidden;fillColor=none;top=0;left=0;bottom=0;right=0;pointerEvents=1;" parent="p4HpwbEPAxK2W1OmChS7-108" vertex="1">
          <mxGeometry width="15" height="11" as="geometry">
            <mxRectangle width="15" height="11" as="alternateBounds" />
          </mxGeometry>
        </mxCell>
        <mxCell id="p4HpwbEPAxK2W1OmChS7-110" value="" style="shape=partialRectangle;html=1;whiteSpace=wrap;connectable=0;strokeColor=inherit;overflow=hidden;fillColor=none;top=0;left=0;bottom=0;right=0;pointerEvents=1;" parent="p4HpwbEPAxK2W1OmChS7-108" vertex="1">
          <mxGeometry x="15" width="15" height="11" as="geometry">
            <mxRectangle width="15" height="11" as="alternateBounds" />
          </mxGeometry>
        </mxCell>
        <mxCell id="p4HpwbEPAxK2W1OmChS7-111" value="" style="shape=partialRectangle;html=1;whiteSpace=wrap;connectable=0;strokeColor=inherit;overflow=hidden;fillColor=none;top=0;left=0;bottom=0;right=0;pointerEvents=1;" parent="p4HpwbEPAxK2W1OmChS7-108" vertex="1">
          <mxGeometry x="30" width="15" height="11" as="geometry">
            <mxRectangle width="15" height="11" as="alternateBounds" />
          </mxGeometry>
        </mxCell>
        <mxCell id="p4HpwbEPAxK2W1OmChS7-112" value="" style="shape=partialRectangle;html=1;whiteSpace=wrap;connectable=0;strokeColor=inherit;overflow=hidden;fillColor=none;top=0;left=0;bottom=0;right=0;pointerEvents=1;" parent="p4HpwbEPAxK2W1OmChS7-108" vertex="1">
          <mxGeometry x="45" width="15" height="11" as="geometry">
            <mxRectangle width="15" height="11" as="alternateBounds" />
          </mxGeometry>
        </mxCell>
        <mxCell id="p4HpwbEPAxK2W1OmChS7-113" value="" style="shape=partialRectangle;html=1;whiteSpace=wrap;connectable=0;strokeColor=inherit;overflow=hidden;fillColor=none;top=0;left=0;bottom=0;right=0;pointerEvents=1;" parent="p4HpwbEPAxK2W1OmChS7-108" vertex="1">
          <mxGeometry x="60" width="15" height="11" as="geometry">
            <mxRectangle width="15" height="11" as="alternateBounds" />
          </mxGeometry>
        </mxCell>
        <mxCell id="p4HpwbEPAxK2W1OmChS7-114" value="" style="shape=partialRectangle;html=1;whiteSpace=wrap;connectable=0;strokeColor=inherit;overflow=hidden;fillColor=none;top=0;left=0;bottom=0;right=0;pointerEvents=1;" parent="p4HpwbEPAxK2W1OmChS7-108" vertex="1">
          <mxGeometry x="75" width="15" height="11" as="geometry">
            <mxRectangle width="15" height="11" as="alternateBounds" />
          </mxGeometry>
        </mxCell>
        <mxCell id="p4HpwbEPAxK2W1OmChS7-115" value="" style="shape=partialRectangle;html=1;whiteSpace=wrap;connectable=0;strokeColor=inherit;overflow=hidden;fillColor=none;top=0;left=0;bottom=0;right=0;pointerEvents=1;" parent="p4HpwbEPAxK2W1OmChS7-108" vertex="1">
          <mxGeometry x="90" width="15" height="11" as="geometry">
            <mxRectangle width="15" height="11" as="alternateBounds" />
          </mxGeometry>
        </mxCell>
        <mxCell id="p4HpwbEPAxK2W1OmChS7-116" value="" style="shape=partialRectangle;html=1;whiteSpace=wrap;connectable=0;strokeColor=inherit;overflow=hidden;fillColor=none;top=0;left=0;bottom=0;right=0;pointerEvents=1;" parent="p4HpwbEPAxK2W1OmChS7-108" vertex="1">
          <mxGeometry x="105" width="15" height="11" as="geometry">
            <mxRectangle width="15" height="11" as="alternateBounds" />
          </mxGeometry>
        </mxCell>
        <mxCell id="p4HpwbEPAxK2W1OmChS7-117" value="" style="shape=partialRectangle;html=1;whiteSpace=wrap;connectable=0;strokeColor=inherit;overflow=hidden;fillColor=none;top=0;left=0;bottom=0;right=0;pointerEvents=1;" parent="p4HpwbEPAxK2W1OmChS7-108" vertex="1">
          <mxGeometry x="120" width="15" height="11" as="geometry">
            <mxRectangle width="15" height="11" as="alternateBounds" />
          </mxGeometry>
        </mxCell>
        <mxCell id="p4HpwbEPAxK2W1OmChS7-118" value="" style="shape=partialRectangle;html=1;whiteSpace=wrap;connectable=0;strokeColor=inherit;overflow=hidden;fillColor=none;top=0;left=0;bottom=0;right=0;pointerEvents=1;" parent="p4HpwbEPAxK2W1OmChS7-108" vertex="1">
          <mxGeometry x="135" width="15" height="11" as="geometry">
            <mxRectangle width="15" height="11" as="alternateBounds" />
          </mxGeometry>
        </mxCell>
        <mxCell id="p4HpwbEPAxK2W1OmChS7-119" value="" style="shape=partialRectangle;html=1;whiteSpace=wrap;connectable=0;strokeColor=inherit;overflow=hidden;fillColor=none;top=0;left=0;bottom=0;right=0;pointerEvents=1;" parent="p4HpwbEPAxK2W1OmChS7-108" vertex="1">
          <mxGeometry x="150" width="15" height="11" as="geometry">
            <mxRectangle width="15" height="11" as="alternateBounds" />
          </mxGeometry>
        </mxCell>
        <mxCell id="p4HpwbEPAxK2W1OmChS7-120" value="" style="shape=partialRectangle;html=1;whiteSpace=wrap;connectable=0;strokeColor=inherit;overflow=hidden;fillColor=none;top=0;left=0;bottom=0;right=0;pointerEvents=1;" parent="p4HpwbEPAxK2W1OmChS7-108" vertex="1">
          <mxGeometry x="165" width="15" height="11" as="geometry">
            <mxRectangle width="15" height="11" as="alternateBounds" />
          </mxGeometry>
        </mxCell>
        <mxCell id="p4HpwbEPAxK2W1OmChS7-121" value="" style="shape=partialRectangle;html=1;whiteSpace=wrap;connectable=0;strokeColor=inherit;overflow=hidden;fillColor=none;top=0;left=0;bottom=0;right=0;pointerEvents=1;" parent="p4HpwbEPAxK2W1OmChS7-108" vertex="1">
          <mxGeometry x="180" width="15" height="11" as="geometry">
            <mxRectangle width="15" height="11" as="alternateBounds" />
          </mxGeometry>
        </mxCell>
        <mxCell id="p4HpwbEPAxK2W1OmChS7-122" value="" style="shape=partialRectangle;html=1;whiteSpace=wrap;connectable=0;strokeColor=inherit;overflow=hidden;fillColor=none;top=0;left=0;bottom=0;right=0;pointerEvents=1;" parent="p4HpwbEPAxK2W1OmChS7-108" vertex="1">
          <mxGeometry x="195" width="15" height="11" as="geometry">
            <mxRectangle width="15" height="11" as="alternateBounds" />
          </mxGeometry>
        </mxCell>
        <mxCell id="p4HpwbEPAxK2W1OmChS7-123" value="" style="shape=partialRectangle;html=1;whiteSpace=wrap;connectable=0;strokeColor=inherit;overflow=hidden;fillColor=none;top=0;left=0;bottom=0;right=0;pointerEvents=1;" parent="p4HpwbEPAxK2W1OmChS7-108" vertex="1">
          <mxGeometry x="210" width="15" height="11" as="geometry">
            <mxRectangle width="15" height="11" as="alternateBounds" />
          </mxGeometry>
        </mxCell>
        <mxCell id="p4HpwbEPAxK2W1OmChS7-124" value="" style="shape=partialRectangle;html=1;whiteSpace=wrap;connectable=0;strokeColor=inherit;overflow=hidden;fillColor=none;top=0;left=0;bottom=0;right=0;pointerEvents=1;" parent="p4HpwbEPAxK2W1OmChS7-108" vertex="1">
          <mxGeometry x="225" width="15" height="11" as="geometry">
            <mxRectangle width="15" height="11" as="alternateBounds" />
          </mxGeometry>
        </mxCell>
        <mxCell id="p4HpwbEPAxK2W1OmChS7-125" value="" style="shape=partialRectangle;html=1;whiteSpace=wrap;connectable=0;strokeColor=inherit;overflow=hidden;fillColor=none;top=0;left=0;bottom=0;right=0;pointerEvents=1;" parent="p4HpwbEPAxK2W1OmChS7-108" vertex="1">
          <mxGeometry x="240" width="15" height="11" as="geometry">
            <mxRectangle width="15" height="11" as="alternateBounds" />
          </mxGeometry>
        </mxCell>
        <mxCell id="p4HpwbEPAxK2W1OmChS7-126" value="" style="shape=partialRectangle;html=1;whiteSpace=wrap;connectable=0;strokeColor=inherit;overflow=hidden;fillColor=none;top=0;left=0;bottom=0;right=0;pointerEvents=1;" parent="p4HpwbEPAxK2W1OmChS7-108" vertex="1">
          <mxGeometry x="255" width="15" height="11" as="geometry">
            <mxRectangle width="15" height="11" as="alternateBounds" />
          </mxGeometry>
        </mxCell>
        <mxCell id="p4HpwbEPAxK2W1OmChS7-127" value="" style="shape=partialRectangle;html=1;whiteSpace=wrap;connectable=0;strokeColor=inherit;overflow=hidden;fillColor=none;top=0;left=0;bottom=0;right=0;pointerEvents=1;" parent="p4HpwbEPAxK2W1OmChS7-108" vertex="1">
          <mxGeometry x="270" width="15" height="11" as="geometry">
            <mxRectangle width="15" height="11" as="alternateBounds" />
          </mxGeometry>
        </mxCell>
        <mxCell id="p4HpwbEPAxK2W1OmChS7-128" value="" style="shape=partialRectangle;html=1;whiteSpace=wrap;connectable=0;strokeColor=inherit;overflow=hidden;fillColor=none;top=0;left=0;bottom=0;right=0;pointerEvents=1;" parent="p4HpwbEPAxK2W1OmChS7-108" vertex="1">
          <mxGeometry x="285" width="15" height="11" as="geometry">
            <mxRectangle width="15" height="11" as="alternateBounds" />
          </mxGeometry>
        </mxCell>
        <mxCell id="p4HpwbEPAxK2W1OmChS7-129" value="" style="shape=tableRow;horizontal=0;startSize=0;swimlaneHead=0;swimlaneBody=0;strokeColor=inherit;top=0;left=0;bottom=0;right=0;collapsible=0;dropTarget=0;fillColor=none;points=[[0,0.5],[1,0.5]];portConstraint=eastwest;" parent="p4HpwbEPAxK2W1OmChS7-2" vertex="1">
          <mxGeometry y="69" width="300" height="12" as="geometry" />
        </mxCell>
        <mxCell id="p4HpwbEPAxK2W1OmChS7-130" value="" style="shape=partialRectangle;html=1;whiteSpace=wrap;connectable=0;strokeColor=inherit;overflow=hidden;fillColor=none;top=0;left=0;bottom=0;right=0;pointerEvents=1;" parent="p4HpwbEPAxK2W1OmChS7-129" vertex="1">
          <mxGeometry width="15" height="12" as="geometry">
            <mxRectangle width="15" height="12" as="alternateBounds" />
          </mxGeometry>
        </mxCell>
        <mxCell id="p4HpwbEPAxK2W1OmChS7-131" value="" style="shape=partialRectangle;html=1;whiteSpace=wrap;connectable=0;strokeColor=inherit;overflow=hidden;fillColor=none;top=0;left=0;bottom=0;right=0;pointerEvents=1;" parent="p4HpwbEPAxK2W1OmChS7-129" vertex="1">
          <mxGeometry x="15" width="15" height="12" as="geometry">
            <mxRectangle width="15" height="12" as="alternateBounds" />
          </mxGeometry>
        </mxCell>
        <mxCell id="p4HpwbEPAxK2W1OmChS7-132" value="" style="shape=partialRectangle;html=1;whiteSpace=wrap;connectable=0;strokeColor=inherit;overflow=hidden;fillColor=none;top=0;left=0;bottom=0;right=0;pointerEvents=1;" parent="p4HpwbEPAxK2W1OmChS7-129" vertex="1">
          <mxGeometry x="30" width="15" height="12" as="geometry">
            <mxRectangle width="15" height="12" as="alternateBounds" />
          </mxGeometry>
        </mxCell>
        <mxCell id="p4HpwbEPAxK2W1OmChS7-133" value="" style="shape=partialRectangle;html=1;whiteSpace=wrap;connectable=0;strokeColor=inherit;overflow=hidden;fillColor=none;top=0;left=0;bottom=0;right=0;pointerEvents=1;" parent="p4HpwbEPAxK2W1OmChS7-129" vertex="1">
          <mxGeometry x="45" width="15" height="12" as="geometry">
            <mxRectangle width="15" height="12" as="alternateBounds" />
          </mxGeometry>
        </mxCell>
        <mxCell id="p4HpwbEPAxK2W1OmChS7-134" value="" style="shape=partialRectangle;html=1;whiteSpace=wrap;connectable=0;strokeColor=inherit;overflow=hidden;fillColor=none;top=0;left=0;bottom=0;right=0;pointerEvents=1;" parent="p4HpwbEPAxK2W1OmChS7-129" vertex="1">
          <mxGeometry x="60" width="15" height="12" as="geometry">
            <mxRectangle width="15" height="12" as="alternateBounds" />
          </mxGeometry>
        </mxCell>
        <mxCell id="p4HpwbEPAxK2W1OmChS7-135" value="" style="shape=partialRectangle;html=1;whiteSpace=wrap;connectable=0;strokeColor=inherit;overflow=hidden;fillColor=none;top=0;left=0;bottom=0;right=0;pointerEvents=1;" parent="p4HpwbEPAxK2W1OmChS7-129" vertex="1">
          <mxGeometry x="75" width="15" height="12" as="geometry">
            <mxRectangle width="15" height="12" as="alternateBounds" />
          </mxGeometry>
        </mxCell>
        <mxCell id="p4HpwbEPAxK2W1OmChS7-136" value="" style="shape=partialRectangle;html=1;whiteSpace=wrap;connectable=0;strokeColor=inherit;overflow=hidden;fillColor=none;top=0;left=0;bottom=0;right=0;pointerEvents=1;" parent="p4HpwbEPAxK2W1OmChS7-129" vertex="1">
          <mxGeometry x="90" width="15" height="12" as="geometry">
            <mxRectangle width="15" height="12" as="alternateBounds" />
          </mxGeometry>
        </mxCell>
        <mxCell id="p4HpwbEPAxK2W1OmChS7-137" value="" style="shape=partialRectangle;html=1;whiteSpace=wrap;connectable=0;strokeColor=inherit;overflow=hidden;fillColor=none;top=0;left=0;bottom=0;right=0;pointerEvents=1;" parent="p4HpwbEPAxK2W1OmChS7-129" vertex="1">
          <mxGeometry x="105" width="15" height="12" as="geometry">
            <mxRectangle width="15" height="12" as="alternateBounds" />
          </mxGeometry>
        </mxCell>
        <mxCell id="p4HpwbEPAxK2W1OmChS7-138" value="" style="shape=partialRectangle;html=1;whiteSpace=wrap;connectable=0;strokeColor=inherit;overflow=hidden;fillColor=none;top=0;left=0;bottom=0;right=0;pointerEvents=1;" parent="p4HpwbEPAxK2W1OmChS7-129" vertex="1">
          <mxGeometry x="120" width="15" height="12" as="geometry">
            <mxRectangle width="15" height="12" as="alternateBounds" />
          </mxGeometry>
        </mxCell>
        <mxCell id="p4HpwbEPAxK2W1OmChS7-139" value="" style="shape=partialRectangle;html=1;whiteSpace=wrap;connectable=0;strokeColor=inherit;overflow=hidden;fillColor=none;top=0;left=0;bottom=0;right=0;pointerEvents=1;" parent="p4HpwbEPAxK2W1OmChS7-129" vertex="1">
          <mxGeometry x="135" width="15" height="12" as="geometry">
            <mxRectangle width="15" height="12" as="alternateBounds" />
          </mxGeometry>
        </mxCell>
        <mxCell id="p4HpwbEPAxK2W1OmChS7-140" value="" style="shape=partialRectangle;html=1;whiteSpace=wrap;connectable=0;strokeColor=inherit;overflow=hidden;fillColor=none;top=0;left=0;bottom=0;right=0;pointerEvents=1;" parent="p4HpwbEPAxK2W1OmChS7-129" vertex="1">
          <mxGeometry x="150" width="15" height="12" as="geometry">
            <mxRectangle width="15" height="12" as="alternateBounds" />
          </mxGeometry>
        </mxCell>
        <mxCell id="p4HpwbEPAxK2W1OmChS7-141" value="" style="shape=partialRectangle;html=1;whiteSpace=wrap;connectable=0;strokeColor=inherit;overflow=hidden;fillColor=none;top=0;left=0;bottom=0;right=0;pointerEvents=1;" parent="p4HpwbEPAxK2W1OmChS7-129" vertex="1">
          <mxGeometry x="165" width="15" height="12" as="geometry">
            <mxRectangle width="15" height="12" as="alternateBounds" />
          </mxGeometry>
        </mxCell>
        <mxCell id="p4HpwbEPAxK2W1OmChS7-142" value="" style="shape=partialRectangle;html=1;whiteSpace=wrap;connectable=0;strokeColor=inherit;overflow=hidden;fillColor=none;top=0;left=0;bottom=0;right=0;pointerEvents=1;" parent="p4HpwbEPAxK2W1OmChS7-129" vertex="1">
          <mxGeometry x="180" width="15" height="12" as="geometry">
            <mxRectangle width="15" height="12" as="alternateBounds" />
          </mxGeometry>
        </mxCell>
        <mxCell id="p4HpwbEPAxK2W1OmChS7-143" value="" style="shape=partialRectangle;html=1;whiteSpace=wrap;connectable=0;strokeColor=inherit;overflow=hidden;fillColor=none;top=0;left=0;bottom=0;right=0;pointerEvents=1;" parent="p4HpwbEPAxK2W1OmChS7-129" vertex="1">
          <mxGeometry x="195" width="15" height="12" as="geometry">
            <mxRectangle width="15" height="12" as="alternateBounds" />
          </mxGeometry>
        </mxCell>
        <mxCell id="p4HpwbEPAxK2W1OmChS7-144" value="" style="shape=partialRectangle;html=1;whiteSpace=wrap;connectable=0;strokeColor=inherit;overflow=hidden;fillColor=none;top=0;left=0;bottom=0;right=0;pointerEvents=1;" parent="p4HpwbEPAxK2W1OmChS7-129" vertex="1">
          <mxGeometry x="210" width="15" height="12" as="geometry">
            <mxRectangle width="15" height="12" as="alternateBounds" />
          </mxGeometry>
        </mxCell>
        <mxCell id="p4HpwbEPAxK2W1OmChS7-145" value="" style="shape=partialRectangle;html=1;whiteSpace=wrap;connectable=0;strokeColor=inherit;overflow=hidden;fillColor=none;top=0;left=0;bottom=0;right=0;pointerEvents=1;" parent="p4HpwbEPAxK2W1OmChS7-129" vertex="1">
          <mxGeometry x="225" width="15" height="12" as="geometry">
            <mxRectangle width="15" height="12" as="alternateBounds" />
          </mxGeometry>
        </mxCell>
        <mxCell id="p4HpwbEPAxK2W1OmChS7-146" value="" style="shape=partialRectangle;html=1;whiteSpace=wrap;connectable=0;strokeColor=inherit;overflow=hidden;fillColor=none;top=0;left=0;bottom=0;right=0;pointerEvents=1;" parent="p4HpwbEPAxK2W1OmChS7-129" vertex="1">
          <mxGeometry x="240" width="15" height="12" as="geometry">
            <mxRectangle width="15" height="12" as="alternateBounds" />
          </mxGeometry>
        </mxCell>
        <mxCell id="p4HpwbEPAxK2W1OmChS7-147" value="" style="shape=partialRectangle;html=1;whiteSpace=wrap;connectable=0;strokeColor=inherit;overflow=hidden;fillColor=none;top=0;left=0;bottom=0;right=0;pointerEvents=1;" parent="p4HpwbEPAxK2W1OmChS7-129" vertex="1">
          <mxGeometry x="255" width="15" height="12" as="geometry">
            <mxRectangle width="15" height="12" as="alternateBounds" />
          </mxGeometry>
        </mxCell>
        <mxCell id="p4HpwbEPAxK2W1OmChS7-148" value="" style="shape=partialRectangle;html=1;whiteSpace=wrap;connectable=0;strokeColor=inherit;overflow=hidden;fillColor=none;top=0;left=0;bottom=0;right=0;pointerEvents=1;" parent="p4HpwbEPAxK2W1OmChS7-129" vertex="1">
          <mxGeometry x="270" width="15" height="12" as="geometry">
            <mxRectangle width="15" height="12" as="alternateBounds" />
          </mxGeometry>
        </mxCell>
        <mxCell id="p4HpwbEPAxK2W1OmChS7-149" value="" style="shape=partialRectangle;html=1;whiteSpace=wrap;connectable=0;strokeColor=inherit;overflow=hidden;fillColor=none;top=0;left=0;bottom=0;right=0;pointerEvents=1;" parent="p4HpwbEPAxK2W1OmChS7-129" vertex="1">
          <mxGeometry x="285" width="15" height="12" as="geometry">
            <mxRectangle width="15" height="12" as="alternateBounds" />
          </mxGeometry>
        </mxCell>
        <mxCell id="p4HpwbEPAxK2W1OmChS7-150" value="" style="shape=tableRow;horizontal=0;startSize=0;swimlaneHead=0;swimlaneBody=0;strokeColor=inherit;top=0;left=0;bottom=0;right=0;collapsible=0;dropTarget=0;fillColor=none;points=[[0,0.5],[1,0.5]];portConstraint=eastwest;" parent="p4HpwbEPAxK2W1OmChS7-2" vertex="1">
          <mxGeometry y="81" width="300" height="11" as="geometry" />
        </mxCell>
        <mxCell id="p4HpwbEPAxK2W1OmChS7-151" value="" style="shape=partialRectangle;html=1;whiteSpace=wrap;connectable=0;strokeColor=inherit;overflow=hidden;fillColor=none;top=0;left=0;bottom=0;right=0;pointerEvents=1;" parent="p4HpwbEPAxK2W1OmChS7-150" vertex="1">
          <mxGeometry width="15" height="11" as="geometry">
            <mxRectangle width="15" height="11" as="alternateBounds" />
          </mxGeometry>
        </mxCell>
        <mxCell id="p4HpwbEPAxK2W1OmChS7-152" value="" style="shape=partialRectangle;html=1;whiteSpace=wrap;connectable=0;strokeColor=inherit;overflow=hidden;fillColor=none;top=0;left=0;bottom=0;right=0;pointerEvents=1;" parent="p4HpwbEPAxK2W1OmChS7-150" vertex="1">
          <mxGeometry x="15" width="15" height="11" as="geometry">
            <mxRectangle width="15" height="11" as="alternateBounds" />
          </mxGeometry>
        </mxCell>
        <mxCell id="p4HpwbEPAxK2W1OmChS7-153" value="" style="shape=partialRectangle;html=1;whiteSpace=wrap;connectable=0;strokeColor=inherit;overflow=hidden;fillColor=none;top=0;left=0;bottom=0;right=0;pointerEvents=1;" parent="p4HpwbEPAxK2W1OmChS7-150" vertex="1">
          <mxGeometry x="30" width="15" height="11" as="geometry">
            <mxRectangle width="15" height="11" as="alternateBounds" />
          </mxGeometry>
        </mxCell>
        <mxCell id="p4HpwbEPAxK2W1OmChS7-154" value="" style="shape=partialRectangle;html=1;whiteSpace=wrap;connectable=0;strokeColor=inherit;overflow=hidden;fillColor=none;top=0;left=0;bottom=0;right=0;pointerEvents=1;" parent="p4HpwbEPAxK2W1OmChS7-150" vertex="1">
          <mxGeometry x="45" width="15" height="11" as="geometry">
            <mxRectangle width="15" height="11" as="alternateBounds" />
          </mxGeometry>
        </mxCell>
        <mxCell id="p4HpwbEPAxK2W1OmChS7-155" value="" style="shape=partialRectangle;html=1;whiteSpace=wrap;connectable=0;strokeColor=inherit;overflow=hidden;fillColor=none;top=0;left=0;bottom=0;right=0;pointerEvents=1;" parent="p4HpwbEPAxK2W1OmChS7-150" vertex="1">
          <mxGeometry x="60" width="15" height="11" as="geometry">
            <mxRectangle width="15" height="11" as="alternateBounds" />
          </mxGeometry>
        </mxCell>
        <mxCell id="p4HpwbEPAxK2W1OmChS7-156" value="" style="shape=partialRectangle;html=1;whiteSpace=wrap;connectable=0;strokeColor=inherit;overflow=hidden;fillColor=none;top=0;left=0;bottom=0;right=0;pointerEvents=1;" parent="p4HpwbEPAxK2W1OmChS7-150" vertex="1">
          <mxGeometry x="75" width="15" height="11" as="geometry">
            <mxRectangle width="15" height="11" as="alternateBounds" />
          </mxGeometry>
        </mxCell>
        <mxCell id="p4HpwbEPAxK2W1OmChS7-157" value="" style="shape=partialRectangle;html=1;whiteSpace=wrap;connectable=0;strokeColor=inherit;overflow=hidden;fillColor=none;top=0;left=0;bottom=0;right=0;pointerEvents=1;" parent="p4HpwbEPAxK2W1OmChS7-150" vertex="1">
          <mxGeometry x="90" width="15" height="11" as="geometry">
            <mxRectangle width="15" height="11" as="alternateBounds" />
          </mxGeometry>
        </mxCell>
        <mxCell id="p4HpwbEPAxK2W1OmChS7-158" value="" style="shape=partialRectangle;html=1;whiteSpace=wrap;connectable=0;strokeColor=inherit;overflow=hidden;fillColor=none;top=0;left=0;bottom=0;right=0;pointerEvents=1;" parent="p4HpwbEPAxK2W1OmChS7-150" vertex="1">
          <mxGeometry x="105" width="15" height="11" as="geometry">
            <mxRectangle width="15" height="11" as="alternateBounds" />
          </mxGeometry>
        </mxCell>
        <mxCell id="p4HpwbEPAxK2W1OmChS7-159" value="" style="shape=partialRectangle;html=1;whiteSpace=wrap;connectable=0;strokeColor=inherit;overflow=hidden;fillColor=none;top=0;left=0;bottom=0;right=0;pointerEvents=1;" parent="p4HpwbEPAxK2W1OmChS7-150" vertex="1">
          <mxGeometry x="120" width="15" height="11" as="geometry">
            <mxRectangle width="15" height="11" as="alternateBounds" />
          </mxGeometry>
        </mxCell>
        <mxCell id="p4HpwbEPAxK2W1OmChS7-160" value="" style="shape=partialRectangle;html=1;whiteSpace=wrap;connectable=0;strokeColor=inherit;overflow=hidden;fillColor=none;top=0;left=0;bottom=0;right=0;pointerEvents=1;" parent="p4HpwbEPAxK2W1OmChS7-150" vertex="1">
          <mxGeometry x="135" width="15" height="11" as="geometry">
            <mxRectangle width="15" height="11" as="alternateBounds" />
          </mxGeometry>
        </mxCell>
        <mxCell id="p4HpwbEPAxK2W1OmChS7-161" value="" style="shape=partialRectangle;html=1;whiteSpace=wrap;connectable=0;strokeColor=inherit;overflow=hidden;fillColor=none;top=0;left=0;bottom=0;right=0;pointerEvents=1;" parent="p4HpwbEPAxK2W1OmChS7-150" vertex="1">
          <mxGeometry x="150" width="15" height="11" as="geometry">
            <mxRectangle width="15" height="11" as="alternateBounds" />
          </mxGeometry>
        </mxCell>
        <mxCell id="p4HpwbEPAxK2W1OmChS7-162" value="" style="shape=partialRectangle;html=1;whiteSpace=wrap;connectable=0;strokeColor=inherit;overflow=hidden;fillColor=none;top=0;left=0;bottom=0;right=0;pointerEvents=1;" parent="p4HpwbEPAxK2W1OmChS7-150" vertex="1">
          <mxGeometry x="165" width="15" height="11" as="geometry">
            <mxRectangle width="15" height="11" as="alternateBounds" />
          </mxGeometry>
        </mxCell>
        <mxCell id="p4HpwbEPAxK2W1OmChS7-163" value="" style="shape=partialRectangle;html=1;whiteSpace=wrap;connectable=0;strokeColor=inherit;overflow=hidden;fillColor=none;top=0;left=0;bottom=0;right=0;pointerEvents=1;" parent="p4HpwbEPAxK2W1OmChS7-150" vertex="1">
          <mxGeometry x="180" width="15" height="11" as="geometry">
            <mxRectangle width="15" height="11" as="alternateBounds" />
          </mxGeometry>
        </mxCell>
        <mxCell id="p4HpwbEPAxK2W1OmChS7-164" value="" style="shape=partialRectangle;html=1;whiteSpace=wrap;connectable=0;strokeColor=inherit;overflow=hidden;fillColor=none;top=0;left=0;bottom=0;right=0;pointerEvents=1;" parent="p4HpwbEPAxK2W1OmChS7-150" vertex="1">
          <mxGeometry x="195" width="15" height="11" as="geometry">
            <mxRectangle width="15" height="11" as="alternateBounds" />
          </mxGeometry>
        </mxCell>
        <mxCell id="p4HpwbEPAxK2W1OmChS7-165" value="" style="shape=partialRectangle;html=1;whiteSpace=wrap;connectable=0;strokeColor=inherit;overflow=hidden;fillColor=none;top=0;left=0;bottom=0;right=0;pointerEvents=1;" parent="p4HpwbEPAxK2W1OmChS7-150" vertex="1">
          <mxGeometry x="210" width="15" height="11" as="geometry">
            <mxRectangle width="15" height="11" as="alternateBounds" />
          </mxGeometry>
        </mxCell>
        <mxCell id="p4HpwbEPAxK2W1OmChS7-166" value="" style="shape=partialRectangle;html=1;whiteSpace=wrap;connectable=0;strokeColor=inherit;overflow=hidden;fillColor=none;top=0;left=0;bottom=0;right=0;pointerEvents=1;" parent="p4HpwbEPAxK2W1OmChS7-150" vertex="1">
          <mxGeometry x="225" width="15" height="11" as="geometry">
            <mxRectangle width="15" height="11" as="alternateBounds" />
          </mxGeometry>
        </mxCell>
        <mxCell id="p4HpwbEPAxK2W1OmChS7-167" value="" style="shape=partialRectangle;html=1;whiteSpace=wrap;connectable=0;strokeColor=inherit;overflow=hidden;fillColor=none;top=0;left=0;bottom=0;right=0;pointerEvents=1;" parent="p4HpwbEPAxK2W1OmChS7-150" vertex="1">
          <mxGeometry x="240" width="15" height="11" as="geometry">
            <mxRectangle width="15" height="11" as="alternateBounds" />
          </mxGeometry>
        </mxCell>
        <mxCell id="p4HpwbEPAxK2W1OmChS7-168" value="" style="shape=partialRectangle;html=1;whiteSpace=wrap;connectable=0;strokeColor=inherit;overflow=hidden;fillColor=none;top=0;left=0;bottom=0;right=0;pointerEvents=1;" parent="p4HpwbEPAxK2W1OmChS7-150" vertex="1">
          <mxGeometry x="255" width="15" height="11" as="geometry">
            <mxRectangle width="15" height="11" as="alternateBounds" />
          </mxGeometry>
        </mxCell>
        <mxCell id="p4HpwbEPAxK2W1OmChS7-169" value="" style="shape=partialRectangle;html=1;whiteSpace=wrap;connectable=0;strokeColor=inherit;overflow=hidden;fillColor=none;top=0;left=0;bottom=0;right=0;pointerEvents=1;" parent="p4HpwbEPAxK2W1OmChS7-150" vertex="1">
          <mxGeometry x="270" width="15" height="11" as="geometry">
            <mxRectangle width="15" height="11" as="alternateBounds" />
          </mxGeometry>
        </mxCell>
        <mxCell id="p4HpwbEPAxK2W1OmChS7-170" value="" style="shape=partialRectangle;html=1;whiteSpace=wrap;connectable=0;strokeColor=inherit;overflow=hidden;fillColor=none;top=0;left=0;bottom=0;right=0;pointerEvents=1;" parent="p4HpwbEPAxK2W1OmChS7-150" vertex="1">
          <mxGeometry x="285" width="15" height="11" as="geometry">
            <mxRectangle width="15" height="11" as="alternateBounds" />
          </mxGeometry>
        </mxCell>
        <mxCell id="p4HpwbEPAxK2W1OmChS7-171" value="" style="shape=tableRow;horizontal=0;startSize=0;swimlaneHead=0;swimlaneBody=0;strokeColor=inherit;top=0;left=0;bottom=0;right=0;collapsible=0;dropTarget=0;fillColor=none;points=[[0,0.5],[1,0.5]];portConstraint=eastwest;" parent="p4HpwbEPAxK2W1OmChS7-2" vertex="1">
          <mxGeometry y="92" width="300" height="12" as="geometry" />
        </mxCell>
        <mxCell id="p4HpwbEPAxK2W1OmChS7-172" value="" style="shape=partialRectangle;html=1;whiteSpace=wrap;connectable=0;strokeColor=inherit;overflow=hidden;fillColor=none;top=0;left=0;bottom=0;right=0;pointerEvents=1;" parent="p4HpwbEPAxK2W1OmChS7-171" vertex="1">
          <mxGeometry width="15" height="12" as="geometry">
            <mxRectangle width="15" height="12" as="alternateBounds" />
          </mxGeometry>
        </mxCell>
        <mxCell id="p4HpwbEPAxK2W1OmChS7-173" value="" style="shape=partialRectangle;html=1;whiteSpace=wrap;connectable=0;strokeColor=inherit;overflow=hidden;fillColor=none;top=0;left=0;bottom=0;right=0;pointerEvents=1;" parent="p4HpwbEPAxK2W1OmChS7-171" vertex="1">
          <mxGeometry x="15" width="15" height="12" as="geometry">
            <mxRectangle width="15" height="12" as="alternateBounds" />
          </mxGeometry>
        </mxCell>
        <mxCell id="p4HpwbEPAxK2W1OmChS7-174" value="" style="shape=partialRectangle;html=1;whiteSpace=wrap;connectable=0;strokeColor=inherit;overflow=hidden;fillColor=none;top=0;left=0;bottom=0;right=0;pointerEvents=1;" parent="p4HpwbEPAxK2W1OmChS7-171" vertex="1">
          <mxGeometry x="30" width="15" height="12" as="geometry">
            <mxRectangle width="15" height="12" as="alternateBounds" />
          </mxGeometry>
        </mxCell>
        <mxCell id="p4HpwbEPAxK2W1OmChS7-175" value="" style="shape=partialRectangle;html=1;whiteSpace=wrap;connectable=0;strokeColor=inherit;overflow=hidden;fillColor=none;top=0;left=0;bottom=0;right=0;pointerEvents=1;" parent="p4HpwbEPAxK2W1OmChS7-171" vertex="1">
          <mxGeometry x="45" width="15" height="12" as="geometry">
            <mxRectangle width="15" height="12" as="alternateBounds" />
          </mxGeometry>
        </mxCell>
        <mxCell id="p4HpwbEPAxK2W1OmChS7-176" value="" style="shape=partialRectangle;html=1;whiteSpace=wrap;connectable=0;strokeColor=inherit;overflow=hidden;fillColor=none;top=0;left=0;bottom=0;right=0;pointerEvents=1;" parent="p4HpwbEPAxK2W1OmChS7-171" vertex="1">
          <mxGeometry x="60" width="15" height="12" as="geometry">
            <mxRectangle width="15" height="12" as="alternateBounds" />
          </mxGeometry>
        </mxCell>
        <mxCell id="p4HpwbEPAxK2W1OmChS7-177" value="" style="shape=partialRectangle;html=1;whiteSpace=wrap;connectable=0;strokeColor=inherit;overflow=hidden;fillColor=none;top=0;left=0;bottom=0;right=0;pointerEvents=1;" parent="p4HpwbEPAxK2W1OmChS7-171" vertex="1">
          <mxGeometry x="75" width="15" height="12" as="geometry">
            <mxRectangle width="15" height="12" as="alternateBounds" />
          </mxGeometry>
        </mxCell>
        <mxCell id="p4HpwbEPAxK2W1OmChS7-178" value="" style="shape=partialRectangle;html=1;whiteSpace=wrap;connectable=0;strokeColor=inherit;overflow=hidden;fillColor=none;top=0;left=0;bottom=0;right=0;pointerEvents=1;" parent="p4HpwbEPAxK2W1OmChS7-171" vertex="1">
          <mxGeometry x="90" width="15" height="12" as="geometry">
            <mxRectangle width="15" height="12" as="alternateBounds" />
          </mxGeometry>
        </mxCell>
        <mxCell id="p4HpwbEPAxK2W1OmChS7-179" value="" style="shape=partialRectangle;html=1;whiteSpace=wrap;connectable=0;strokeColor=inherit;overflow=hidden;fillColor=none;top=0;left=0;bottom=0;right=0;pointerEvents=1;" parent="p4HpwbEPAxK2W1OmChS7-171" vertex="1">
          <mxGeometry x="105" width="15" height="12" as="geometry">
            <mxRectangle width="15" height="12" as="alternateBounds" />
          </mxGeometry>
        </mxCell>
        <mxCell id="p4HpwbEPAxK2W1OmChS7-180" value="" style="shape=partialRectangle;html=1;whiteSpace=wrap;connectable=0;strokeColor=inherit;overflow=hidden;fillColor=none;top=0;left=0;bottom=0;right=0;pointerEvents=1;" parent="p4HpwbEPAxK2W1OmChS7-171" vertex="1">
          <mxGeometry x="120" width="15" height="12" as="geometry">
            <mxRectangle width="15" height="12" as="alternateBounds" />
          </mxGeometry>
        </mxCell>
        <mxCell id="p4HpwbEPAxK2W1OmChS7-181" value="" style="shape=partialRectangle;html=1;whiteSpace=wrap;connectable=0;strokeColor=inherit;overflow=hidden;fillColor=none;top=0;left=0;bottom=0;right=0;pointerEvents=1;" parent="p4HpwbEPAxK2W1OmChS7-171" vertex="1">
          <mxGeometry x="135" width="15" height="12" as="geometry">
            <mxRectangle width="15" height="12" as="alternateBounds" />
          </mxGeometry>
        </mxCell>
        <mxCell id="p4HpwbEPAxK2W1OmChS7-182" value="" style="shape=partialRectangle;html=1;whiteSpace=wrap;connectable=0;strokeColor=inherit;overflow=hidden;fillColor=none;top=0;left=0;bottom=0;right=0;pointerEvents=1;" parent="p4HpwbEPAxK2W1OmChS7-171" vertex="1">
          <mxGeometry x="150" width="15" height="12" as="geometry">
            <mxRectangle width="15" height="12" as="alternateBounds" />
          </mxGeometry>
        </mxCell>
        <mxCell id="p4HpwbEPAxK2W1OmChS7-183" value="" style="shape=partialRectangle;html=1;whiteSpace=wrap;connectable=0;strokeColor=inherit;overflow=hidden;fillColor=none;top=0;left=0;bottom=0;right=0;pointerEvents=1;" parent="p4HpwbEPAxK2W1OmChS7-171" vertex="1">
          <mxGeometry x="165" width="15" height="12" as="geometry">
            <mxRectangle width="15" height="12" as="alternateBounds" />
          </mxGeometry>
        </mxCell>
        <mxCell id="p4HpwbEPAxK2W1OmChS7-184" value="" style="shape=partialRectangle;html=1;whiteSpace=wrap;connectable=0;strokeColor=inherit;overflow=hidden;fillColor=none;top=0;left=0;bottom=0;right=0;pointerEvents=1;" parent="p4HpwbEPAxK2W1OmChS7-171" vertex="1">
          <mxGeometry x="180" width="15" height="12" as="geometry">
            <mxRectangle width="15" height="12" as="alternateBounds" />
          </mxGeometry>
        </mxCell>
        <mxCell id="p4HpwbEPAxK2W1OmChS7-185" value="" style="shape=partialRectangle;html=1;whiteSpace=wrap;connectable=0;strokeColor=inherit;overflow=hidden;fillColor=none;top=0;left=0;bottom=0;right=0;pointerEvents=1;" parent="p4HpwbEPAxK2W1OmChS7-171" vertex="1">
          <mxGeometry x="195" width="15" height="12" as="geometry">
            <mxRectangle width="15" height="12" as="alternateBounds" />
          </mxGeometry>
        </mxCell>
        <mxCell id="p4HpwbEPAxK2W1OmChS7-186" value="" style="shape=partialRectangle;html=1;whiteSpace=wrap;connectable=0;strokeColor=inherit;overflow=hidden;fillColor=none;top=0;left=0;bottom=0;right=0;pointerEvents=1;" parent="p4HpwbEPAxK2W1OmChS7-171" vertex="1">
          <mxGeometry x="210" width="15" height="12" as="geometry">
            <mxRectangle width="15" height="12" as="alternateBounds" />
          </mxGeometry>
        </mxCell>
        <mxCell id="p4HpwbEPAxK2W1OmChS7-187" value="" style="shape=partialRectangle;html=1;whiteSpace=wrap;connectable=0;strokeColor=inherit;overflow=hidden;fillColor=none;top=0;left=0;bottom=0;right=0;pointerEvents=1;" parent="p4HpwbEPAxK2W1OmChS7-171" vertex="1">
          <mxGeometry x="225" width="15" height="12" as="geometry">
            <mxRectangle width="15" height="12" as="alternateBounds" />
          </mxGeometry>
        </mxCell>
        <mxCell id="p4HpwbEPAxK2W1OmChS7-188" value="" style="shape=partialRectangle;html=1;whiteSpace=wrap;connectable=0;strokeColor=inherit;overflow=hidden;fillColor=none;top=0;left=0;bottom=0;right=0;pointerEvents=1;" parent="p4HpwbEPAxK2W1OmChS7-171" vertex="1">
          <mxGeometry x="240" width="15" height="12" as="geometry">
            <mxRectangle width="15" height="12" as="alternateBounds" />
          </mxGeometry>
        </mxCell>
        <mxCell id="p4HpwbEPAxK2W1OmChS7-189" value="" style="shape=partialRectangle;html=1;whiteSpace=wrap;connectable=0;strokeColor=inherit;overflow=hidden;fillColor=none;top=0;left=0;bottom=0;right=0;pointerEvents=1;" parent="p4HpwbEPAxK2W1OmChS7-171" vertex="1">
          <mxGeometry x="255" width="15" height="12" as="geometry">
            <mxRectangle width="15" height="12" as="alternateBounds" />
          </mxGeometry>
        </mxCell>
        <mxCell id="p4HpwbEPAxK2W1OmChS7-190" value="" style="shape=partialRectangle;html=1;whiteSpace=wrap;connectable=0;strokeColor=inherit;overflow=hidden;fillColor=none;top=0;left=0;bottom=0;right=0;pointerEvents=1;" parent="p4HpwbEPAxK2W1OmChS7-171" vertex="1">
          <mxGeometry x="270" width="15" height="12" as="geometry">
            <mxRectangle width="15" height="12" as="alternateBounds" />
          </mxGeometry>
        </mxCell>
        <mxCell id="p4HpwbEPAxK2W1OmChS7-191" value="" style="shape=partialRectangle;html=1;whiteSpace=wrap;connectable=0;strokeColor=inherit;overflow=hidden;fillColor=none;top=0;left=0;bottom=0;right=0;pointerEvents=1;" parent="p4HpwbEPAxK2W1OmChS7-171" vertex="1">
          <mxGeometry x="285" width="15" height="12" as="geometry">
            <mxRectangle width="15" height="12" as="alternateBounds" />
          </mxGeometry>
        </mxCell>
        <mxCell id="p4HpwbEPAxK2W1OmChS7-192" value="" style="shape=tableRow;horizontal=0;startSize=0;swimlaneHead=0;swimlaneBody=0;strokeColor=inherit;top=0;left=0;bottom=0;right=0;collapsible=0;dropTarget=0;fillColor=none;points=[[0,0.5],[1,0.5]];portConstraint=eastwest;" parent="p4HpwbEPAxK2W1OmChS7-2" vertex="1">
          <mxGeometry y="104" width="300" height="11" as="geometry" />
        </mxCell>
        <mxCell id="p4HpwbEPAxK2W1OmChS7-193" value="" style="shape=partialRectangle;html=1;whiteSpace=wrap;connectable=0;strokeColor=inherit;overflow=hidden;fillColor=none;top=0;left=0;bottom=0;right=0;pointerEvents=1;" parent="p4HpwbEPAxK2W1OmChS7-192" vertex="1">
          <mxGeometry width="15" height="11" as="geometry">
            <mxRectangle width="15" height="11" as="alternateBounds" />
          </mxGeometry>
        </mxCell>
        <mxCell id="p4HpwbEPAxK2W1OmChS7-194" value="" style="shape=partialRectangle;html=1;whiteSpace=wrap;connectable=0;strokeColor=inherit;overflow=hidden;fillColor=none;top=0;left=0;bottom=0;right=0;pointerEvents=1;" parent="p4HpwbEPAxK2W1OmChS7-192" vertex="1">
          <mxGeometry x="15" width="15" height="11" as="geometry">
            <mxRectangle width="15" height="11" as="alternateBounds" />
          </mxGeometry>
        </mxCell>
        <mxCell id="p4HpwbEPAxK2W1OmChS7-195" value="" style="shape=partialRectangle;html=1;whiteSpace=wrap;connectable=0;strokeColor=inherit;overflow=hidden;fillColor=none;top=0;left=0;bottom=0;right=0;pointerEvents=1;" parent="p4HpwbEPAxK2W1OmChS7-192" vertex="1">
          <mxGeometry x="30" width="15" height="11" as="geometry">
            <mxRectangle width="15" height="11" as="alternateBounds" />
          </mxGeometry>
        </mxCell>
        <mxCell id="p4HpwbEPAxK2W1OmChS7-196" value="" style="shape=partialRectangle;html=1;whiteSpace=wrap;connectable=0;strokeColor=inherit;overflow=hidden;fillColor=none;top=0;left=0;bottom=0;right=0;pointerEvents=1;" parent="p4HpwbEPAxK2W1OmChS7-192" vertex="1">
          <mxGeometry x="45" width="15" height="11" as="geometry">
            <mxRectangle width="15" height="11" as="alternateBounds" />
          </mxGeometry>
        </mxCell>
        <mxCell id="p4HpwbEPAxK2W1OmChS7-197" value="" style="shape=partialRectangle;html=1;whiteSpace=wrap;connectable=0;strokeColor=inherit;overflow=hidden;fillColor=none;top=0;left=0;bottom=0;right=0;pointerEvents=1;" parent="p4HpwbEPAxK2W1OmChS7-192" vertex="1">
          <mxGeometry x="60" width="15" height="11" as="geometry">
            <mxRectangle width="15" height="11" as="alternateBounds" />
          </mxGeometry>
        </mxCell>
        <mxCell id="p4HpwbEPAxK2W1OmChS7-198" value="" style="shape=partialRectangle;html=1;whiteSpace=wrap;connectable=0;strokeColor=inherit;overflow=hidden;fillColor=none;top=0;left=0;bottom=0;right=0;pointerEvents=1;" parent="p4HpwbEPAxK2W1OmChS7-192" vertex="1">
          <mxGeometry x="75" width="15" height="11" as="geometry">
            <mxRectangle width="15" height="11" as="alternateBounds" />
          </mxGeometry>
        </mxCell>
        <mxCell id="p4HpwbEPAxK2W1OmChS7-199" value="" style="shape=partialRectangle;html=1;whiteSpace=wrap;connectable=0;strokeColor=inherit;overflow=hidden;fillColor=none;top=0;left=0;bottom=0;right=0;pointerEvents=1;" parent="p4HpwbEPAxK2W1OmChS7-192" vertex="1">
          <mxGeometry x="90" width="15" height="11" as="geometry">
            <mxRectangle width="15" height="11" as="alternateBounds" />
          </mxGeometry>
        </mxCell>
        <mxCell id="p4HpwbEPAxK2W1OmChS7-200" value="" style="shape=partialRectangle;html=1;whiteSpace=wrap;connectable=0;strokeColor=inherit;overflow=hidden;fillColor=none;top=0;left=0;bottom=0;right=0;pointerEvents=1;" parent="p4HpwbEPAxK2W1OmChS7-192" vertex="1">
          <mxGeometry x="105" width="15" height="11" as="geometry">
            <mxRectangle width="15" height="11" as="alternateBounds" />
          </mxGeometry>
        </mxCell>
        <mxCell id="p4HpwbEPAxK2W1OmChS7-201" value="" style="shape=partialRectangle;html=1;whiteSpace=wrap;connectable=0;strokeColor=inherit;overflow=hidden;fillColor=none;top=0;left=0;bottom=0;right=0;pointerEvents=1;" parent="p4HpwbEPAxK2W1OmChS7-192" vertex="1">
          <mxGeometry x="120" width="15" height="11" as="geometry">
            <mxRectangle width="15" height="11" as="alternateBounds" />
          </mxGeometry>
        </mxCell>
        <mxCell id="p4HpwbEPAxK2W1OmChS7-202" value="" style="shape=partialRectangle;html=1;whiteSpace=wrap;connectable=0;strokeColor=inherit;overflow=hidden;fillColor=none;top=0;left=0;bottom=0;right=0;pointerEvents=1;" parent="p4HpwbEPAxK2W1OmChS7-192" vertex="1">
          <mxGeometry x="135" width="15" height="11" as="geometry">
            <mxRectangle width="15" height="11" as="alternateBounds" />
          </mxGeometry>
        </mxCell>
        <mxCell id="p4HpwbEPAxK2W1OmChS7-203" value="" style="shape=partialRectangle;html=1;whiteSpace=wrap;connectable=0;strokeColor=inherit;overflow=hidden;fillColor=none;top=0;left=0;bottom=0;right=0;pointerEvents=1;" parent="p4HpwbEPAxK2W1OmChS7-192" vertex="1">
          <mxGeometry x="150" width="15" height="11" as="geometry">
            <mxRectangle width="15" height="11" as="alternateBounds" />
          </mxGeometry>
        </mxCell>
        <mxCell id="p4HpwbEPAxK2W1OmChS7-204" value="" style="shape=partialRectangle;html=1;whiteSpace=wrap;connectable=0;strokeColor=inherit;overflow=hidden;fillColor=none;top=0;left=0;bottom=0;right=0;pointerEvents=1;" parent="p4HpwbEPAxK2W1OmChS7-192" vertex="1">
          <mxGeometry x="165" width="15" height="11" as="geometry">
            <mxRectangle width="15" height="11" as="alternateBounds" />
          </mxGeometry>
        </mxCell>
        <mxCell id="p4HpwbEPAxK2W1OmChS7-205" value="" style="shape=partialRectangle;html=1;whiteSpace=wrap;connectable=0;strokeColor=inherit;overflow=hidden;fillColor=none;top=0;left=0;bottom=0;right=0;pointerEvents=1;" parent="p4HpwbEPAxK2W1OmChS7-192" vertex="1">
          <mxGeometry x="180" width="15" height="11" as="geometry">
            <mxRectangle width="15" height="11" as="alternateBounds" />
          </mxGeometry>
        </mxCell>
        <mxCell id="p4HpwbEPAxK2W1OmChS7-206" value="" style="shape=partialRectangle;html=1;whiteSpace=wrap;connectable=0;strokeColor=inherit;overflow=hidden;fillColor=none;top=0;left=0;bottom=0;right=0;pointerEvents=1;" parent="p4HpwbEPAxK2W1OmChS7-192" vertex="1">
          <mxGeometry x="195" width="15" height="11" as="geometry">
            <mxRectangle width="15" height="11" as="alternateBounds" />
          </mxGeometry>
        </mxCell>
        <mxCell id="p4HpwbEPAxK2W1OmChS7-207" value="" style="shape=partialRectangle;html=1;whiteSpace=wrap;connectable=0;strokeColor=inherit;overflow=hidden;fillColor=none;top=0;left=0;bottom=0;right=0;pointerEvents=1;" parent="p4HpwbEPAxK2W1OmChS7-192" vertex="1">
          <mxGeometry x="210" width="15" height="11" as="geometry">
            <mxRectangle width="15" height="11" as="alternateBounds" />
          </mxGeometry>
        </mxCell>
        <mxCell id="p4HpwbEPAxK2W1OmChS7-208" value="" style="shape=partialRectangle;html=1;whiteSpace=wrap;connectable=0;strokeColor=inherit;overflow=hidden;fillColor=none;top=0;left=0;bottom=0;right=0;pointerEvents=1;" parent="p4HpwbEPAxK2W1OmChS7-192" vertex="1">
          <mxGeometry x="225" width="15" height="11" as="geometry">
            <mxRectangle width="15" height="11" as="alternateBounds" />
          </mxGeometry>
        </mxCell>
        <mxCell id="p4HpwbEPAxK2W1OmChS7-209" value="" style="shape=partialRectangle;html=1;whiteSpace=wrap;connectable=0;strokeColor=inherit;overflow=hidden;fillColor=none;top=0;left=0;bottom=0;right=0;pointerEvents=1;" parent="p4HpwbEPAxK2W1OmChS7-192" vertex="1">
          <mxGeometry x="240" width="15" height="11" as="geometry">
            <mxRectangle width="15" height="11" as="alternateBounds" />
          </mxGeometry>
        </mxCell>
        <mxCell id="p4HpwbEPAxK2W1OmChS7-210" value="" style="shape=partialRectangle;html=1;whiteSpace=wrap;connectable=0;strokeColor=inherit;overflow=hidden;fillColor=none;top=0;left=0;bottom=0;right=0;pointerEvents=1;" parent="p4HpwbEPAxK2W1OmChS7-192" vertex="1">
          <mxGeometry x="255" width="15" height="11" as="geometry">
            <mxRectangle width="15" height="11" as="alternateBounds" />
          </mxGeometry>
        </mxCell>
        <mxCell id="p4HpwbEPAxK2W1OmChS7-211" value="" style="shape=partialRectangle;html=1;whiteSpace=wrap;connectable=0;strokeColor=inherit;overflow=hidden;fillColor=none;top=0;left=0;bottom=0;right=0;pointerEvents=1;" parent="p4HpwbEPAxK2W1OmChS7-192" vertex="1">
          <mxGeometry x="270" width="15" height="11" as="geometry">
            <mxRectangle width="15" height="11" as="alternateBounds" />
          </mxGeometry>
        </mxCell>
        <mxCell id="p4HpwbEPAxK2W1OmChS7-212" value="" style="shape=partialRectangle;html=1;whiteSpace=wrap;connectable=0;strokeColor=inherit;overflow=hidden;fillColor=none;top=0;left=0;bottom=0;right=0;pointerEvents=1;" parent="p4HpwbEPAxK2W1OmChS7-192" vertex="1">
          <mxGeometry x="285" width="15" height="11" as="geometry">
            <mxRectangle width="15" height="11" as="alternateBounds" />
          </mxGeometry>
        </mxCell>
        <mxCell id="p4HpwbEPAxK2W1OmChS7-213" value="" style="shape=tableRow;horizontal=0;startSize=0;swimlaneHead=0;swimlaneBody=0;strokeColor=inherit;top=0;left=0;bottom=0;right=0;collapsible=0;dropTarget=0;fillColor=none;points=[[0,0.5],[1,0.5]];portConstraint=eastwest;" parent="p4HpwbEPAxK2W1OmChS7-2" vertex="1">
          <mxGeometry y="115" width="300" height="12" as="geometry" />
        </mxCell>
        <mxCell id="p4HpwbEPAxK2W1OmChS7-214" value="" style="shape=partialRectangle;html=1;whiteSpace=wrap;connectable=0;strokeColor=inherit;overflow=hidden;fillColor=none;top=0;left=0;bottom=0;right=0;pointerEvents=1;" parent="p4HpwbEPAxK2W1OmChS7-213" vertex="1">
          <mxGeometry width="15" height="12" as="geometry">
            <mxRectangle width="15" height="12" as="alternateBounds" />
          </mxGeometry>
        </mxCell>
        <mxCell id="p4HpwbEPAxK2W1OmChS7-215" value="" style="shape=partialRectangle;html=1;whiteSpace=wrap;connectable=0;strokeColor=inherit;overflow=hidden;fillColor=none;top=0;left=0;bottom=0;right=0;pointerEvents=1;" parent="p4HpwbEPAxK2W1OmChS7-213" vertex="1">
          <mxGeometry x="15" width="15" height="12" as="geometry">
            <mxRectangle width="15" height="12" as="alternateBounds" />
          </mxGeometry>
        </mxCell>
        <mxCell id="p4HpwbEPAxK2W1OmChS7-216" value="" style="shape=partialRectangle;html=1;whiteSpace=wrap;connectable=0;strokeColor=inherit;overflow=hidden;fillColor=none;top=0;left=0;bottom=0;right=0;pointerEvents=1;" parent="p4HpwbEPAxK2W1OmChS7-213" vertex="1">
          <mxGeometry x="30" width="15" height="12" as="geometry">
            <mxRectangle width="15" height="12" as="alternateBounds" />
          </mxGeometry>
        </mxCell>
        <mxCell id="p4HpwbEPAxK2W1OmChS7-217" value="" style="shape=partialRectangle;html=1;whiteSpace=wrap;connectable=0;strokeColor=inherit;overflow=hidden;fillColor=none;top=0;left=0;bottom=0;right=0;pointerEvents=1;" parent="p4HpwbEPAxK2W1OmChS7-213" vertex="1">
          <mxGeometry x="45" width="15" height="12" as="geometry">
            <mxRectangle width="15" height="12" as="alternateBounds" />
          </mxGeometry>
        </mxCell>
        <mxCell id="p4HpwbEPAxK2W1OmChS7-218" value="" style="shape=partialRectangle;html=1;whiteSpace=wrap;connectable=0;strokeColor=inherit;overflow=hidden;fillColor=none;top=0;left=0;bottom=0;right=0;pointerEvents=1;" parent="p4HpwbEPAxK2W1OmChS7-213" vertex="1">
          <mxGeometry x="60" width="15" height="12" as="geometry">
            <mxRectangle width="15" height="12" as="alternateBounds" />
          </mxGeometry>
        </mxCell>
        <mxCell id="p4HpwbEPAxK2W1OmChS7-219" value="" style="shape=partialRectangle;html=1;whiteSpace=wrap;connectable=0;strokeColor=inherit;overflow=hidden;fillColor=none;top=0;left=0;bottom=0;right=0;pointerEvents=1;" parent="p4HpwbEPAxK2W1OmChS7-213" vertex="1">
          <mxGeometry x="75" width="15" height="12" as="geometry">
            <mxRectangle width="15" height="12" as="alternateBounds" />
          </mxGeometry>
        </mxCell>
        <mxCell id="p4HpwbEPAxK2W1OmChS7-220" value="" style="shape=partialRectangle;html=1;whiteSpace=wrap;connectable=0;strokeColor=inherit;overflow=hidden;fillColor=none;top=0;left=0;bottom=0;right=0;pointerEvents=1;" parent="p4HpwbEPAxK2W1OmChS7-213" vertex="1">
          <mxGeometry x="90" width="15" height="12" as="geometry">
            <mxRectangle width="15" height="12" as="alternateBounds" />
          </mxGeometry>
        </mxCell>
        <mxCell id="p4HpwbEPAxK2W1OmChS7-221" value="" style="shape=partialRectangle;html=1;whiteSpace=wrap;connectable=0;strokeColor=inherit;overflow=hidden;fillColor=none;top=0;left=0;bottom=0;right=0;pointerEvents=1;" parent="p4HpwbEPAxK2W1OmChS7-213" vertex="1">
          <mxGeometry x="105" width="15" height="12" as="geometry">
            <mxRectangle width="15" height="12" as="alternateBounds" />
          </mxGeometry>
        </mxCell>
        <mxCell id="p4HpwbEPAxK2W1OmChS7-222" value="" style="shape=partialRectangle;html=1;whiteSpace=wrap;connectable=0;strokeColor=inherit;overflow=hidden;fillColor=none;top=0;left=0;bottom=0;right=0;pointerEvents=1;" parent="p4HpwbEPAxK2W1OmChS7-213" vertex="1">
          <mxGeometry x="120" width="15" height="12" as="geometry">
            <mxRectangle width="15" height="12" as="alternateBounds" />
          </mxGeometry>
        </mxCell>
        <mxCell id="p4HpwbEPAxK2W1OmChS7-223" value="" style="shape=partialRectangle;html=1;whiteSpace=wrap;connectable=0;strokeColor=inherit;overflow=hidden;fillColor=none;top=0;left=0;bottom=0;right=0;pointerEvents=1;" parent="p4HpwbEPAxK2W1OmChS7-213" vertex="1">
          <mxGeometry x="135" width="15" height="12" as="geometry">
            <mxRectangle width="15" height="12" as="alternateBounds" />
          </mxGeometry>
        </mxCell>
        <mxCell id="p4HpwbEPAxK2W1OmChS7-224" value="" style="shape=partialRectangle;html=1;whiteSpace=wrap;connectable=0;strokeColor=inherit;overflow=hidden;fillColor=none;top=0;left=0;bottom=0;right=0;pointerEvents=1;" parent="p4HpwbEPAxK2W1OmChS7-213" vertex="1">
          <mxGeometry x="150" width="15" height="12" as="geometry">
            <mxRectangle width="15" height="12" as="alternateBounds" />
          </mxGeometry>
        </mxCell>
        <mxCell id="p4HpwbEPAxK2W1OmChS7-225" value="" style="shape=partialRectangle;html=1;whiteSpace=wrap;connectable=0;strokeColor=inherit;overflow=hidden;fillColor=none;top=0;left=0;bottom=0;right=0;pointerEvents=1;" parent="p4HpwbEPAxK2W1OmChS7-213" vertex="1">
          <mxGeometry x="165" width="15" height="12" as="geometry">
            <mxRectangle width="15" height="12" as="alternateBounds" />
          </mxGeometry>
        </mxCell>
        <mxCell id="p4HpwbEPAxK2W1OmChS7-226" value="" style="shape=partialRectangle;html=1;whiteSpace=wrap;connectable=0;strokeColor=inherit;overflow=hidden;fillColor=none;top=0;left=0;bottom=0;right=0;pointerEvents=1;" parent="p4HpwbEPAxK2W1OmChS7-213" vertex="1">
          <mxGeometry x="180" width="15" height="12" as="geometry">
            <mxRectangle width="15" height="12" as="alternateBounds" />
          </mxGeometry>
        </mxCell>
        <mxCell id="p4HpwbEPAxK2W1OmChS7-227" value="" style="shape=partialRectangle;html=1;whiteSpace=wrap;connectable=0;strokeColor=inherit;overflow=hidden;fillColor=none;top=0;left=0;bottom=0;right=0;pointerEvents=1;" parent="p4HpwbEPAxK2W1OmChS7-213" vertex="1">
          <mxGeometry x="195" width="15" height="12" as="geometry">
            <mxRectangle width="15" height="12" as="alternateBounds" />
          </mxGeometry>
        </mxCell>
        <mxCell id="p4HpwbEPAxK2W1OmChS7-228" value="" style="shape=partialRectangle;html=1;whiteSpace=wrap;connectable=0;strokeColor=inherit;overflow=hidden;fillColor=none;top=0;left=0;bottom=0;right=0;pointerEvents=1;" parent="p4HpwbEPAxK2W1OmChS7-213" vertex="1">
          <mxGeometry x="210" width="15" height="12" as="geometry">
            <mxRectangle width="15" height="12" as="alternateBounds" />
          </mxGeometry>
        </mxCell>
        <mxCell id="p4HpwbEPAxK2W1OmChS7-229" value="" style="shape=partialRectangle;html=1;whiteSpace=wrap;connectable=0;strokeColor=inherit;overflow=hidden;fillColor=none;top=0;left=0;bottom=0;right=0;pointerEvents=1;" parent="p4HpwbEPAxK2W1OmChS7-213" vertex="1">
          <mxGeometry x="225" width="15" height="12" as="geometry">
            <mxRectangle width="15" height="12" as="alternateBounds" />
          </mxGeometry>
        </mxCell>
        <mxCell id="p4HpwbEPAxK2W1OmChS7-230" value="" style="shape=partialRectangle;html=1;whiteSpace=wrap;connectable=0;strokeColor=inherit;overflow=hidden;fillColor=none;top=0;left=0;bottom=0;right=0;pointerEvents=1;" parent="p4HpwbEPAxK2W1OmChS7-213" vertex="1">
          <mxGeometry x="240" width="15" height="12" as="geometry">
            <mxRectangle width="15" height="12" as="alternateBounds" />
          </mxGeometry>
        </mxCell>
        <mxCell id="p4HpwbEPAxK2W1OmChS7-231" value="" style="shape=partialRectangle;html=1;whiteSpace=wrap;connectable=0;strokeColor=inherit;overflow=hidden;fillColor=none;top=0;left=0;bottom=0;right=0;pointerEvents=1;" parent="p4HpwbEPAxK2W1OmChS7-213" vertex="1">
          <mxGeometry x="255" width="15" height="12" as="geometry">
            <mxRectangle width="15" height="12" as="alternateBounds" />
          </mxGeometry>
        </mxCell>
        <mxCell id="p4HpwbEPAxK2W1OmChS7-232" value="" style="shape=partialRectangle;html=1;whiteSpace=wrap;connectable=0;strokeColor=inherit;overflow=hidden;fillColor=none;top=0;left=0;bottom=0;right=0;pointerEvents=1;" parent="p4HpwbEPAxK2W1OmChS7-213" vertex="1">
          <mxGeometry x="270" width="15" height="12" as="geometry">
            <mxRectangle width="15" height="12" as="alternateBounds" />
          </mxGeometry>
        </mxCell>
        <mxCell id="p4HpwbEPAxK2W1OmChS7-233" value="" style="shape=partialRectangle;html=1;whiteSpace=wrap;connectable=0;strokeColor=inherit;overflow=hidden;fillColor=none;top=0;left=0;bottom=0;right=0;pointerEvents=1;" parent="p4HpwbEPAxK2W1OmChS7-213" vertex="1">
          <mxGeometry x="285" width="15" height="12" as="geometry">
            <mxRectangle width="15" height="12" as="alternateBounds" />
          </mxGeometry>
        </mxCell>
        <mxCell id="p4HpwbEPAxK2W1OmChS7-234" value="" style="shape=tableRow;horizontal=0;startSize=0;swimlaneHead=0;swimlaneBody=0;strokeColor=inherit;top=0;left=0;bottom=0;right=0;collapsible=0;dropTarget=0;fillColor=none;points=[[0,0.5],[1,0.5]];portConstraint=eastwest;" parent="p4HpwbEPAxK2W1OmChS7-2" vertex="1">
          <mxGeometry y="127" width="300" height="11" as="geometry" />
        </mxCell>
        <mxCell id="p4HpwbEPAxK2W1OmChS7-235" value="" style="shape=partialRectangle;html=1;whiteSpace=wrap;connectable=0;strokeColor=inherit;overflow=hidden;fillColor=none;top=0;left=0;bottom=0;right=0;pointerEvents=1;" parent="p4HpwbEPAxK2W1OmChS7-234" vertex="1">
          <mxGeometry width="15" height="11" as="geometry">
            <mxRectangle width="15" height="11" as="alternateBounds" />
          </mxGeometry>
        </mxCell>
        <mxCell id="p4HpwbEPAxK2W1OmChS7-236" value="" style="shape=partialRectangle;html=1;whiteSpace=wrap;connectable=0;strokeColor=inherit;overflow=hidden;fillColor=none;top=0;left=0;bottom=0;right=0;pointerEvents=1;" parent="p4HpwbEPAxK2W1OmChS7-234" vertex="1">
          <mxGeometry x="15" width="15" height="11" as="geometry">
            <mxRectangle width="15" height="11" as="alternateBounds" />
          </mxGeometry>
        </mxCell>
        <mxCell id="p4HpwbEPAxK2W1OmChS7-237" value="" style="shape=partialRectangle;html=1;whiteSpace=wrap;connectable=0;strokeColor=inherit;overflow=hidden;fillColor=none;top=0;left=0;bottom=0;right=0;pointerEvents=1;" parent="p4HpwbEPAxK2W1OmChS7-234" vertex="1">
          <mxGeometry x="30" width="15" height="11" as="geometry">
            <mxRectangle width="15" height="11" as="alternateBounds" />
          </mxGeometry>
        </mxCell>
        <mxCell id="p4HpwbEPAxK2W1OmChS7-238" value="" style="shape=partialRectangle;html=1;whiteSpace=wrap;connectable=0;strokeColor=inherit;overflow=hidden;fillColor=none;top=0;left=0;bottom=0;right=0;pointerEvents=1;" parent="p4HpwbEPAxK2W1OmChS7-234" vertex="1">
          <mxGeometry x="45" width="15" height="11" as="geometry">
            <mxRectangle width="15" height="11" as="alternateBounds" />
          </mxGeometry>
        </mxCell>
        <mxCell id="p4HpwbEPAxK2W1OmChS7-239" value="" style="shape=partialRectangle;html=1;whiteSpace=wrap;connectable=0;strokeColor=inherit;overflow=hidden;fillColor=none;top=0;left=0;bottom=0;right=0;pointerEvents=1;" parent="p4HpwbEPAxK2W1OmChS7-234" vertex="1">
          <mxGeometry x="60" width="15" height="11" as="geometry">
            <mxRectangle width="15" height="11" as="alternateBounds" />
          </mxGeometry>
        </mxCell>
        <mxCell id="p4HpwbEPAxK2W1OmChS7-240" value="" style="shape=partialRectangle;html=1;whiteSpace=wrap;connectable=0;strokeColor=inherit;overflow=hidden;fillColor=none;top=0;left=0;bottom=0;right=0;pointerEvents=1;" parent="p4HpwbEPAxK2W1OmChS7-234" vertex="1">
          <mxGeometry x="75" width="15" height="11" as="geometry">
            <mxRectangle width="15" height="11" as="alternateBounds" />
          </mxGeometry>
        </mxCell>
        <mxCell id="p4HpwbEPAxK2W1OmChS7-241" value="" style="shape=partialRectangle;html=1;whiteSpace=wrap;connectable=0;strokeColor=inherit;overflow=hidden;fillColor=none;top=0;left=0;bottom=0;right=0;pointerEvents=1;" parent="p4HpwbEPAxK2W1OmChS7-234" vertex="1">
          <mxGeometry x="90" width="15" height="11" as="geometry">
            <mxRectangle width="15" height="11" as="alternateBounds" />
          </mxGeometry>
        </mxCell>
        <mxCell id="p4HpwbEPAxK2W1OmChS7-242" value="" style="shape=partialRectangle;html=1;whiteSpace=wrap;connectable=0;strokeColor=inherit;overflow=hidden;fillColor=none;top=0;left=0;bottom=0;right=0;pointerEvents=1;" parent="p4HpwbEPAxK2W1OmChS7-234" vertex="1">
          <mxGeometry x="105" width="15" height="11" as="geometry">
            <mxRectangle width="15" height="11" as="alternateBounds" />
          </mxGeometry>
        </mxCell>
        <mxCell id="p4HpwbEPAxK2W1OmChS7-243" value="" style="shape=partialRectangle;html=1;whiteSpace=wrap;connectable=0;strokeColor=inherit;overflow=hidden;fillColor=none;top=0;left=0;bottom=0;right=0;pointerEvents=1;" parent="p4HpwbEPAxK2W1OmChS7-234" vertex="1">
          <mxGeometry x="120" width="15" height="11" as="geometry">
            <mxRectangle width="15" height="11" as="alternateBounds" />
          </mxGeometry>
        </mxCell>
        <mxCell id="p4HpwbEPAxK2W1OmChS7-244" value="" style="shape=partialRectangle;html=1;whiteSpace=wrap;connectable=0;strokeColor=inherit;overflow=hidden;fillColor=none;top=0;left=0;bottom=0;right=0;pointerEvents=1;" parent="p4HpwbEPAxK2W1OmChS7-234" vertex="1">
          <mxGeometry x="135" width="15" height="11" as="geometry">
            <mxRectangle width="15" height="11" as="alternateBounds" />
          </mxGeometry>
        </mxCell>
        <mxCell id="p4HpwbEPAxK2W1OmChS7-245" value="" style="shape=partialRectangle;html=1;whiteSpace=wrap;connectable=0;strokeColor=inherit;overflow=hidden;fillColor=none;top=0;left=0;bottom=0;right=0;pointerEvents=1;" parent="p4HpwbEPAxK2W1OmChS7-234" vertex="1">
          <mxGeometry x="150" width="15" height="11" as="geometry">
            <mxRectangle width="15" height="11" as="alternateBounds" />
          </mxGeometry>
        </mxCell>
        <mxCell id="p4HpwbEPAxK2W1OmChS7-246" value="" style="shape=partialRectangle;html=1;whiteSpace=wrap;connectable=0;strokeColor=inherit;overflow=hidden;fillColor=none;top=0;left=0;bottom=0;right=0;pointerEvents=1;" parent="p4HpwbEPAxK2W1OmChS7-234" vertex="1">
          <mxGeometry x="165" width="15" height="11" as="geometry">
            <mxRectangle width="15" height="11" as="alternateBounds" />
          </mxGeometry>
        </mxCell>
        <mxCell id="p4HpwbEPAxK2W1OmChS7-247" value="" style="shape=partialRectangle;html=1;whiteSpace=wrap;connectable=0;strokeColor=inherit;overflow=hidden;fillColor=none;top=0;left=0;bottom=0;right=0;pointerEvents=1;" parent="p4HpwbEPAxK2W1OmChS7-234" vertex="1">
          <mxGeometry x="180" width="15" height="11" as="geometry">
            <mxRectangle width="15" height="11" as="alternateBounds" />
          </mxGeometry>
        </mxCell>
        <mxCell id="p4HpwbEPAxK2W1OmChS7-248" value="" style="shape=partialRectangle;html=1;whiteSpace=wrap;connectable=0;strokeColor=inherit;overflow=hidden;fillColor=none;top=0;left=0;bottom=0;right=0;pointerEvents=1;" parent="p4HpwbEPAxK2W1OmChS7-234" vertex="1">
          <mxGeometry x="195" width="15" height="11" as="geometry">
            <mxRectangle width="15" height="11" as="alternateBounds" />
          </mxGeometry>
        </mxCell>
        <mxCell id="p4HpwbEPAxK2W1OmChS7-249" value="" style="shape=partialRectangle;html=1;whiteSpace=wrap;connectable=0;strokeColor=inherit;overflow=hidden;fillColor=none;top=0;left=0;bottom=0;right=0;pointerEvents=1;" parent="p4HpwbEPAxK2W1OmChS7-234" vertex="1">
          <mxGeometry x="210" width="15" height="11" as="geometry">
            <mxRectangle width="15" height="11" as="alternateBounds" />
          </mxGeometry>
        </mxCell>
        <mxCell id="p4HpwbEPAxK2W1OmChS7-250" value="" style="shape=partialRectangle;html=1;whiteSpace=wrap;connectable=0;strokeColor=inherit;overflow=hidden;fillColor=none;top=0;left=0;bottom=0;right=0;pointerEvents=1;" parent="p4HpwbEPAxK2W1OmChS7-234" vertex="1">
          <mxGeometry x="225" width="15" height="11" as="geometry">
            <mxRectangle width="15" height="11" as="alternateBounds" />
          </mxGeometry>
        </mxCell>
        <mxCell id="p4HpwbEPAxK2W1OmChS7-251" value="" style="shape=partialRectangle;html=1;whiteSpace=wrap;connectable=0;strokeColor=inherit;overflow=hidden;fillColor=none;top=0;left=0;bottom=0;right=0;pointerEvents=1;" parent="p4HpwbEPAxK2W1OmChS7-234" vertex="1">
          <mxGeometry x="240" width="15" height="11" as="geometry">
            <mxRectangle width="15" height="11" as="alternateBounds" />
          </mxGeometry>
        </mxCell>
        <mxCell id="p4HpwbEPAxK2W1OmChS7-252" value="" style="shape=partialRectangle;html=1;whiteSpace=wrap;connectable=0;strokeColor=inherit;overflow=hidden;fillColor=none;top=0;left=0;bottom=0;right=0;pointerEvents=1;" parent="p4HpwbEPAxK2W1OmChS7-234" vertex="1">
          <mxGeometry x="255" width="15" height="11" as="geometry">
            <mxRectangle width="15" height="11" as="alternateBounds" />
          </mxGeometry>
        </mxCell>
        <mxCell id="p4HpwbEPAxK2W1OmChS7-253" value="" style="shape=partialRectangle;html=1;whiteSpace=wrap;connectable=0;strokeColor=inherit;overflow=hidden;fillColor=none;top=0;left=0;bottom=0;right=0;pointerEvents=1;" parent="p4HpwbEPAxK2W1OmChS7-234" vertex="1">
          <mxGeometry x="270" width="15" height="11" as="geometry">
            <mxRectangle width="15" height="11" as="alternateBounds" />
          </mxGeometry>
        </mxCell>
        <mxCell id="p4HpwbEPAxK2W1OmChS7-254" value="" style="shape=partialRectangle;html=1;whiteSpace=wrap;connectable=0;strokeColor=inherit;overflow=hidden;fillColor=none;top=0;left=0;bottom=0;right=0;pointerEvents=1;" parent="p4HpwbEPAxK2W1OmChS7-234" vertex="1">
          <mxGeometry x="285" width="15" height="11" as="geometry">
            <mxRectangle width="15" height="11" as="alternateBounds" />
          </mxGeometry>
        </mxCell>
        <mxCell id="p4HpwbEPAxK2W1OmChS7-255" value="" style="shape=tableRow;horizontal=0;startSize=0;swimlaneHead=0;swimlaneBody=0;strokeColor=inherit;top=0;left=0;bottom=0;right=0;collapsible=0;dropTarget=0;fillColor=none;points=[[0,0.5],[1,0.5]];portConstraint=eastwest;" parent="p4HpwbEPAxK2W1OmChS7-2" vertex="1">
          <mxGeometry y="138" width="300" height="12" as="geometry" />
        </mxCell>
        <mxCell id="p4HpwbEPAxK2W1OmChS7-256" value="" style="shape=partialRectangle;html=1;whiteSpace=wrap;connectable=0;strokeColor=inherit;overflow=hidden;fillColor=none;top=0;left=0;bottom=0;right=0;pointerEvents=1;" parent="p4HpwbEPAxK2W1OmChS7-255" vertex="1">
          <mxGeometry width="15" height="12" as="geometry">
            <mxRectangle width="15" height="12" as="alternateBounds" />
          </mxGeometry>
        </mxCell>
        <mxCell id="p4HpwbEPAxK2W1OmChS7-257" value="" style="shape=partialRectangle;html=1;whiteSpace=wrap;connectable=0;strokeColor=inherit;overflow=hidden;fillColor=none;top=0;left=0;bottom=0;right=0;pointerEvents=1;" parent="p4HpwbEPAxK2W1OmChS7-255" vertex="1">
          <mxGeometry x="15" width="15" height="12" as="geometry">
            <mxRectangle width="15" height="12" as="alternateBounds" />
          </mxGeometry>
        </mxCell>
        <mxCell id="p4HpwbEPAxK2W1OmChS7-258" value="" style="shape=partialRectangle;html=1;whiteSpace=wrap;connectable=0;strokeColor=inherit;overflow=hidden;fillColor=none;top=0;left=0;bottom=0;right=0;pointerEvents=1;" parent="p4HpwbEPAxK2W1OmChS7-255" vertex="1">
          <mxGeometry x="30" width="15" height="12" as="geometry">
            <mxRectangle width="15" height="12" as="alternateBounds" />
          </mxGeometry>
        </mxCell>
        <mxCell id="p4HpwbEPAxK2W1OmChS7-259" value="" style="shape=partialRectangle;html=1;whiteSpace=wrap;connectable=0;strokeColor=inherit;overflow=hidden;fillColor=none;top=0;left=0;bottom=0;right=0;pointerEvents=1;" parent="p4HpwbEPAxK2W1OmChS7-255" vertex="1">
          <mxGeometry x="45" width="15" height="12" as="geometry">
            <mxRectangle width="15" height="12" as="alternateBounds" />
          </mxGeometry>
        </mxCell>
        <mxCell id="p4HpwbEPAxK2W1OmChS7-260" value="" style="shape=partialRectangle;html=1;whiteSpace=wrap;connectable=0;strokeColor=inherit;overflow=hidden;fillColor=none;top=0;left=0;bottom=0;right=0;pointerEvents=1;" parent="p4HpwbEPAxK2W1OmChS7-255" vertex="1">
          <mxGeometry x="60" width="15" height="12" as="geometry">
            <mxRectangle width="15" height="12" as="alternateBounds" />
          </mxGeometry>
        </mxCell>
        <mxCell id="p4HpwbEPAxK2W1OmChS7-261" value="" style="shape=partialRectangle;html=1;whiteSpace=wrap;connectable=0;strokeColor=inherit;overflow=hidden;fillColor=none;top=0;left=0;bottom=0;right=0;pointerEvents=1;" parent="p4HpwbEPAxK2W1OmChS7-255" vertex="1">
          <mxGeometry x="75" width="15" height="12" as="geometry">
            <mxRectangle width="15" height="12" as="alternateBounds" />
          </mxGeometry>
        </mxCell>
        <mxCell id="p4HpwbEPAxK2W1OmChS7-262" value="" style="shape=partialRectangle;html=1;whiteSpace=wrap;connectable=0;strokeColor=inherit;overflow=hidden;fillColor=none;top=0;left=0;bottom=0;right=0;pointerEvents=1;" parent="p4HpwbEPAxK2W1OmChS7-255" vertex="1">
          <mxGeometry x="90" width="15" height="12" as="geometry">
            <mxRectangle width="15" height="12" as="alternateBounds" />
          </mxGeometry>
        </mxCell>
        <mxCell id="p4HpwbEPAxK2W1OmChS7-263" value="" style="shape=partialRectangle;html=1;whiteSpace=wrap;connectable=0;strokeColor=inherit;overflow=hidden;fillColor=none;top=0;left=0;bottom=0;right=0;pointerEvents=1;" parent="p4HpwbEPAxK2W1OmChS7-255" vertex="1">
          <mxGeometry x="105" width="15" height="12" as="geometry">
            <mxRectangle width="15" height="12" as="alternateBounds" />
          </mxGeometry>
        </mxCell>
        <mxCell id="p4HpwbEPAxK2W1OmChS7-264" value="" style="shape=partialRectangle;html=1;whiteSpace=wrap;connectable=0;strokeColor=inherit;overflow=hidden;fillColor=none;top=0;left=0;bottom=0;right=0;pointerEvents=1;" parent="p4HpwbEPAxK2W1OmChS7-255" vertex="1">
          <mxGeometry x="120" width="15" height="12" as="geometry">
            <mxRectangle width="15" height="12" as="alternateBounds" />
          </mxGeometry>
        </mxCell>
        <mxCell id="p4HpwbEPAxK2W1OmChS7-265" value="" style="shape=partialRectangle;html=1;whiteSpace=wrap;connectable=0;strokeColor=inherit;overflow=hidden;fillColor=none;top=0;left=0;bottom=0;right=0;pointerEvents=1;" parent="p4HpwbEPAxK2W1OmChS7-255" vertex="1">
          <mxGeometry x="135" width="15" height="12" as="geometry">
            <mxRectangle width="15" height="12" as="alternateBounds" />
          </mxGeometry>
        </mxCell>
        <mxCell id="p4HpwbEPAxK2W1OmChS7-266" value="" style="shape=partialRectangle;html=1;whiteSpace=wrap;connectable=0;strokeColor=inherit;overflow=hidden;fillColor=none;top=0;left=0;bottom=0;right=0;pointerEvents=1;" parent="p4HpwbEPAxK2W1OmChS7-255" vertex="1">
          <mxGeometry x="150" width="15" height="12" as="geometry">
            <mxRectangle width="15" height="12" as="alternateBounds" />
          </mxGeometry>
        </mxCell>
        <mxCell id="p4HpwbEPAxK2W1OmChS7-267" value="" style="shape=partialRectangle;html=1;whiteSpace=wrap;connectable=0;strokeColor=inherit;overflow=hidden;fillColor=none;top=0;left=0;bottom=0;right=0;pointerEvents=1;" parent="p4HpwbEPAxK2W1OmChS7-255" vertex="1">
          <mxGeometry x="165" width="15" height="12" as="geometry">
            <mxRectangle width="15" height="12" as="alternateBounds" />
          </mxGeometry>
        </mxCell>
        <mxCell id="p4HpwbEPAxK2W1OmChS7-268" value="" style="shape=partialRectangle;html=1;whiteSpace=wrap;connectable=0;strokeColor=inherit;overflow=hidden;fillColor=none;top=0;left=0;bottom=0;right=0;pointerEvents=1;" parent="p4HpwbEPAxK2W1OmChS7-255" vertex="1">
          <mxGeometry x="180" width="15" height="12" as="geometry">
            <mxRectangle width="15" height="12" as="alternateBounds" />
          </mxGeometry>
        </mxCell>
        <mxCell id="p4HpwbEPAxK2W1OmChS7-269" value="" style="shape=partialRectangle;html=1;whiteSpace=wrap;connectable=0;strokeColor=inherit;overflow=hidden;fillColor=none;top=0;left=0;bottom=0;right=0;pointerEvents=1;" parent="p4HpwbEPAxK2W1OmChS7-255" vertex="1">
          <mxGeometry x="195" width="15" height="12" as="geometry">
            <mxRectangle width="15" height="12" as="alternateBounds" />
          </mxGeometry>
        </mxCell>
        <mxCell id="p4HpwbEPAxK2W1OmChS7-270" value="" style="shape=partialRectangle;html=1;whiteSpace=wrap;connectable=0;strokeColor=inherit;overflow=hidden;fillColor=none;top=0;left=0;bottom=0;right=0;pointerEvents=1;" parent="p4HpwbEPAxK2W1OmChS7-255" vertex="1">
          <mxGeometry x="210" width="15" height="12" as="geometry">
            <mxRectangle width="15" height="12" as="alternateBounds" />
          </mxGeometry>
        </mxCell>
        <mxCell id="p4HpwbEPAxK2W1OmChS7-271" value="" style="shape=partialRectangle;html=1;whiteSpace=wrap;connectable=0;strokeColor=inherit;overflow=hidden;fillColor=none;top=0;left=0;bottom=0;right=0;pointerEvents=1;" parent="p4HpwbEPAxK2W1OmChS7-255" vertex="1">
          <mxGeometry x="225" width="15" height="12" as="geometry">
            <mxRectangle width="15" height="12" as="alternateBounds" />
          </mxGeometry>
        </mxCell>
        <mxCell id="p4HpwbEPAxK2W1OmChS7-272" value="" style="shape=partialRectangle;html=1;whiteSpace=wrap;connectable=0;strokeColor=inherit;overflow=hidden;fillColor=none;top=0;left=0;bottom=0;right=0;pointerEvents=1;" parent="p4HpwbEPAxK2W1OmChS7-255" vertex="1">
          <mxGeometry x="240" width="15" height="12" as="geometry">
            <mxRectangle width="15" height="12" as="alternateBounds" />
          </mxGeometry>
        </mxCell>
        <mxCell id="p4HpwbEPAxK2W1OmChS7-273" value="" style="shape=partialRectangle;html=1;whiteSpace=wrap;connectable=0;strokeColor=inherit;overflow=hidden;fillColor=none;top=0;left=0;bottom=0;right=0;pointerEvents=1;" parent="p4HpwbEPAxK2W1OmChS7-255" vertex="1">
          <mxGeometry x="255" width="15" height="12" as="geometry">
            <mxRectangle width="15" height="12" as="alternateBounds" />
          </mxGeometry>
        </mxCell>
        <mxCell id="p4HpwbEPAxK2W1OmChS7-274" value="" style="shape=partialRectangle;html=1;whiteSpace=wrap;connectable=0;strokeColor=inherit;overflow=hidden;fillColor=none;top=0;left=0;bottom=0;right=0;pointerEvents=1;" parent="p4HpwbEPAxK2W1OmChS7-255" vertex="1">
          <mxGeometry x="270" width="15" height="12" as="geometry">
            <mxRectangle width="15" height="12" as="alternateBounds" />
          </mxGeometry>
        </mxCell>
        <mxCell id="p4HpwbEPAxK2W1OmChS7-275" value="" style="shape=partialRectangle;html=1;whiteSpace=wrap;connectable=0;strokeColor=inherit;overflow=hidden;fillColor=none;top=0;left=0;bottom=0;right=0;pointerEvents=1;" parent="p4HpwbEPAxK2W1OmChS7-255" vertex="1">
          <mxGeometry x="285" width="15" height="12" as="geometry">
            <mxRectangle width="15" height="12" as="alternateBounds" />
          </mxGeometry>
        </mxCell>
        <mxCell id="p4HpwbEPAxK2W1OmChS7-276" value="Fram buffer is to Big for Basys3" style="text;html=1;align=center;verticalAlign=middle;whiteSpace=wrap;rounded=0;" parent="1" vertex="1">
          <mxGeometry x="10" y="160" width="180" height="30" as="geometry" />
        </mxCell>
        <mxCell id="p4HpwbEPAxK2W1OmChS7-277" value="" style="shape=flexArrow;endArrow=classic;html=1;rounded=0;" parent="1" edge="1">
          <mxGeometry width="50" height="50" relative="1" as="geometry">
            <mxPoint x="330" y="84.71000000000001" as="sourcePoint" />
            <mxPoint x="410" y="84.71000000000001" as="targetPoint" />
          </mxGeometry>
        </mxCell>
        <mxCell id="p4HpwbEPAxK2W1OmChS7-278" value="" style="shape=table;startSize=0;container=1;collapsible=0;childLayout=tableLayout;" parent="1" vertex="1">
          <mxGeometry x="420" y="80" width="290" height="10" as="geometry" />
        </mxCell>
        <mxCell id="p4HpwbEPAxK2W1OmChS7-279" value="" style="shape=tableRow;horizontal=0;startSize=0;swimlaneHead=0;swimlaneBody=0;strokeColor=inherit;top=0;left=0;bottom=0;right=0;collapsible=0;dropTarget=0;fillColor=none;points=[[0,0.5],[1,0.5]];portConstraint=eastwest;" parent="p4HpwbEPAxK2W1OmChS7-278" vertex="1">
          <mxGeometry width="290" height="10" as="geometry" />
        </mxCell>
        <mxCell id="p4HpwbEPAxK2W1OmChS7-280" value="" style="shape=partialRectangle;html=1;whiteSpace=wrap;connectable=0;strokeColor=inherit;overflow=hidden;fillColor=none;top=0;left=0;bottom=0;right=0;pointerEvents=1;" parent="p4HpwbEPAxK2W1OmChS7-279" vertex="1">
          <mxGeometry width="15" height="10" as="geometry">
            <mxRectangle width="15" height="10" as="alternateBounds" />
          </mxGeometry>
        </mxCell>
        <mxCell id="p4HpwbEPAxK2W1OmChS7-281" value="" style="shape=partialRectangle;html=1;whiteSpace=wrap;connectable=0;strokeColor=inherit;overflow=hidden;fillColor=none;top=0;left=0;bottom=0;right=0;pointerEvents=1;" parent="p4HpwbEPAxK2W1OmChS7-279" vertex="1">
          <mxGeometry x="15" width="14" height="10" as="geometry">
            <mxRectangle width="14" height="10" as="alternateBounds" />
          </mxGeometry>
        </mxCell>
        <mxCell id="p4HpwbEPAxK2W1OmChS7-282" value="" style="shape=partialRectangle;html=1;whiteSpace=wrap;connectable=0;strokeColor=inherit;overflow=hidden;fillColor=none;top=0;left=0;bottom=0;right=0;pointerEvents=1;" parent="p4HpwbEPAxK2W1OmChS7-279" vertex="1">
          <mxGeometry x="29" width="15" height="10" as="geometry">
            <mxRectangle width="15" height="10" as="alternateBounds" />
          </mxGeometry>
        </mxCell>
        <mxCell id="p4HpwbEPAxK2W1OmChS7-283" value="" style="shape=partialRectangle;html=1;whiteSpace=wrap;connectable=0;strokeColor=inherit;overflow=hidden;fillColor=none;top=0;left=0;bottom=0;right=0;pointerEvents=1;" parent="p4HpwbEPAxK2W1OmChS7-279" vertex="1">
          <mxGeometry x="44" width="14" height="10" as="geometry">
            <mxRectangle width="14" height="10" as="alternateBounds" />
          </mxGeometry>
        </mxCell>
        <mxCell id="p4HpwbEPAxK2W1OmChS7-284" value="" style="shape=partialRectangle;html=1;whiteSpace=wrap;connectable=0;strokeColor=inherit;overflow=hidden;fillColor=none;top=0;left=0;bottom=0;right=0;pointerEvents=1;" parent="p4HpwbEPAxK2W1OmChS7-279" vertex="1">
          <mxGeometry x="58" width="15" height="10" as="geometry">
            <mxRectangle width="15" height="10" as="alternateBounds" />
          </mxGeometry>
        </mxCell>
        <mxCell id="p4HpwbEPAxK2W1OmChS7-285" value="" style="shape=partialRectangle;html=1;whiteSpace=wrap;connectable=0;strokeColor=inherit;overflow=hidden;fillColor=none;top=0;left=0;bottom=0;right=0;pointerEvents=1;" parent="p4HpwbEPAxK2W1OmChS7-279" vertex="1">
          <mxGeometry x="73" width="14" height="10" as="geometry">
            <mxRectangle width="14" height="10" as="alternateBounds" />
          </mxGeometry>
        </mxCell>
        <mxCell id="p4HpwbEPAxK2W1OmChS7-286" value="" style="shape=partialRectangle;html=1;whiteSpace=wrap;connectable=0;strokeColor=inherit;overflow=hidden;fillColor=none;top=0;left=0;bottom=0;right=0;pointerEvents=1;" parent="p4HpwbEPAxK2W1OmChS7-279" vertex="1">
          <mxGeometry x="87" width="15" height="10" as="geometry">
            <mxRectangle width="15" height="10" as="alternateBounds" />
          </mxGeometry>
        </mxCell>
        <mxCell id="p4HpwbEPAxK2W1OmChS7-287" value="" style="shape=partialRectangle;html=1;whiteSpace=wrap;connectable=0;strokeColor=inherit;overflow=hidden;fillColor=none;top=0;left=0;bottom=0;right=0;pointerEvents=1;" parent="p4HpwbEPAxK2W1OmChS7-279" vertex="1">
          <mxGeometry x="102" width="14" height="10" as="geometry">
            <mxRectangle width="14" height="10" as="alternateBounds" />
          </mxGeometry>
        </mxCell>
        <mxCell id="p4HpwbEPAxK2W1OmChS7-288" value="" style="shape=partialRectangle;html=1;whiteSpace=wrap;connectable=0;strokeColor=inherit;overflow=hidden;fillColor=none;top=0;left=0;bottom=0;right=0;pointerEvents=1;" parent="p4HpwbEPAxK2W1OmChS7-279" vertex="1">
          <mxGeometry x="116" width="15" height="10" as="geometry">
            <mxRectangle width="15" height="10" as="alternateBounds" />
          </mxGeometry>
        </mxCell>
        <mxCell id="p4HpwbEPAxK2W1OmChS7-289" value="" style="shape=partialRectangle;html=1;whiteSpace=wrap;connectable=0;strokeColor=inherit;overflow=hidden;fillColor=none;top=0;left=0;bottom=0;right=0;pointerEvents=1;" parent="p4HpwbEPAxK2W1OmChS7-279" vertex="1">
          <mxGeometry x="131" width="14" height="10" as="geometry">
            <mxRectangle width="14" height="10" as="alternateBounds" />
          </mxGeometry>
        </mxCell>
        <mxCell id="p4HpwbEPAxK2W1OmChS7-290" value="" style="shape=partialRectangle;html=1;whiteSpace=wrap;connectable=0;strokeColor=inherit;overflow=hidden;fillColor=none;top=0;left=0;bottom=0;right=0;pointerEvents=1;" parent="p4HpwbEPAxK2W1OmChS7-279" vertex="1">
          <mxGeometry x="145" width="15" height="10" as="geometry">
            <mxRectangle width="15" height="10" as="alternateBounds" />
          </mxGeometry>
        </mxCell>
        <mxCell id="p4HpwbEPAxK2W1OmChS7-291" value="" style="shape=partialRectangle;html=1;whiteSpace=wrap;connectable=0;strokeColor=inherit;overflow=hidden;fillColor=none;top=0;left=0;bottom=0;right=0;pointerEvents=1;" parent="p4HpwbEPAxK2W1OmChS7-279" vertex="1">
          <mxGeometry x="160" width="14" height="10" as="geometry">
            <mxRectangle width="14" height="10" as="alternateBounds" />
          </mxGeometry>
        </mxCell>
        <mxCell id="p4HpwbEPAxK2W1OmChS7-292" value="" style="shape=partialRectangle;html=1;whiteSpace=wrap;connectable=0;strokeColor=inherit;overflow=hidden;fillColor=none;top=0;left=0;bottom=0;right=0;pointerEvents=1;" parent="p4HpwbEPAxK2W1OmChS7-279" vertex="1">
          <mxGeometry x="174" width="15" height="10" as="geometry">
            <mxRectangle width="15" height="10" as="alternateBounds" />
          </mxGeometry>
        </mxCell>
        <mxCell id="p4HpwbEPAxK2W1OmChS7-293" value="" style="shape=partialRectangle;html=1;whiteSpace=wrap;connectable=0;strokeColor=inherit;overflow=hidden;fillColor=none;top=0;left=0;bottom=0;right=0;pointerEvents=1;" parent="p4HpwbEPAxK2W1OmChS7-279" vertex="1">
          <mxGeometry x="189" width="14" height="10" as="geometry">
            <mxRectangle width="14" height="10" as="alternateBounds" />
          </mxGeometry>
        </mxCell>
        <mxCell id="p4HpwbEPAxK2W1OmChS7-294" value="" style="shape=partialRectangle;html=1;whiteSpace=wrap;connectable=0;strokeColor=inherit;overflow=hidden;fillColor=none;top=0;left=0;bottom=0;right=0;pointerEvents=1;" parent="p4HpwbEPAxK2W1OmChS7-279" vertex="1">
          <mxGeometry x="203" width="15" height="10" as="geometry">
            <mxRectangle width="15" height="10" as="alternateBounds" />
          </mxGeometry>
        </mxCell>
        <mxCell id="p4HpwbEPAxK2W1OmChS7-295" value="" style="shape=partialRectangle;html=1;whiteSpace=wrap;connectable=0;strokeColor=inherit;overflow=hidden;fillColor=none;top=0;left=0;bottom=0;right=0;pointerEvents=1;" parent="p4HpwbEPAxK2W1OmChS7-279" vertex="1">
          <mxGeometry x="218" width="14" height="10" as="geometry">
            <mxRectangle width="14" height="10" as="alternateBounds" />
          </mxGeometry>
        </mxCell>
        <mxCell id="p4HpwbEPAxK2W1OmChS7-296" value="" style="shape=partialRectangle;html=1;whiteSpace=wrap;connectable=0;strokeColor=inherit;overflow=hidden;fillColor=none;top=0;left=0;bottom=0;right=0;pointerEvents=1;" parent="p4HpwbEPAxK2W1OmChS7-279" vertex="1">
          <mxGeometry x="232" width="15" height="10" as="geometry">
            <mxRectangle width="15" height="10" as="alternateBounds" />
          </mxGeometry>
        </mxCell>
        <mxCell id="p4HpwbEPAxK2W1OmChS7-297" value="" style="shape=partialRectangle;html=1;whiteSpace=wrap;connectable=0;strokeColor=inherit;overflow=hidden;fillColor=none;top=0;left=0;bottom=0;right=0;pointerEvents=1;" parent="p4HpwbEPAxK2W1OmChS7-279" vertex="1">
          <mxGeometry x="247" width="14" height="10" as="geometry">
            <mxRectangle width="14" height="10" as="alternateBounds" />
          </mxGeometry>
        </mxCell>
        <mxCell id="p4HpwbEPAxK2W1OmChS7-298" value="" style="shape=partialRectangle;html=1;whiteSpace=wrap;connectable=0;strokeColor=inherit;overflow=hidden;fillColor=none;top=0;left=0;bottom=0;right=0;pointerEvents=1;" parent="p4HpwbEPAxK2W1OmChS7-279" vertex="1">
          <mxGeometry x="261" width="15" height="10" as="geometry">
            <mxRectangle width="15" height="10" as="alternateBounds" />
          </mxGeometry>
        </mxCell>
        <mxCell id="p4HpwbEPAxK2W1OmChS7-299" value="" style="shape=partialRectangle;html=1;whiteSpace=wrap;connectable=0;strokeColor=inherit;overflow=hidden;fillColor=none;top=0;left=0;bottom=0;right=0;pointerEvents=1;" parent="p4HpwbEPAxK2W1OmChS7-279" vertex="1">
          <mxGeometry x="276" width="14" height="10" as="geometry">
            <mxRectangle width="14" height="10" as="alternateBounds" />
          </mxGeometry>
        </mxCell>
        <mxCell id="p4HpwbEPAxK2W1OmChS7-300" value="We Use Line buffer" style="text;html=1;align=center;verticalAlign=middle;whiteSpace=wrap;rounded=0;" parent="1" vertex="1">
          <mxGeometry x="420" y="90" width="110" height="20" as="geometry" />
        </mxCell>
        <mxCell id="p4HpwbEPAxK2W1OmChS7-324" style="edgeStyle=orthogonalEdgeStyle;rounded=0;orthogonalLoop=1;jettySize=auto;html=1;entryX=0;entryY=0.5;entryDx=0;entryDy=0;" parent="1" source="p4HpwbEPAxK2W1OmChS7-301" target="p4HpwbEPAxK2W1OmChS7-323" edge="1">
          <mxGeometry relative="1" as="geometry" />
        </mxCell>
        <mxCell id="p4HpwbEPAxK2W1OmChS7-301" value="" style="shape=table;startSize=0;container=1;collapsible=0;childLayout=tableLayout;" parent="1" vertex="1">
          <mxGeometry x="10" y="260" width="290" height="10" as="geometry" />
        </mxCell>
        <mxCell id="p4HpwbEPAxK2W1OmChS7-302" value="" style="shape=tableRow;horizontal=0;startSize=0;swimlaneHead=0;swimlaneBody=0;strokeColor=inherit;top=0;left=0;bottom=0;right=0;collapsible=0;dropTarget=0;fillColor=none;points=[[0,0.5],[1,0.5]];portConstraint=eastwest;" parent="p4HpwbEPAxK2W1OmChS7-301" vertex="1">
          <mxGeometry width="290" height="10" as="geometry" />
        </mxCell>
        <mxCell id="p4HpwbEPAxK2W1OmChS7-303" value="" style="shape=partialRectangle;html=1;whiteSpace=wrap;connectable=0;strokeColor=inherit;overflow=hidden;fillColor=none;top=0;left=0;bottom=0;right=0;pointerEvents=1;" parent="p4HpwbEPAxK2W1OmChS7-302" vertex="1">
          <mxGeometry width="15" height="10" as="geometry">
            <mxRectangle width="15" height="10" as="alternateBounds" />
          </mxGeometry>
        </mxCell>
        <mxCell id="p4HpwbEPAxK2W1OmChS7-304" value="" style="shape=partialRectangle;html=1;whiteSpace=wrap;connectable=0;strokeColor=inherit;overflow=hidden;fillColor=none;top=0;left=0;bottom=0;right=0;pointerEvents=1;" parent="p4HpwbEPAxK2W1OmChS7-302" vertex="1">
          <mxGeometry x="15" width="14" height="10" as="geometry">
            <mxRectangle width="14" height="10" as="alternateBounds" />
          </mxGeometry>
        </mxCell>
        <mxCell id="p4HpwbEPAxK2W1OmChS7-305" value="" style="shape=partialRectangle;html=1;whiteSpace=wrap;connectable=0;strokeColor=inherit;overflow=hidden;fillColor=none;top=0;left=0;bottom=0;right=0;pointerEvents=1;" parent="p4HpwbEPAxK2W1OmChS7-302" vertex="1">
          <mxGeometry x="29" width="15" height="10" as="geometry">
            <mxRectangle width="15" height="10" as="alternateBounds" />
          </mxGeometry>
        </mxCell>
        <mxCell id="p4HpwbEPAxK2W1OmChS7-306" value="" style="shape=partialRectangle;html=1;whiteSpace=wrap;connectable=0;strokeColor=inherit;overflow=hidden;fillColor=none;top=0;left=0;bottom=0;right=0;pointerEvents=1;" parent="p4HpwbEPAxK2W1OmChS7-302" vertex="1">
          <mxGeometry x="44" width="14" height="10" as="geometry">
            <mxRectangle width="14" height="10" as="alternateBounds" />
          </mxGeometry>
        </mxCell>
        <mxCell id="p4HpwbEPAxK2W1OmChS7-307" value="" style="shape=partialRectangle;html=1;whiteSpace=wrap;connectable=0;strokeColor=inherit;overflow=hidden;fillColor=none;top=0;left=0;bottom=0;right=0;pointerEvents=1;" parent="p4HpwbEPAxK2W1OmChS7-302" vertex="1">
          <mxGeometry x="58" width="15" height="10" as="geometry">
            <mxRectangle width="15" height="10" as="alternateBounds" />
          </mxGeometry>
        </mxCell>
        <mxCell id="p4HpwbEPAxK2W1OmChS7-308" value="" style="shape=partialRectangle;html=1;whiteSpace=wrap;connectable=0;strokeColor=inherit;overflow=hidden;fillColor=none;top=0;left=0;bottom=0;right=0;pointerEvents=1;" parent="p4HpwbEPAxK2W1OmChS7-302" vertex="1">
          <mxGeometry x="73" width="14" height="10" as="geometry">
            <mxRectangle width="14" height="10" as="alternateBounds" />
          </mxGeometry>
        </mxCell>
        <mxCell id="p4HpwbEPAxK2W1OmChS7-309" value="" style="shape=partialRectangle;html=1;whiteSpace=wrap;connectable=0;strokeColor=inherit;overflow=hidden;fillColor=none;top=0;left=0;bottom=0;right=0;pointerEvents=1;" parent="p4HpwbEPAxK2W1OmChS7-302" vertex="1">
          <mxGeometry x="87" width="15" height="10" as="geometry">
            <mxRectangle width="15" height="10" as="alternateBounds" />
          </mxGeometry>
        </mxCell>
        <mxCell id="p4HpwbEPAxK2W1OmChS7-310" value="" style="shape=partialRectangle;html=1;whiteSpace=wrap;connectable=0;strokeColor=inherit;overflow=hidden;fillColor=none;top=0;left=0;bottom=0;right=0;pointerEvents=1;" parent="p4HpwbEPAxK2W1OmChS7-302" vertex="1">
          <mxGeometry x="102" width="14" height="10" as="geometry">
            <mxRectangle width="14" height="10" as="alternateBounds" />
          </mxGeometry>
        </mxCell>
        <mxCell id="p4HpwbEPAxK2W1OmChS7-311" value="" style="shape=partialRectangle;html=1;whiteSpace=wrap;connectable=0;strokeColor=inherit;overflow=hidden;fillColor=none;top=0;left=0;bottom=0;right=0;pointerEvents=1;" parent="p4HpwbEPAxK2W1OmChS7-302" vertex="1">
          <mxGeometry x="116" width="15" height="10" as="geometry">
            <mxRectangle width="15" height="10" as="alternateBounds" />
          </mxGeometry>
        </mxCell>
        <mxCell id="p4HpwbEPAxK2W1OmChS7-312" value="" style="shape=partialRectangle;html=1;whiteSpace=wrap;connectable=0;strokeColor=inherit;overflow=hidden;fillColor=none;top=0;left=0;bottom=0;right=0;pointerEvents=1;" parent="p4HpwbEPAxK2W1OmChS7-302" vertex="1">
          <mxGeometry x="131" width="14" height="10" as="geometry">
            <mxRectangle width="14" height="10" as="alternateBounds" />
          </mxGeometry>
        </mxCell>
        <mxCell id="p4HpwbEPAxK2W1OmChS7-313" value="" style="shape=partialRectangle;html=1;whiteSpace=wrap;connectable=0;strokeColor=inherit;overflow=hidden;fillColor=none;top=0;left=0;bottom=0;right=0;pointerEvents=1;" parent="p4HpwbEPAxK2W1OmChS7-302" vertex="1">
          <mxGeometry x="145" width="15" height="10" as="geometry">
            <mxRectangle width="15" height="10" as="alternateBounds" />
          </mxGeometry>
        </mxCell>
        <mxCell id="p4HpwbEPAxK2W1OmChS7-314" value="" style="shape=partialRectangle;html=1;whiteSpace=wrap;connectable=0;strokeColor=inherit;overflow=hidden;fillColor=none;top=0;left=0;bottom=0;right=0;pointerEvents=1;" parent="p4HpwbEPAxK2W1OmChS7-302" vertex="1">
          <mxGeometry x="160" width="14" height="10" as="geometry">
            <mxRectangle width="14" height="10" as="alternateBounds" />
          </mxGeometry>
        </mxCell>
        <mxCell id="p4HpwbEPAxK2W1OmChS7-315" value="" style="shape=partialRectangle;html=1;whiteSpace=wrap;connectable=0;strokeColor=inherit;overflow=hidden;fillColor=none;top=0;left=0;bottom=0;right=0;pointerEvents=1;" parent="p4HpwbEPAxK2W1OmChS7-302" vertex="1">
          <mxGeometry x="174" width="15" height="10" as="geometry">
            <mxRectangle width="15" height="10" as="alternateBounds" />
          </mxGeometry>
        </mxCell>
        <mxCell id="p4HpwbEPAxK2W1OmChS7-316" value="" style="shape=partialRectangle;html=1;whiteSpace=wrap;connectable=0;strokeColor=inherit;overflow=hidden;fillColor=none;top=0;left=0;bottom=0;right=0;pointerEvents=1;" parent="p4HpwbEPAxK2W1OmChS7-302" vertex="1">
          <mxGeometry x="189" width="14" height="10" as="geometry">
            <mxRectangle width="14" height="10" as="alternateBounds" />
          </mxGeometry>
        </mxCell>
        <mxCell id="p4HpwbEPAxK2W1OmChS7-317" value="" style="shape=partialRectangle;html=1;whiteSpace=wrap;connectable=0;strokeColor=inherit;overflow=hidden;fillColor=none;top=0;left=0;bottom=0;right=0;pointerEvents=1;" parent="p4HpwbEPAxK2W1OmChS7-302" vertex="1">
          <mxGeometry x="203" width="15" height="10" as="geometry">
            <mxRectangle width="15" height="10" as="alternateBounds" />
          </mxGeometry>
        </mxCell>
        <mxCell id="p4HpwbEPAxK2W1OmChS7-318" value="" style="shape=partialRectangle;html=1;whiteSpace=wrap;connectable=0;strokeColor=inherit;overflow=hidden;fillColor=none;top=0;left=0;bottom=0;right=0;pointerEvents=1;" parent="p4HpwbEPAxK2W1OmChS7-302" vertex="1">
          <mxGeometry x="218" width="14" height="10" as="geometry">
            <mxRectangle width="14" height="10" as="alternateBounds" />
          </mxGeometry>
        </mxCell>
        <mxCell id="p4HpwbEPAxK2W1OmChS7-319" value="" style="shape=partialRectangle;html=1;whiteSpace=wrap;connectable=0;strokeColor=inherit;overflow=hidden;fillColor=none;top=0;left=0;bottom=0;right=0;pointerEvents=1;" parent="p4HpwbEPAxK2W1OmChS7-302" vertex="1">
          <mxGeometry x="232" width="15" height="10" as="geometry">
            <mxRectangle width="15" height="10" as="alternateBounds" />
          </mxGeometry>
        </mxCell>
        <mxCell id="p4HpwbEPAxK2W1OmChS7-320" value="" style="shape=partialRectangle;html=1;whiteSpace=wrap;connectable=0;strokeColor=inherit;overflow=hidden;fillColor=none;top=0;left=0;bottom=0;right=0;pointerEvents=1;" parent="p4HpwbEPAxK2W1OmChS7-302" vertex="1">
          <mxGeometry x="247" width="14" height="10" as="geometry">
            <mxRectangle width="14" height="10" as="alternateBounds" />
          </mxGeometry>
        </mxCell>
        <mxCell id="p4HpwbEPAxK2W1OmChS7-321" value="" style="shape=partialRectangle;html=1;whiteSpace=wrap;connectable=0;strokeColor=inherit;overflow=hidden;fillColor=none;top=0;left=0;bottom=0;right=0;pointerEvents=1;" parent="p4HpwbEPAxK2W1OmChS7-302" vertex="1">
          <mxGeometry x="261" width="15" height="10" as="geometry">
            <mxRectangle width="15" height="10" as="alternateBounds" />
          </mxGeometry>
        </mxCell>
        <mxCell id="p4HpwbEPAxK2W1OmChS7-322" value="" style="shape=partialRectangle;html=1;whiteSpace=wrap;connectable=0;strokeColor=inherit;overflow=hidden;fillColor=none;top=0;left=0;bottom=0;right=0;pointerEvents=1;" parent="p4HpwbEPAxK2W1OmChS7-302" vertex="1">
          <mxGeometry x="276" width="14" height="10" as="geometry">
            <mxRectangle width="14" height="10" as="alternateBounds" />
          </mxGeometry>
        </mxCell>
        <mxCell id="p4HpwbEPAxK2W1OmChS7-323" value="&lt;span style=&quot;color: rgb(0, 29, 53); font-family: Arial, sans-serif; font-size: 18px; text-align: start; background-color: rgb(255, 255, 255);&quot;&gt;Image Signal Processor&lt;/span&gt;" style="rounded=0;whiteSpace=wrap;html=1;" parent="1" vertex="1">
          <mxGeometry x="340" y="235" width="120" height="60" as="geometry" />
        </mxCell>
        <mxCell id="p4HpwbEPAxK2W1OmChS7-325" value="line buff" style="text;html=1;align=center;verticalAlign=middle;whiteSpace=wrap;rounded=0;" parent="1" vertex="1">
          <mxGeometry x="10" y="250" width="60" height="10" as="geometry" />
        </mxCell>
        <mxCell id="VW7eisISwE8aw-dvnfA5-1" style="edgeStyle=orthogonalEdgeStyle;rounded=0;orthogonalLoop=1;jettySize=auto;html=1;entryX=0;entryY=0.5;entryDx=0;entryDy=0;" edge="1" source="VW7eisISwE8aw-dvnfA5-2" target="VW7eisISwE8aw-dvnfA5-24" parent="1">
          <mxGeometry relative="1" as="geometry" />
        </mxCell>
        <mxCell id="VW7eisISwE8aw-dvnfA5-24" value="&lt;span style=&quot;color: rgb(0, 29, 53); font-family: Arial, sans-serif; font-size: 18px; text-align: start; background-color: rgb(255, 255, 255);&quot;&gt;convolution&lt;/span&gt;" style="rounded=0;whiteSpace=wrap;html=1;" vertex="1" parent="1">
          <mxGeometry x="340" y="312" width="120" height="60" as="geometry" />
        </mxCell>
        <mxCell id="VW7eisISwE8aw-dvnfA5-70" style="edgeStyle=orthogonalEdgeStyle;rounded=0;orthogonalLoop=1;jettySize=auto;html=1;entryX=0;entryY=0.5;entryDx=0;entryDy=0;" edge="1" parent="1" source="VW7eisISwE8aw-dvnfA5-27" target="VW7eisISwE8aw-dvnfA5-24">
          <mxGeometry relative="1" as="geometry" />
        </mxCell>
        <mxCell id="VW7eisISwE8aw-dvnfA5-71" style="edgeStyle=orthogonalEdgeStyle;rounded=0;orthogonalLoop=1;jettySize=auto;html=1;entryX=0;entryY=0.5;entryDx=0;entryDy=0;" edge="1" parent="1" source="VW7eisISwE8aw-dvnfA5-49" target="VW7eisISwE8aw-dvnfA5-24">
          <mxGeometry relative="1" as="geometry" />
        </mxCell>
        <mxCell id="VW7eisISwE8aw-dvnfA5-72" value="" style="group" vertex="1" connectable="0" parent="1">
          <mxGeometry x="10" y="310" width="290" height="55" as="geometry" />
        </mxCell>
        <mxCell id="VW7eisISwE8aw-dvnfA5-2" value="" style="shape=table;startSize=0;container=1;collapsible=0;childLayout=tableLayout;" vertex="1" parent="VW7eisISwE8aw-dvnfA5-72">
          <mxGeometry y="9" width="290" height="10" as="geometry" />
        </mxCell>
        <mxCell id="VW7eisISwE8aw-dvnfA5-3" value="" style="shape=tableRow;horizontal=0;startSize=0;swimlaneHead=0;swimlaneBody=0;strokeColor=inherit;top=0;left=0;bottom=0;right=0;collapsible=0;dropTarget=0;fillColor=none;points=[[0,0.5],[1,0.5]];portConstraint=eastwest;" vertex="1" parent="VW7eisISwE8aw-dvnfA5-2">
          <mxGeometry width="290" height="10" as="geometry" />
        </mxCell>
        <mxCell id="VW7eisISwE8aw-dvnfA5-4" value="" style="shape=partialRectangle;html=1;whiteSpace=wrap;connectable=0;strokeColor=inherit;overflow=hidden;fillColor=none;top=0;left=0;bottom=0;right=0;pointerEvents=1;" vertex="1" parent="VW7eisISwE8aw-dvnfA5-3">
          <mxGeometry width="15" height="10" as="geometry">
            <mxRectangle width="15" height="10" as="alternateBounds" />
          </mxGeometry>
        </mxCell>
        <mxCell id="VW7eisISwE8aw-dvnfA5-5" value="" style="shape=partialRectangle;html=1;whiteSpace=wrap;connectable=0;strokeColor=inherit;overflow=hidden;fillColor=none;top=0;left=0;bottom=0;right=0;pointerEvents=1;" vertex="1" parent="VW7eisISwE8aw-dvnfA5-3">
          <mxGeometry x="15" width="14" height="10" as="geometry">
            <mxRectangle width="14" height="10" as="alternateBounds" />
          </mxGeometry>
        </mxCell>
        <mxCell id="VW7eisISwE8aw-dvnfA5-6" value="" style="shape=partialRectangle;html=1;whiteSpace=wrap;connectable=0;strokeColor=inherit;overflow=hidden;fillColor=none;top=0;left=0;bottom=0;right=0;pointerEvents=1;" vertex="1" parent="VW7eisISwE8aw-dvnfA5-3">
          <mxGeometry x="29" width="15" height="10" as="geometry">
            <mxRectangle width="15" height="10" as="alternateBounds" />
          </mxGeometry>
        </mxCell>
        <mxCell id="VW7eisISwE8aw-dvnfA5-7" value="" style="shape=partialRectangle;html=1;whiteSpace=wrap;connectable=0;strokeColor=inherit;overflow=hidden;fillColor=none;top=0;left=0;bottom=0;right=0;pointerEvents=1;" vertex="1" parent="VW7eisISwE8aw-dvnfA5-3">
          <mxGeometry x="44" width="14" height="10" as="geometry">
            <mxRectangle width="14" height="10" as="alternateBounds" />
          </mxGeometry>
        </mxCell>
        <mxCell id="VW7eisISwE8aw-dvnfA5-8" value="" style="shape=partialRectangle;html=1;whiteSpace=wrap;connectable=0;strokeColor=inherit;overflow=hidden;fillColor=none;top=0;left=0;bottom=0;right=0;pointerEvents=1;" vertex="1" parent="VW7eisISwE8aw-dvnfA5-3">
          <mxGeometry x="58" width="15" height="10" as="geometry">
            <mxRectangle width="15" height="10" as="alternateBounds" />
          </mxGeometry>
        </mxCell>
        <mxCell id="VW7eisISwE8aw-dvnfA5-9" value="" style="shape=partialRectangle;html=1;whiteSpace=wrap;connectable=0;strokeColor=inherit;overflow=hidden;fillColor=none;top=0;left=0;bottom=0;right=0;pointerEvents=1;" vertex="1" parent="VW7eisISwE8aw-dvnfA5-3">
          <mxGeometry x="73" width="14" height="10" as="geometry">
            <mxRectangle width="14" height="10" as="alternateBounds" />
          </mxGeometry>
        </mxCell>
        <mxCell id="VW7eisISwE8aw-dvnfA5-10" value="" style="shape=partialRectangle;html=1;whiteSpace=wrap;connectable=0;strokeColor=inherit;overflow=hidden;fillColor=none;top=0;left=0;bottom=0;right=0;pointerEvents=1;" vertex="1" parent="VW7eisISwE8aw-dvnfA5-3">
          <mxGeometry x="87" width="15" height="10" as="geometry">
            <mxRectangle width="15" height="10" as="alternateBounds" />
          </mxGeometry>
        </mxCell>
        <mxCell id="VW7eisISwE8aw-dvnfA5-11" value="" style="shape=partialRectangle;html=1;whiteSpace=wrap;connectable=0;strokeColor=inherit;overflow=hidden;fillColor=none;top=0;left=0;bottom=0;right=0;pointerEvents=1;" vertex="1" parent="VW7eisISwE8aw-dvnfA5-3">
          <mxGeometry x="102" width="14" height="10" as="geometry">
            <mxRectangle width="14" height="10" as="alternateBounds" />
          </mxGeometry>
        </mxCell>
        <mxCell id="VW7eisISwE8aw-dvnfA5-12" value="" style="shape=partialRectangle;html=1;whiteSpace=wrap;connectable=0;strokeColor=inherit;overflow=hidden;fillColor=none;top=0;left=0;bottom=0;right=0;pointerEvents=1;" vertex="1" parent="VW7eisISwE8aw-dvnfA5-3">
          <mxGeometry x="116" width="15" height="10" as="geometry">
            <mxRectangle width="15" height="10" as="alternateBounds" />
          </mxGeometry>
        </mxCell>
        <mxCell id="VW7eisISwE8aw-dvnfA5-13" value="" style="shape=partialRectangle;html=1;whiteSpace=wrap;connectable=0;strokeColor=inherit;overflow=hidden;fillColor=none;top=0;left=0;bottom=0;right=0;pointerEvents=1;" vertex="1" parent="VW7eisISwE8aw-dvnfA5-3">
          <mxGeometry x="131" width="14" height="10" as="geometry">
            <mxRectangle width="14" height="10" as="alternateBounds" />
          </mxGeometry>
        </mxCell>
        <mxCell id="VW7eisISwE8aw-dvnfA5-14" value="" style="shape=partialRectangle;html=1;whiteSpace=wrap;connectable=0;strokeColor=inherit;overflow=hidden;fillColor=none;top=0;left=0;bottom=0;right=0;pointerEvents=1;" vertex="1" parent="VW7eisISwE8aw-dvnfA5-3">
          <mxGeometry x="145" width="15" height="10" as="geometry">
            <mxRectangle width="15" height="10" as="alternateBounds" />
          </mxGeometry>
        </mxCell>
        <mxCell id="VW7eisISwE8aw-dvnfA5-15" value="" style="shape=partialRectangle;html=1;whiteSpace=wrap;connectable=0;strokeColor=inherit;overflow=hidden;fillColor=none;top=0;left=0;bottom=0;right=0;pointerEvents=1;" vertex="1" parent="VW7eisISwE8aw-dvnfA5-3">
          <mxGeometry x="160" width="14" height="10" as="geometry">
            <mxRectangle width="14" height="10" as="alternateBounds" />
          </mxGeometry>
        </mxCell>
        <mxCell id="VW7eisISwE8aw-dvnfA5-16" value="" style="shape=partialRectangle;html=1;whiteSpace=wrap;connectable=0;strokeColor=inherit;overflow=hidden;fillColor=none;top=0;left=0;bottom=0;right=0;pointerEvents=1;" vertex="1" parent="VW7eisISwE8aw-dvnfA5-3">
          <mxGeometry x="174" width="15" height="10" as="geometry">
            <mxRectangle width="15" height="10" as="alternateBounds" />
          </mxGeometry>
        </mxCell>
        <mxCell id="VW7eisISwE8aw-dvnfA5-17" value="" style="shape=partialRectangle;html=1;whiteSpace=wrap;connectable=0;strokeColor=inherit;overflow=hidden;fillColor=none;top=0;left=0;bottom=0;right=0;pointerEvents=1;" vertex="1" parent="VW7eisISwE8aw-dvnfA5-3">
          <mxGeometry x="189" width="14" height="10" as="geometry">
            <mxRectangle width="14" height="10" as="alternateBounds" />
          </mxGeometry>
        </mxCell>
        <mxCell id="VW7eisISwE8aw-dvnfA5-18" value="" style="shape=partialRectangle;html=1;whiteSpace=wrap;connectable=0;strokeColor=inherit;overflow=hidden;fillColor=none;top=0;left=0;bottom=0;right=0;pointerEvents=1;" vertex="1" parent="VW7eisISwE8aw-dvnfA5-3">
          <mxGeometry x="203" width="15" height="10" as="geometry">
            <mxRectangle width="15" height="10" as="alternateBounds" />
          </mxGeometry>
        </mxCell>
        <mxCell id="VW7eisISwE8aw-dvnfA5-19" value="" style="shape=partialRectangle;html=1;whiteSpace=wrap;connectable=0;strokeColor=inherit;overflow=hidden;fillColor=none;top=0;left=0;bottom=0;right=0;pointerEvents=1;" vertex="1" parent="VW7eisISwE8aw-dvnfA5-3">
          <mxGeometry x="218" width="14" height="10" as="geometry">
            <mxRectangle width="14" height="10" as="alternateBounds" />
          </mxGeometry>
        </mxCell>
        <mxCell id="VW7eisISwE8aw-dvnfA5-20" value="" style="shape=partialRectangle;html=1;whiteSpace=wrap;connectable=0;strokeColor=inherit;overflow=hidden;fillColor=none;top=0;left=0;bottom=0;right=0;pointerEvents=1;" vertex="1" parent="VW7eisISwE8aw-dvnfA5-3">
          <mxGeometry x="232" width="15" height="10" as="geometry">
            <mxRectangle width="15" height="10" as="alternateBounds" />
          </mxGeometry>
        </mxCell>
        <mxCell id="VW7eisISwE8aw-dvnfA5-21" value="" style="shape=partialRectangle;html=1;whiteSpace=wrap;connectable=0;strokeColor=inherit;overflow=hidden;fillColor=none;top=0;left=0;bottom=0;right=0;pointerEvents=1;" vertex="1" parent="VW7eisISwE8aw-dvnfA5-3">
          <mxGeometry x="247" width="14" height="10" as="geometry">
            <mxRectangle width="14" height="10" as="alternateBounds" />
          </mxGeometry>
        </mxCell>
        <mxCell id="VW7eisISwE8aw-dvnfA5-22" value="" style="shape=partialRectangle;html=1;whiteSpace=wrap;connectable=0;strokeColor=inherit;overflow=hidden;fillColor=none;top=0;left=0;bottom=0;right=0;pointerEvents=1;" vertex="1" parent="VW7eisISwE8aw-dvnfA5-3">
          <mxGeometry x="261" width="15" height="10" as="geometry">
            <mxRectangle width="15" height="10" as="alternateBounds" />
          </mxGeometry>
        </mxCell>
        <mxCell id="VW7eisISwE8aw-dvnfA5-23" value="" style="shape=partialRectangle;html=1;whiteSpace=wrap;connectable=0;strokeColor=inherit;overflow=hidden;fillColor=none;top=0;left=0;bottom=0;right=0;pointerEvents=1;" vertex="1" parent="VW7eisISwE8aw-dvnfA5-3">
          <mxGeometry x="276" width="14" height="10" as="geometry">
            <mxRectangle width="14" height="10" as="alternateBounds" />
          </mxGeometry>
        </mxCell>
        <mxCell id="VW7eisISwE8aw-dvnfA5-25" value="line buff" style="text;html=1;align=center;verticalAlign=middle;whiteSpace=wrap;rounded=0;" vertex="1" parent="VW7eisISwE8aw-dvnfA5-72">
          <mxGeometry width="60" height="10" as="geometry" />
        </mxCell>
        <mxCell id="VW7eisISwE8aw-dvnfA5-26" value="" style="shape=table;startSize=0;container=1;collapsible=0;childLayout=tableLayout;" vertex="1" parent="VW7eisISwE8aw-dvnfA5-72">
          <mxGeometry y="27" width="290" height="10" as="geometry" />
        </mxCell>
        <mxCell id="VW7eisISwE8aw-dvnfA5-27" value="" style="shape=tableRow;horizontal=0;startSize=0;swimlaneHead=0;swimlaneBody=0;strokeColor=inherit;top=0;left=0;bottom=0;right=0;collapsible=0;dropTarget=0;fillColor=none;points=[[0,0.5],[1,0.5]];portConstraint=eastwest;" vertex="1" parent="VW7eisISwE8aw-dvnfA5-26">
          <mxGeometry width="290" height="10" as="geometry" />
        </mxCell>
        <mxCell id="VW7eisISwE8aw-dvnfA5-28" value="" style="shape=partialRectangle;html=1;whiteSpace=wrap;connectable=0;strokeColor=inherit;overflow=hidden;fillColor=none;top=0;left=0;bottom=0;right=0;pointerEvents=1;" vertex="1" parent="VW7eisISwE8aw-dvnfA5-27">
          <mxGeometry width="15" height="10" as="geometry">
            <mxRectangle width="15" height="10" as="alternateBounds" />
          </mxGeometry>
        </mxCell>
        <mxCell id="VW7eisISwE8aw-dvnfA5-29" value="" style="shape=partialRectangle;html=1;whiteSpace=wrap;connectable=0;strokeColor=inherit;overflow=hidden;fillColor=none;top=0;left=0;bottom=0;right=0;pointerEvents=1;" vertex="1" parent="VW7eisISwE8aw-dvnfA5-27">
          <mxGeometry x="15" width="14" height="10" as="geometry">
            <mxRectangle width="14" height="10" as="alternateBounds" />
          </mxGeometry>
        </mxCell>
        <mxCell id="VW7eisISwE8aw-dvnfA5-30" value="" style="shape=partialRectangle;html=1;whiteSpace=wrap;connectable=0;strokeColor=inherit;overflow=hidden;fillColor=none;top=0;left=0;bottom=0;right=0;pointerEvents=1;" vertex="1" parent="VW7eisISwE8aw-dvnfA5-27">
          <mxGeometry x="29" width="15" height="10" as="geometry">
            <mxRectangle width="15" height="10" as="alternateBounds" />
          </mxGeometry>
        </mxCell>
        <mxCell id="VW7eisISwE8aw-dvnfA5-31" value="" style="shape=partialRectangle;html=1;whiteSpace=wrap;connectable=0;strokeColor=inherit;overflow=hidden;fillColor=none;top=0;left=0;bottom=0;right=0;pointerEvents=1;" vertex="1" parent="VW7eisISwE8aw-dvnfA5-27">
          <mxGeometry x="44" width="14" height="10" as="geometry">
            <mxRectangle width="14" height="10" as="alternateBounds" />
          </mxGeometry>
        </mxCell>
        <mxCell id="VW7eisISwE8aw-dvnfA5-32" value="" style="shape=partialRectangle;html=1;whiteSpace=wrap;connectable=0;strokeColor=inherit;overflow=hidden;fillColor=none;top=0;left=0;bottom=0;right=0;pointerEvents=1;" vertex="1" parent="VW7eisISwE8aw-dvnfA5-27">
          <mxGeometry x="58" width="15" height="10" as="geometry">
            <mxRectangle width="15" height="10" as="alternateBounds" />
          </mxGeometry>
        </mxCell>
        <mxCell id="VW7eisISwE8aw-dvnfA5-33" value="" style="shape=partialRectangle;html=1;whiteSpace=wrap;connectable=0;strokeColor=inherit;overflow=hidden;fillColor=none;top=0;left=0;bottom=0;right=0;pointerEvents=1;" vertex="1" parent="VW7eisISwE8aw-dvnfA5-27">
          <mxGeometry x="73" width="14" height="10" as="geometry">
            <mxRectangle width="14" height="10" as="alternateBounds" />
          </mxGeometry>
        </mxCell>
        <mxCell id="VW7eisISwE8aw-dvnfA5-34" value="" style="shape=partialRectangle;html=1;whiteSpace=wrap;connectable=0;strokeColor=inherit;overflow=hidden;fillColor=none;top=0;left=0;bottom=0;right=0;pointerEvents=1;" vertex="1" parent="VW7eisISwE8aw-dvnfA5-27">
          <mxGeometry x="87" width="15" height="10" as="geometry">
            <mxRectangle width="15" height="10" as="alternateBounds" />
          </mxGeometry>
        </mxCell>
        <mxCell id="VW7eisISwE8aw-dvnfA5-35" value="" style="shape=partialRectangle;html=1;whiteSpace=wrap;connectable=0;strokeColor=inherit;overflow=hidden;fillColor=none;top=0;left=0;bottom=0;right=0;pointerEvents=1;" vertex="1" parent="VW7eisISwE8aw-dvnfA5-27">
          <mxGeometry x="102" width="14" height="10" as="geometry">
            <mxRectangle width="14" height="10" as="alternateBounds" />
          </mxGeometry>
        </mxCell>
        <mxCell id="VW7eisISwE8aw-dvnfA5-36" value="" style="shape=partialRectangle;html=1;whiteSpace=wrap;connectable=0;strokeColor=inherit;overflow=hidden;fillColor=none;top=0;left=0;bottom=0;right=0;pointerEvents=1;" vertex="1" parent="VW7eisISwE8aw-dvnfA5-27">
          <mxGeometry x="116" width="15" height="10" as="geometry">
            <mxRectangle width="15" height="10" as="alternateBounds" />
          </mxGeometry>
        </mxCell>
        <mxCell id="VW7eisISwE8aw-dvnfA5-37" value="" style="shape=partialRectangle;html=1;whiteSpace=wrap;connectable=0;strokeColor=inherit;overflow=hidden;fillColor=none;top=0;left=0;bottom=0;right=0;pointerEvents=1;" vertex="1" parent="VW7eisISwE8aw-dvnfA5-27">
          <mxGeometry x="131" width="14" height="10" as="geometry">
            <mxRectangle width="14" height="10" as="alternateBounds" />
          </mxGeometry>
        </mxCell>
        <mxCell id="VW7eisISwE8aw-dvnfA5-38" value="" style="shape=partialRectangle;html=1;whiteSpace=wrap;connectable=0;strokeColor=inherit;overflow=hidden;fillColor=none;top=0;left=0;bottom=0;right=0;pointerEvents=1;" vertex="1" parent="VW7eisISwE8aw-dvnfA5-27">
          <mxGeometry x="145" width="15" height="10" as="geometry">
            <mxRectangle width="15" height="10" as="alternateBounds" />
          </mxGeometry>
        </mxCell>
        <mxCell id="VW7eisISwE8aw-dvnfA5-39" value="" style="shape=partialRectangle;html=1;whiteSpace=wrap;connectable=0;strokeColor=inherit;overflow=hidden;fillColor=none;top=0;left=0;bottom=0;right=0;pointerEvents=1;" vertex="1" parent="VW7eisISwE8aw-dvnfA5-27">
          <mxGeometry x="160" width="14" height="10" as="geometry">
            <mxRectangle width="14" height="10" as="alternateBounds" />
          </mxGeometry>
        </mxCell>
        <mxCell id="VW7eisISwE8aw-dvnfA5-40" value="" style="shape=partialRectangle;html=1;whiteSpace=wrap;connectable=0;strokeColor=inherit;overflow=hidden;fillColor=none;top=0;left=0;bottom=0;right=0;pointerEvents=1;" vertex="1" parent="VW7eisISwE8aw-dvnfA5-27">
          <mxGeometry x="174" width="15" height="10" as="geometry">
            <mxRectangle width="15" height="10" as="alternateBounds" />
          </mxGeometry>
        </mxCell>
        <mxCell id="VW7eisISwE8aw-dvnfA5-41" value="" style="shape=partialRectangle;html=1;whiteSpace=wrap;connectable=0;strokeColor=inherit;overflow=hidden;fillColor=none;top=0;left=0;bottom=0;right=0;pointerEvents=1;" vertex="1" parent="VW7eisISwE8aw-dvnfA5-27">
          <mxGeometry x="189" width="14" height="10" as="geometry">
            <mxRectangle width="14" height="10" as="alternateBounds" />
          </mxGeometry>
        </mxCell>
        <mxCell id="VW7eisISwE8aw-dvnfA5-42" value="" style="shape=partialRectangle;html=1;whiteSpace=wrap;connectable=0;strokeColor=inherit;overflow=hidden;fillColor=none;top=0;left=0;bottom=0;right=0;pointerEvents=1;" vertex="1" parent="VW7eisISwE8aw-dvnfA5-27">
          <mxGeometry x="203" width="15" height="10" as="geometry">
            <mxRectangle width="15" height="10" as="alternateBounds" />
          </mxGeometry>
        </mxCell>
        <mxCell id="VW7eisISwE8aw-dvnfA5-43" value="" style="shape=partialRectangle;html=1;whiteSpace=wrap;connectable=0;strokeColor=inherit;overflow=hidden;fillColor=none;top=0;left=0;bottom=0;right=0;pointerEvents=1;" vertex="1" parent="VW7eisISwE8aw-dvnfA5-27">
          <mxGeometry x="218" width="14" height="10" as="geometry">
            <mxRectangle width="14" height="10" as="alternateBounds" />
          </mxGeometry>
        </mxCell>
        <mxCell id="VW7eisISwE8aw-dvnfA5-44" value="" style="shape=partialRectangle;html=1;whiteSpace=wrap;connectable=0;strokeColor=inherit;overflow=hidden;fillColor=none;top=0;left=0;bottom=0;right=0;pointerEvents=1;" vertex="1" parent="VW7eisISwE8aw-dvnfA5-27">
          <mxGeometry x="232" width="15" height="10" as="geometry">
            <mxRectangle width="15" height="10" as="alternateBounds" />
          </mxGeometry>
        </mxCell>
        <mxCell id="VW7eisISwE8aw-dvnfA5-45" value="" style="shape=partialRectangle;html=1;whiteSpace=wrap;connectable=0;strokeColor=inherit;overflow=hidden;fillColor=none;top=0;left=0;bottom=0;right=0;pointerEvents=1;" vertex="1" parent="VW7eisISwE8aw-dvnfA5-27">
          <mxGeometry x="247" width="14" height="10" as="geometry">
            <mxRectangle width="14" height="10" as="alternateBounds" />
          </mxGeometry>
        </mxCell>
        <mxCell id="VW7eisISwE8aw-dvnfA5-46" value="" style="shape=partialRectangle;html=1;whiteSpace=wrap;connectable=0;strokeColor=inherit;overflow=hidden;fillColor=none;top=0;left=0;bottom=0;right=0;pointerEvents=1;" vertex="1" parent="VW7eisISwE8aw-dvnfA5-27">
          <mxGeometry x="261" width="15" height="10" as="geometry">
            <mxRectangle width="15" height="10" as="alternateBounds" />
          </mxGeometry>
        </mxCell>
        <mxCell id="VW7eisISwE8aw-dvnfA5-47" value="" style="shape=partialRectangle;html=1;whiteSpace=wrap;connectable=0;strokeColor=inherit;overflow=hidden;fillColor=none;top=0;left=0;bottom=0;right=0;pointerEvents=1;" vertex="1" parent="VW7eisISwE8aw-dvnfA5-27">
          <mxGeometry x="276" width="14" height="10" as="geometry">
            <mxRectangle width="14" height="10" as="alternateBounds" />
          </mxGeometry>
        </mxCell>
        <mxCell id="VW7eisISwE8aw-dvnfA5-48" value="" style="shape=table;startSize=0;container=1;collapsible=0;childLayout=tableLayout;" vertex="1" parent="VW7eisISwE8aw-dvnfA5-72">
          <mxGeometry y="45" width="290" height="10" as="geometry" />
        </mxCell>
        <mxCell id="VW7eisISwE8aw-dvnfA5-49" value="" style="shape=tableRow;horizontal=0;startSize=0;swimlaneHead=0;swimlaneBody=0;strokeColor=inherit;top=0;left=0;bottom=0;right=0;collapsible=0;dropTarget=0;fillColor=none;points=[[0,0.5],[1,0.5]];portConstraint=eastwest;" vertex="1" parent="VW7eisISwE8aw-dvnfA5-48">
          <mxGeometry width="290" height="10" as="geometry" />
        </mxCell>
        <mxCell id="VW7eisISwE8aw-dvnfA5-50" value="" style="shape=partialRectangle;html=1;whiteSpace=wrap;connectable=0;strokeColor=inherit;overflow=hidden;fillColor=none;top=0;left=0;bottom=0;right=0;pointerEvents=1;" vertex="1" parent="VW7eisISwE8aw-dvnfA5-49">
          <mxGeometry width="15" height="10" as="geometry">
            <mxRectangle width="15" height="10" as="alternateBounds" />
          </mxGeometry>
        </mxCell>
        <mxCell id="VW7eisISwE8aw-dvnfA5-51" value="" style="shape=partialRectangle;html=1;whiteSpace=wrap;connectable=0;strokeColor=inherit;overflow=hidden;fillColor=none;top=0;left=0;bottom=0;right=0;pointerEvents=1;" vertex="1" parent="VW7eisISwE8aw-dvnfA5-49">
          <mxGeometry x="15" width="14" height="10" as="geometry">
            <mxRectangle width="14" height="10" as="alternateBounds" />
          </mxGeometry>
        </mxCell>
        <mxCell id="VW7eisISwE8aw-dvnfA5-52" value="" style="shape=partialRectangle;html=1;whiteSpace=wrap;connectable=0;strokeColor=inherit;overflow=hidden;fillColor=none;top=0;left=0;bottom=0;right=0;pointerEvents=1;" vertex="1" parent="VW7eisISwE8aw-dvnfA5-49">
          <mxGeometry x="29" width="15" height="10" as="geometry">
            <mxRectangle width="15" height="10" as="alternateBounds" />
          </mxGeometry>
        </mxCell>
        <mxCell id="VW7eisISwE8aw-dvnfA5-53" value="" style="shape=partialRectangle;html=1;whiteSpace=wrap;connectable=0;strokeColor=inherit;overflow=hidden;fillColor=none;top=0;left=0;bottom=0;right=0;pointerEvents=1;" vertex="1" parent="VW7eisISwE8aw-dvnfA5-49">
          <mxGeometry x="44" width="14" height="10" as="geometry">
            <mxRectangle width="14" height="10" as="alternateBounds" />
          </mxGeometry>
        </mxCell>
        <mxCell id="VW7eisISwE8aw-dvnfA5-54" value="" style="shape=partialRectangle;html=1;whiteSpace=wrap;connectable=0;strokeColor=inherit;overflow=hidden;fillColor=none;top=0;left=0;bottom=0;right=0;pointerEvents=1;" vertex="1" parent="VW7eisISwE8aw-dvnfA5-49">
          <mxGeometry x="58" width="15" height="10" as="geometry">
            <mxRectangle width="15" height="10" as="alternateBounds" />
          </mxGeometry>
        </mxCell>
        <mxCell id="VW7eisISwE8aw-dvnfA5-55" value="" style="shape=partialRectangle;html=1;whiteSpace=wrap;connectable=0;strokeColor=inherit;overflow=hidden;fillColor=none;top=0;left=0;bottom=0;right=0;pointerEvents=1;" vertex="1" parent="VW7eisISwE8aw-dvnfA5-49">
          <mxGeometry x="73" width="14" height="10" as="geometry">
            <mxRectangle width="14" height="10" as="alternateBounds" />
          </mxGeometry>
        </mxCell>
        <mxCell id="VW7eisISwE8aw-dvnfA5-56" value="" style="shape=partialRectangle;html=1;whiteSpace=wrap;connectable=0;strokeColor=inherit;overflow=hidden;fillColor=none;top=0;left=0;bottom=0;right=0;pointerEvents=1;" vertex="1" parent="VW7eisISwE8aw-dvnfA5-49">
          <mxGeometry x="87" width="15" height="10" as="geometry">
            <mxRectangle width="15" height="10" as="alternateBounds" />
          </mxGeometry>
        </mxCell>
        <mxCell id="VW7eisISwE8aw-dvnfA5-57" value="" style="shape=partialRectangle;html=1;whiteSpace=wrap;connectable=0;strokeColor=inherit;overflow=hidden;fillColor=none;top=0;left=0;bottom=0;right=0;pointerEvents=1;" vertex="1" parent="VW7eisISwE8aw-dvnfA5-49">
          <mxGeometry x="102" width="14" height="10" as="geometry">
            <mxRectangle width="14" height="10" as="alternateBounds" />
          </mxGeometry>
        </mxCell>
        <mxCell id="VW7eisISwE8aw-dvnfA5-58" value="" style="shape=partialRectangle;html=1;whiteSpace=wrap;connectable=0;strokeColor=inherit;overflow=hidden;fillColor=none;top=0;left=0;bottom=0;right=0;pointerEvents=1;" vertex="1" parent="VW7eisISwE8aw-dvnfA5-49">
          <mxGeometry x="116" width="15" height="10" as="geometry">
            <mxRectangle width="15" height="10" as="alternateBounds" />
          </mxGeometry>
        </mxCell>
        <mxCell id="VW7eisISwE8aw-dvnfA5-59" value="" style="shape=partialRectangle;html=1;whiteSpace=wrap;connectable=0;strokeColor=inherit;overflow=hidden;fillColor=none;top=0;left=0;bottom=0;right=0;pointerEvents=1;" vertex="1" parent="VW7eisISwE8aw-dvnfA5-49">
          <mxGeometry x="131" width="14" height="10" as="geometry">
            <mxRectangle width="14" height="10" as="alternateBounds" />
          </mxGeometry>
        </mxCell>
        <mxCell id="VW7eisISwE8aw-dvnfA5-60" value="" style="shape=partialRectangle;html=1;whiteSpace=wrap;connectable=0;strokeColor=inherit;overflow=hidden;fillColor=none;top=0;left=0;bottom=0;right=0;pointerEvents=1;" vertex="1" parent="VW7eisISwE8aw-dvnfA5-49">
          <mxGeometry x="145" width="15" height="10" as="geometry">
            <mxRectangle width="15" height="10" as="alternateBounds" />
          </mxGeometry>
        </mxCell>
        <mxCell id="VW7eisISwE8aw-dvnfA5-61" value="" style="shape=partialRectangle;html=1;whiteSpace=wrap;connectable=0;strokeColor=inherit;overflow=hidden;fillColor=none;top=0;left=0;bottom=0;right=0;pointerEvents=1;" vertex="1" parent="VW7eisISwE8aw-dvnfA5-49">
          <mxGeometry x="160" width="14" height="10" as="geometry">
            <mxRectangle width="14" height="10" as="alternateBounds" />
          </mxGeometry>
        </mxCell>
        <mxCell id="VW7eisISwE8aw-dvnfA5-62" value="" style="shape=partialRectangle;html=1;whiteSpace=wrap;connectable=0;strokeColor=inherit;overflow=hidden;fillColor=none;top=0;left=0;bottom=0;right=0;pointerEvents=1;" vertex="1" parent="VW7eisISwE8aw-dvnfA5-49">
          <mxGeometry x="174" width="15" height="10" as="geometry">
            <mxRectangle width="15" height="10" as="alternateBounds" />
          </mxGeometry>
        </mxCell>
        <mxCell id="VW7eisISwE8aw-dvnfA5-63" value="" style="shape=partialRectangle;html=1;whiteSpace=wrap;connectable=0;strokeColor=inherit;overflow=hidden;fillColor=none;top=0;left=0;bottom=0;right=0;pointerEvents=1;" vertex="1" parent="VW7eisISwE8aw-dvnfA5-49">
          <mxGeometry x="189" width="14" height="10" as="geometry">
            <mxRectangle width="14" height="10" as="alternateBounds" />
          </mxGeometry>
        </mxCell>
        <mxCell id="VW7eisISwE8aw-dvnfA5-64" value="" style="shape=partialRectangle;html=1;whiteSpace=wrap;connectable=0;strokeColor=inherit;overflow=hidden;fillColor=none;top=0;left=0;bottom=0;right=0;pointerEvents=1;" vertex="1" parent="VW7eisISwE8aw-dvnfA5-49">
          <mxGeometry x="203" width="15" height="10" as="geometry">
            <mxRectangle width="15" height="10" as="alternateBounds" />
          </mxGeometry>
        </mxCell>
        <mxCell id="VW7eisISwE8aw-dvnfA5-65" value="" style="shape=partialRectangle;html=1;whiteSpace=wrap;connectable=0;strokeColor=inherit;overflow=hidden;fillColor=none;top=0;left=0;bottom=0;right=0;pointerEvents=1;" vertex="1" parent="VW7eisISwE8aw-dvnfA5-49">
          <mxGeometry x="218" width="14" height="10" as="geometry">
            <mxRectangle width="14" height="10" as="alternateBounds" />
          </mxGeometry>
        </mxCell>
        <mxCell id="VW7eisISwE8aw-dvnfA5-66" value="" style="shape=partialRectangle;html=1;whiteSpace=wrap;connectable=0;strokeColor=inherit;overflow=hidden;fillColor=none;top=0;left=0;bottom=0;right=0;pointerEvents=1;" vertex="1" parent="VW7eisISwE8aw-dvnfA5-49">
          <mxGeometry x="232" width="15" height="10" as="geometry">
            <mxRectangle width="15" height="10" as="alternateBounds" />
          </mxGeometry>
        </mxCell>
        <mxCell id="VW7eisISwE8aw-dvnfA5-67" value="" style="shape=partialRectangle;html=1;whiteSpace=wrap;connectable=0;strokeColor=inherit;overflow=hidden;fillColor=none;top=0;left=0;bottom=0;right=0;pointerEvents=1;" vertex="1" parent="VW7eisISwE8aw-dvnfA5-49">
          <mxGeometry x="247" width="14" height="10" as="geometry">
            <mxRectangle width="14" height="10" as="alternateBounds" />
          </mxGeometry>
        </mxCell>
        <mxCell id="VW7eisISwE8aw-dvnfA5-68" value="" style="shape=partialRectangle;html=1;whiteSpace=wrap;connectable=0;strokeColor=inherit;overflow=hidden;fillColor=none;top=0;left=0;bottom=0;right=0;pointerEvents=1;" vertex="1" parent="VW7eisISwE8aw-dvnfA5-49">
          <mxGeometry x="261" width="15" height="10" as="geometry">
            <mxRectangle width="15" height="10" as="alternateBounds" />
          </mxGeometry>
        </mxCell>
        <mxCell id="VW7eisISwE8aw-dvnfA5-69" value="" style="shape=partialRectangle;html=1;whiteSpace=wrap;connectable=0;strokeColor=inherit;overflow=hidden;fillColor=none;top=0;left=0;bottom=0;right=0;pointerEvents=1;" vertex="1" parent="VW7eisISwE8aw-dvnfA5-49">
          <mxGeometry x="276" width="14" height="10" as="geometry">
            <mxRectangle width="14" height="10" as="alternateBounds" />
          </mxGeometry>
        </mxCell>
      </root>
    </mxGraphModel>
  </diagram>
</mxfile>
